<svg xmlns="http://www.w3.org/2000/svg" viewBox="0 0 500 500"><g id="freepik--background-complete--inject-3"><rect y="382.4" width="500" height="0.25" style="fill:#ebebeb"></rect><rect x="416.78" y="398.49" width="33.12" height="0.25" style="fill:#ebebeb"></rect><rect x="322.53" y="401.21" width="8.69" height="0.25" style="fill:#ebebeb"></rect><rect x="396.59" y="389.21" width="19.19" height="0.25" style="fill:#ebebeb"></rect><rect x="52.46" y="390.89" width="43.19" height="0.25" style="fill:#ebebeb"></rect><rect x="104.56" y="390.89" width="6.33" height="0.25" style="fill:#ebebeb"></rect><rect x="131.47" y="395.11" width="93.68" height="0.25" style="fill:#ebebeb"></rect><path d="M237,337.8H43.91a5.71,5.71,0,0,1-5.7-5.71V60.66A5.71,5.71,0,0,1,43.91,55H237a5.71,5.71,0,0,1,5.71,5.71V332.09A5.71,5.71,0,0,1,237,337.8ZM43.91,55.2a5.46,5.46,0,0,0-5.45,5.46V332.09a5.46,5.46,0,0,0,5.45,5.46H237a5.47,5.47,0,0,0,5.46-5.46V60.66A5.47,5.47,0,0,0,237,55.2Z" style="fill:#ebebeb"></path><path d="M453.31,337.8H260.21a5.72,5.72,0,0,1-5.71-5.71V60.66A5.72,5.72,0,0,1,260.21,55h193.1A5.71,5.71,0,0,1,459,60.66V332.09A5.71,5.71,0,0,1,453.31,337.8ZM260.21,55.2a5.47,5.47,0,0,0-5.46,5.46V332.09a5.47,5.47,0,0,0,5.46,5.46h193.1a5.47,5.47,0,0,0,5.46-5.46V60.66a5.47,5.47,0,0,0-5.46-5.46Z" style="fill:#ebebeb"></path><rect x="300.08" y="95.76" width="56.73" height="84.56" style="fill:#e6e6e6"></rect><rect x="356.82" y="95.76" width="0.89" height="84.56" transform="translate(714.52 276.09) rotate(180)" style="fill:#e0e0e0"></rect><rect x="289.38" y="112.89" width="78.14" height="50.31" transform="translate(466.49 -190.41) rotate(90)" style="fill:#f5f5f5"></rect><circle cx="328.45" cy="122.12" r="13.45" transform="translate(155.29 426.77) rotate(-80.78)" style="fill:#ebebeb"></circle><rect x="311.86" y="143.35" width="33.18" height="3.4" style="fill:#ebebeb"></rect><rect x="311.86" y="152.38" width="33.18" height="3.4" style="fill:#ebebeb"></rect><rect x="311.86" y="161.41" width="33.18" height="3.4" style="fill:#ebebeb"></rect><rect x="374.26" y="136.8" width="56.73" height="84.56" style="fill:#e6e6e6"></rect><rect x="430.99" y="136.8" width="0.89" height="84.56" transform="translate(862.87 358.17) rotate(180)" style="fill:#e0e0e0"></rect><rect x="363.56" y="153.93" width="78.14" height="50.31" transform="translate(581.71 -223.54) rotate(90)" style="fill:#fff"></rect><circle cx="402.63" cy="189.18" r="9.43" transform="translate(-15.84 340.11) rotate(-45)" style="fill:#f5f5f5"></circle><rect x="386.03" y="167.77" width="33.18" height="3.4" style="fill:#f5f5f5"></rect><rect x="392.03" y="206.99" width="21.19" height="3.4" style="fill:#f5f5f5"></rect><rect x="386.03" y="158.74" width="33.18" height="3.4" style="fill:#f5f5f5"></rect><rect x="386.03" y="149.72" width="33.18" height="3.4" style="fill:#f5f5f5"></rect><rect x="63.6" y="250" width="260.69" height="2.78" style="fill:#ebebeb"></rect><rect x="324.29" y="250" width="21.11" height="2.78" transform="translate(669.69 502.78) rotate(180)" style="fill:#e0e0e0"></rect><rect x="67.18" y="252.78" width="257.11" height="129.62" style="fill:#f5f5f5"></rect><rect x="123.4" y="252.78" width="1.44" height="129.62" style="fill:#e6e6e6"></rect><rect x="191.4" y="279.14" width="1.44" height="103.26" style="fill:#e6e6e6"></rect><rect x="94.93" y="327.57" width="1.44" height="56.94" transform="translate(451.69 260.39) rotate(90)" style="fill:#e6e6e6"></rect><rect x="94.93" y="301.93" width="1.44" height="56.94" transform="translate(426.06 234.76) rotate(90)" style="fill:#e6e6e6"></rect><rect x="94.93" y="276.3" width="1.44" height="56.94" transform="translate(400.42 209.12) rotate(90)" style="fill:#e6e6e6"></rect><rect x="195.01" y="150.58" width="1.44" height="257.11" transform="translate(474.87 83.4) rotate(90)" style="fill:#e6e6e6"></rect><rect x="324.29" y="252.78" width="18.47" height="129.62" transform="translate(667.05 635.18) rotate(180)" style="fill:#ebebeb"></rect><rect x="97.29" y="220.12" width="49.4" height="29.88" style="fill:#f5f5f5"></rect><rect x="146.69" y="220.12" width="12.17" height="29.88" transform="translate(305.56 470.12) rotate(180)" style="fill:#ebebeb"></rect><polygon points="131.43 232.21 124.85 232.21 124.85 225.63 119.14 225.63 119.14 232.21 112.56 232.21 112.56 237.91 119.14 237.91 119.14 244.5 124.85 244.5 124.85 237.91 131.43 237.91 131.43 232.21" style="fill:#fff"></polygon><path d="M316.33,250h-4V222.62a15.11,15.11,0,1,0-30.22,0h-4a19.11,19.11,0,1,1,38.22,0Z" style="fill:#ebebeb"></path><rect x="319.78" y="243.44" width="4" height="6.56" style="fill:#ebebeb"></rect><rect x="303.75" y="247.67" width="4" height="2.33" style="fill:#ebebeb"></rect><rect x="296.66" y="247.67" width="4" height="2.33" style="fill:#ebebeb"></rect><rect x="73.38" y="78.24" width="156.72" height="114.39" transform="translate(303.48 270.87) rotate(180)" style="fill:#e6e6e6"></rect><rect x="69.99" y="78.24" width="158.53" height="114.39" transform="translate(298.5 270.87) rotate(180)" style="fill:#f0f0f0"></rect><polygon points="73.38 192.63 230.1 192.63 230.1 197.62 70.06 197.62 73.38 192.63" style="fill:#e6e6e6"></polygon><polygon points="64.33 192.63 222.86 192.63 219.53 197.62 61.01 197.62 64.33 192.63" style="fill:#f0f0f0"></polygon><rect x="96.81" y="60.93" width="104.88" height="149.02" transform="translate(284.69 -13.81) rotate(90)" style="fill:#fafafa"></rect><polygon points="154.86 187.88 117.64 83 104.47 83 141.69 187.88 154.86 187.88" style="fill:#fff"></polygon><path d="M221.56,184.55a.37.37,0,0,0,.36-.37V86.09a.36.36,0,0,0-.72,0v98.09A.37.37,0,0,0,221.56,184.55Z" style="fill:#f0f0f0"></path><polygon points="126.83 187.88 89.61 83 84.47 83 121.69 187.88 126.83 187.88" style="fill:#fff"></polygon><rect x="22.6" y="135.14" width="104.88" height="0.6" transform="translate(210.48 60.39) rotate(90)" style="fill:#e6e6e6"></rect><polygon points="68.86 92.17 225.58 92.17 226.02 84.84 69.3 84.84 68.86 92.17" style="fill:#e0e0e0;opacity:0.5"></polygon><polygon points="68.86 104.21 225.58 104.21 226.02 96.89 69.3 96.89 68.86 104.21" style="fill:#e0e0e0;opacity:0.5"></polygon><polygon points="68.86 116.25 225.58 116.25 226.02 108.93 69.3 108.93 68.86 116.25" style="fill:#e0e0e0;opacity:0.5"></polygon><polygon points="68.86 128.3 225.58 128.3 226.02 120.97 69.3 120.97 68.86 128.3" style="fill:#e0e0e0;opacity:0.5"></polygon><polygon points="68.86 140.34 225.58 140.34 226.02 133.01 69.3 133.01 68.86 140.34" style="fill:#e0e0e0;opacity:0.5"></polygon><polygon points="68.86 152.38 225.58 152.38 226.02 145.05 69.3 145.05 68.86 152.38" style="fill:#e0e0e0;opacity:0.5"></polygon></g><g id="freepik--Shadow--inject-3"><ellipse id="freepik--path--inject-3" cx="250" cy="416.24" rx="193.89" ry="11.32" style="fill:#f5f5f5"></ellipse></g><g id="freepik--character-2--inject-3"><path d="M247.83,112.76c-4.35-10.65,2-19.12,4.29-19.6-3.31-3.93-3.08-10,2.58-12,0,7,13.93,4.46,17,8.93-1.37-7.27,2-9.35,4.94-8.93-2.19,6.72,11,9.34,8.07,17.6,7.2,6.12,5,17.05-6.16,20.86S250.73,119.86,247.83,112.76Z" style="fill:#263238"></path><path d="M282.49,98.25c4,.23,5.85-3.35,5.05-5.49C292.85,99.24,286,100.22,282.49,98.25Z" style="fill:#263238"></path><polygon points="214.13 390.62 230.66 390.78 228.04 410.31 214.22 410.2 214.13 390.62" style="fill:#b55b52"></polygon><polygon points="214.13 390.63 230.67 390.78 229.2 401.72 214.18 401.59 214.13 390.63" style="opacity:0.2"></polygon><path d="M242.1,314.57c8.07-25.06,20-51.22,12.08-75.1L208,239.33s-.39,54.88-1.25,78c-.89,24.05,5,80.9,5,80.9l18.94,0S243.5,341.42,242.1,314.57Z" style="fill:#4a6c04"></path><path d="M256.31,264.62c-1.34,11.58-5.18,23.38-9.18,35.1C242.33,275.7,249,267.25,256.31,264.62Z" style="opacity:0.2"></path><path d="M230.07,416.35H225.7l-.91-1.46-2,1.48H201a8.15,8.15,0,0,1,1.06-4.52s6.83-1.54,9.69-4.08a2.32,2.32,0,0,1,2-.4c2.89.58,10.58,1.84,15,.19a.67.67,0,0,1,.88.65A51,51,0,0,0,230.07,416.35Z" style="fill:#263238"></path><polygon points="276.03 390.62 292.59 390.78 293.32 410.31 279.48 410.2 276.03 390.62" style="fill:#b55b52"></polygon><polygon points="276.04 390.63 292.6 390.78 293.01 401.72 277.97 401.59 276.04 390.63" style="opacity:0.2"></polygon><path d="M294.05,314.57c1.33-25.06,3.15-62.56-5.25-74.09l-51.58-1.15s14.34,54.88,19.7,78c5.56,24.05,19.2,80.9,19.2,80.9l17.91,0S300.78,343.18,294.05,314.57Z" style="fill:#4a6c04"></path><path d="M235.48,167.89l-1,1.42-.94,1.25c-.63.82-1.28,1.6-1.93,2.38-1.29,1.56-2.67,3-4.09,4.49s-2.91,2.85-4.45,4.22-3.15,2.68-4.86,3.92-3.46,2.45-5.34,3.56a56.21,56.21,0,0,1-6,3,43.82,43.82,0,0,1-6.63,2.28,39.51,39.51,0,0,1-7.31,1.07l-.92.05a7.23,7.23,0,0,1-3.44-.7,24.67,24.67,0,0,1-4.44-2.67,28.19,28.19,0,0,1-3.6-3.35,28.86,28.86,0,0,1-4.74-7.48,34.63,34.63,0,0,1-2.31-7.65,38.17,38.17,0,0,1-.49-3.81c0-.64-.06-1.28-.08-1.92l0-2.07a4.73,4.73,0,0,1,4.8-4.67,4.68,4.68,0,0,1,2.67.87l3,2.11a3.81,3.81,0,0,1,.33.51l.36.61c.24.42.49.83.74,1.24.48.83,1,1.63,1.52,2.4a32.39,32.39,0,0,0,3.25,4.14,20.32,20.32,0,0,0,1.66,1.59,19.55,19.55,0,0,0,1.62,1.17,8,8,0,0,0,2.84,1.06l-4.37-.65a23.61,23.61,0,0,0,6.81-2.56,34.91,34.91,0,0,0,3.53-2.22c1.19-.8,2.37-1.72,3.53-2.68a80.53,80.53,0,0,0,6.77-6.38c1.1-1.14,2.16-2.33,3.21-3.52l1.53-1.8.73-.89.6-.74.44-.54a10.67,10.67,0,0,1,17,12.93Z" style="fill:#b55b52"></path><path d="M183.86,165.87l-4.51,5.33c-6.4,3.55-9.55-5.47-9.55-5.47L166.53,162a3.71,3.71,0,0,1,.24-4.78l3.12-3.75a3.84,3.84,0,0,1,5.3-.88l3.34,2.74a7.69,7.69,0,0,1,2.21,3Z" style="fill:#b55b52"></path><path d="M231.61,139.1c-10.41,4.16-33.1,31.3-33.1,31.3-3,5.64,2.33,20.57,10,22.15,0,0,20.63-11,25.61-20.52C239.51,161.64,242.65,134.7,231.61,139.1Z" style="fill:#4a6c04"></path><g style="opacity:0.4"><path d="M231.61,139.1c-10.41,4.16-33.1,31.3-33.1,31.3-3,5.64,2.33,20.57,10,22.15,0,0,20.63-11,25.61-20.52C239.51,161.64,242.65,134.7,231.61,139.1Z" style="fill:#fff"></path></g><path d="M237.87,137a208.81,208.81,0,0,1,46,.73,15.53,15.53,0,0,1,12.92,18.49c-7.16,36-3.63,79.46-4.36,86.58,0,0-69.3,21.46-85.29-1-4.7-44.14,11.13-80.78,18.36-96A15.45,15.45,0,0,1,237.87,137Z" style="fill:#4a6c04"></path><path d="M237.87,137a208.81,208.81,0,0,1,46,.73,15.53,15.53,0,0,1,12.92,18.49c-7.16,36-3.63,79.46-4.36,86.58,0,0-69.3,21.46-85.29-1-4.7-44.14,11.13-80.78,18.36-96A15.45,15.45,0,0,1,237.87,137Z" style="fill:#fff;opacity:0.4"></path><path d="M245.11,138.4a11.11,11.11,0,0,1,4.65-3.18,9,9,0,0,0,.15-6.05L272.59,122c-1.84,7.49-3.4,12.43-.61,16.07-1.68,2.27-11.92,5.48-21.1,6C243.13,144.39,243.48,140.46,245.11,138.4Z" style="fill:#b55b52"></path><path d="M270.7,135.3c-.55,1.82-12.12,7.73-22.4,8.64,7,1.74,7.53,8.88,7.53,8.88a34,34,0,0,0,18.59-16.15C273.26,135.05,270.7,135.3,270.7,135.3Z" style="fill:#fff"></path><path d="M223.74,186.42a148.93,148.93,0,0,1,29.42,3.12C247.59,186.17,232.58,183.64,223.74,186.42Z" style="fill:#4a6c04;opacity:0.30000000000000004"></path><path d="M233.41,188.88a123.08,123.08,0,0,1,24.07,5.79C253.23,191.26,241,187.53,233.41,188.88Z" style="fill:#4a6c04;opacity:0.30000000000000004"></path><path d="M249.76,135.22c-1.1,1.11-7.84,6-1.46,8.72-6.13,1.29-7.07,6.28-7.07,6.28s-5.36-8.34,5.1-14.24A21.73,21.73,0,0,1,249.76,135.22Z" style="fill:#fff"></path><path d="M250.09,129.87l17-1c-5.32,5.69-13.38,7.82-17.06,5.51A9,9,0,0,0,250.09,129.87Z" style="opacity:0.2"></path><path d="M277.18,111.26c-2.65,10.54-4,17-11.49,19.2-14.63,4.41-20.47,1.26-21-9.89-.51-10,3.9-25.59,15.14-27.79A15,15,0,0,1,277.18,111.26Z" style="fill:#b55b52"></path><path d="M274.42,117.64l-2.6-4.7s-7.23,2.86-7.74,7.32c-1.46-1.51-9.5-5-19.46-1.9,0,.76,0,1.5,0,2.21.56,11.15,6.41,14.3,21,9.9,4.57-1.39,6.86-4.32,8.54-8.81A12.61,12.61,0,0,0,274.42,117.64Z" style="fill:#263238;opacity:0.1"></path><path d="M275.54,118.59c-5.42-1.85-7-14.11-3-17-8-1.16-11.45-.88-18.95-6.18a1.57,1.57,0,0,1,.56-2.8c11.68-2.71,18.17-.7,22.05,3.92C280.36,101.44,286,114.78,275.54,118.59Z" style="fill:#263238"></path><path d="M251.91,119.55a9.37,9.37,0,0,0-1.37.48.24.24,0,0,0-.1.33.28.28,0,0,0,.35.13,7.25,7.25,0,0,1,6.31.12.26.26,0,0,0,.35-.08.25.25,0,0,0-.1-.34A7.65,7.65,0,0,0,251.91,119.55Z" style="fill:#263238"></path><path d="M260.94,111.37a5,5,0,0,1,3.79.52A9.91,9.91,0,0,1,260.94,111.37Z" style="opacity:0.2"></path><path d="M260.88,112.29a4.13,4.13,0,0,1,3.21,1.31A8.13,8.13,0,0,1,260.88,112.29Z" style="opacity:0.2"></path><path d="M252.12,99.85s7.33.37,10.83,2.35A59.78,59.78,0,0,1,252.12,99.85Z" style="opacity:0.2"></path><path d="M279.09,122.87a8.58,8.58,0,0,1-6,2.75c-3.05.08-2.69-2.38-1.35-4.93,1.21-2.29,3.4-5.38,6.17-4.27S281,120.79,279.09,122.87Z" style="fill:#b55b52"></path><path d="M259.25,111.84c-.16.87-.75,1.47-1.31,1.34s-.89-.94-.73-1.81.75-1.47,1.31-1.34S259.41,111,259.25,111.84Z" style="fill:#263238"></path><path d="M250.09,109.93c-.17.87-.76,1.47-1.32,1.34s-.89-.94-.73-1.81.75-1.47,1.32-1.34S250.25,109.06,250.09,109.93Z" style="fill:#263238"></path><path d="M253.15,109.28l-1.51,7.12s-2.4.12-3.57-1.2C249.43,112.11,253.15,109.28,253.15,109.28Z" style="fill:#a02724"></path><path d="M260.18,105.21a.47.47,0,0,0-.26,0,.51.51,0,0,0-.32.65,5.24,5.24,0,0,0,3.35,3.39.52.52,0,1,0,.25-1h0a4.18,4.18,0,0,1-2.62-2.71A.51.51,0,0,0,260.18,105.21Z" style="fill:#263238"></path><path d="M250.93,103.42a.52.52,0,0,0-.48.08,4.07,4.07,0,0,1-3.66.81.52.52,0,0,0-.65.33.53.53,0,0,0,.32.66,5.15,5.15,0,0,0,4.63-1,.52.52,0,0,0,.08-.73A.47.47,0,0,0,250.93,103.42Z" style="fill:#263238"></path><path d="M295.66,416.35h-3.6l-1-1.46-1.89,1.48H267.47a8.33,8.33,0,0,1,.73-4.52s5.89-1.54,9.2-4.29a1,1,0,0,1,.8-.32c2.16.46,10.76,2.08,15.49.38a.77.77,0,0,1,1.06.71A52.89,52.89,0,0,0,295.66,416.35Z" style="fill:#263238"></path><path d="M301.41,155.52l.71,1.49.62,1.38c.41.91.78,1.82,1.15,2.73.74,1.82,1.39,3.67,2,5.53a104.58,104.58,0,0,1,3.15,11.43q.62,2.94,1.08,5.95c.27,2,.49,4.07.63,6.15s.2,4.21.11,6.38a58.47,58.47,0,0,1-.66,6.61l-.12.76a5.88,5.88,0,0,1-.22.85,21.86,21.86,0,0,1-3.56,6.51,28.91,28.91,0,0,1-4.42,4.43,32.71,32.71,0,0,1-4.57,3.14,47.71,47.71,0,0,1-4.6,2.36,62,62,0,0,1-9.2,3.18c-1.54.41-3.09.73-4.64,1l-2.34.38c-.8.12-1.54.19-2.45.3a5.35,5.35,0,0,1-3.33-9.92l.47-.27,3.5-2c1.19-.69,2.36-1.41,3.51-2.13a77.31,77.31,0,0,0,6.47-4.47,31.27,31.27,0,0,0,5-4.66c1.27-1.5,1.78-2.93,1.68-3.35l-.33,1.61a48.31,48.31,0,0,0-.58-8.64,92.18,92.18,0,0,0-2-9.23c-.88-3.11-1.84-6.25-2.95-9.36-.54-1.56-1.13-3.1-1.71-4.64l-.9-2.29-.84-2.09-.22-.55a10.67,10.67,0,0,1,19.54-8.56Z" style="fill:#b55b52"></path><path d="M291,140.73c21.22,14,21.53,52.92,21.53,52.92-4.14,6.38-17.06,6.85-24.13,3.39,0,0-9.9-20.93-11.2-31.63C275.81,153.78,281.11,134.19,291,140.73Z" style="fill:#4a6c04"></path><g style="opacity:0.4"><path d="M291,140.73c21.22,14,21.53,52.92,21.53,52.92-4.14,6.38-17.06,6.85-24.13,3.39,0,0-9.9-20.93-11.2-31.63C275.81,153.78,281.11,134.19,291,140.73Z" style="fill:#fff"></path></g><path d="M296.48,201.29c6.74,0,15.73-3.35,17.53-7.16,1.06-5.66-.24-10-1.39-11.31-5.77-.59-26.22,6.22-28.29,8.12a34.35,34.35,0,0,0,4.52,8.93A18.82,18.82,0,0,0,296.48,201.29Z" style="fill:#4a6c04"></path><path d="M296.48,201.29c6.74,0,15.73-3.35,17.53-7.16,1.06-5.66-.24-10-1.39-11.31-5.77-.59-26.22,6.22-28.29,8.12a34.35,34.35,0,0,0,4.52,8.93A18.82,18.82,0,0,0,296.48,201.29Z" style="fill:#fff;opacity:0.1"></path><path d="M275,215.2l2,6.68c-.49,7.31-9.78,5-9.78,5l-4.9.72a3.7,3.7,0,0,1-3.89-2.79L257,220.2a3.86,3.86,0,0,1,2.14-4.94l4.12-1.31a7.53,7.53,0,0,1,3.71-.24Z" style="fill:#b55b52"></path><path d="M192.64,180.13c1.34,6.6,6.47,14.72,10.57,15.71a15.39,15.39,0,0,0,11-5.08c-.6-5.77-11.63-23-13.91-24.63a34.42,34.42,0,0,0-7.83,6.24A18.82,18.82,0,0,0,192.64,180.13Z" style="fill:#4a6c04"></path><path d="M192.64,180.13c1.34,6.6,6.47,14.72,10.57,15.71a15.39,15.39,0,0,0,11-5.08c-.6-5.77-11.63-23-13.91-24.63a34.42,34.42,0,0,0-7.83,6.24A18.82,18.82,0,0,0,192.64,180.13Z" style="fill:#fff;opacity:0.1"></path></g><g id="freepik--character-1--inject-3"><path d="M168.87,120.77c-5.42,11.17-.09,25.8-3.66,36,22-5.18,35.37-2.4,39.24-9.12,7-12.18-2.74-35.24-11.16-31.25C188.2,105.06,172.42,113.45,168.87,120.77Z" style="fill:#263238"></path><path d="M162,224.79s0,57.88,3.51,89.23c.36,29.43,7.08,96.46,7.08,96.46H180c1.25-33,6.38-69,4.33-93.43,14.29-57.14,7.66-92.22,7.66-92.22Z" style="fill:#ffb573"></path><path d="M174.29,224.83s12.13,64.2,16.33,91.56c4.4,28.73,25,85.1,26.19,94.09l6.33-1.07s-4.46-62.9-14.63-92c8.22-81.29-8.91-92.55-8.91-92.55Z" style="fill:#ffb573"></path><path d="M170,173.68l-1.19,16.53c-.18,2.75-.35,5.5-.49,8.23s-.23,5.45-.21,8.06v.42a2.89,2.89,0,0,1-.13.84,26.13,26.13,0,0,1-3.63,7.08,31.47,31.47,0,0,1-2.4,2.95,28.24,28.24,0,0,1-2.81,2.61,2.43,2.43,0,0,1-3.75-2.84l.11-.25c.39-.93.9-2,1.3-3s.82-2,1.18-3,.66-2,.94-2.92a28.1,28.1,0,0,0,.61-2.79l-.13,1.25c-.22-3-.29-5.82-.29-8.68s.05-5.68.15-8.51.24-5.64.43-8.45.39-5.61.69-8.44a4.82,4.82,0,0,1,9.61.85Z" style="fill:#ffb573"></path><path d="M166.2,161.52c-6.77,4.55-9.68,14.51-9.8,20.75,3,6.48,13.95,7.52,13.95,7.52s3.14-11.67,2.87-17.37S170.1,158.9,166.2,161.52Z" style="fill:#263238"></path><path d="M160.56,172a12.52,12.52,0,0,1,11.79-12.49c1.83-.11,3.75-.21,5.61-.24a120.42,120.42,0,0,1,17.09,1.28c1.62.2,3.21.45,4.7.71a9.75,9.75,0,0,1,7.77,12c-6.22,23.45-7.08,40.59-4.72,51.1,0,0,9.29,9.78,10.87,32.86,2.51,36.8,10.25,50.38,9.47,79-1.31,5.83-4.72,12.47-28,16.19-7.34,9.05-21.61,8.7-31.65,6.79-7.26-26.2-11.81-109.3-6.12-131.43,0-12.24.85-20.4,5-35.58C154.51,185.41,160.57,180.67,160.56,172Z" style="fill:#263238"></path><path d="M184.07,208.65a7.05,7.05,0,0,0-9.82-1.71l-1.48,8.51,2.09-.25-4,11.39,11.53-8.12A7,7,0,0,0,184.07,208.65Z" style="fill:#fff"></path><path d="M170.58,216.63l1.2-8.56a7.05,7.05,0,0,0-11.26,8.49L169,227.82l3.65-11.52Z" style="fill:#fff"></path><path d="M158.19,224.65c3.45-.5,3.57-5.6,3.57-5.6l1.45-2.51a1.72,1.72,0,0,0-.82-2.6l-1.71-.72a3.46,3.46,0,0,0-3.77,1l-.64.77a7,7,0,0,0-1.74,4.35l-.07,2.26a3.39,3.39,0,0,0,.26,1.46,3.21,3.21,0,0,0,3.47,1.56Z" style="fill:#ffb573"></path><path d="M183.73,300.83c1-14.73,0-36.75-9-49.1C177.09,267.39,183.73,300.83,183.73,300.83Z" style="opacity:0.2"></path><path d="M194.35,141.17c-1.36,5.41-3,15.39.7,19.34a46.29,46.29,0,0,0-20.45,13.32,1.65,1.65,0,0,1-2.87-.87c-1.49-10.15,6.23-13.73,6.23-13.73,6.2-1,6.28-5.55,5.43-9.9Z" style="fill:#ffb573"></path><path d="M189.88,144.5l-6.48,4.83a18.12,18.12,0,0,1,.37,3.06c2.36-.16,5.71-2.49,6.09-4.92A8.36,8.36,0,0,0,189.88,144.5Z" style="opacity:0.2"></path><path d="M197,128.87c-.08,9.14.08,13-4.25,17.85-6.51,7.27-17.66,4.94-20.3-4.11-2.37-8.14-1.84-21.73,6.84-25.64S197,119.72,197,128.87Z" style="fill:#ffb573"></path><path d="M192.66,117.63c.76,11.41-18.45,1.3-22.09,7.51C172.15,116.54,183.67,111.44,192.66,117.63Z" style="fill:#263238"></path><path d="M188.42,120c-4.21,9.36,11.56,12.32,12.19,20.53C209.14,128.66,197.28,111,188.42,120Z" style="fill:#263238"></path><path d="M184.21,132.82c0,.74-.32.72-.82.73s-.92.07-1-.68.33-1.35.82-1.37S184.17,132.07,184.21,132.82Z" style="fill:#263238"></path><path d="M175,133.24c0,.75-.33.72-.82.74s-.92.06-1-.68.33-1.36.82-1.37S174.93,132.5,175,133.24Z" style="fill:#263238"></path><path d="M174.23,132l-1.83-.46S173.4,132.87,174.23,132Z" style="fill:#263238"></path><path d="M177,132.71a19.45,19.45,0,0,1-2.27,4.91,3.33,3.33,0,0,0,2.72.32Z" style="fill:#ed893e"></path><path d="M199.43,137.31a5.74,5.74,0,0,1-3.63,3.16c-2.05.54-3.08-1.71-2.51-4,.51-2,2.19-4.75,4.25-4.27S200.37,135.32,199.43,137.31Z" style="fill:#ffb573"></path><path d="M182.13,125.61a.49.49,0,0,1,.31.16,3.57,3.57,0,0,0,2.92,1.33.46.46,0,0,1,.5.39.43.43,0,0,1-.38.48,4.48,4.48,0,0,1-3.71-1.64.43.43,0,0,1,0-.62A.5.5,0,0,1,182.13,125.61Z" style="fill:#263238"></path><path d="M173.74,126.07a.5.5,0,0,1,.31.1.45.45,0,0,1,.07.62,4.28,4.28,0,0,1-3.63,1.63.45.45,0,0,1-.4-.49.42.42,0,0,1,.48-.38,3.4,3.4,0,0,0,2.86-1.32A.43.43,0,0,1,173.74,126.07Z" style="fill:#263238"></path><path d="M183.47,131.53l-1.83-.45S182.64,132.44,183.47,131.53Z" style="fill:#263238"></path><path d="M191.48,216.9l-8.08-1.44,1.08,9.33s6.05-.37,9.52-3.24l.31-1.23C193.85,218.34,193.39,217.61,191.48,216.9Z" style="fill:#ffb573"></path><path d="M178.54,219.54l1,3.93a2.32,2.32,0,0,0,2.65,1.71l2.27-.39-1.08-9.33L180,216.78A2.34,2.34,0,0,0,178.54,219.54Z" style="fill:#ffb573"></path><path d="M207.83,170.42c1.35,4.92,2.58,9.82,3.67,14.8s2.17,9.93,2.93,15.16c.18,1.33.35,2.63.42,4.2l0,.62c0,.22,0,.49,0,.73s0,.21,0,.42l-.07.56a5.32,5.32,0,0,1-.21.92,10.57,10.57,0,0,1-1.25,2.8,15.58,15.58,0,0,1-3.41,3.74,25.41,25.41,0,0,1-3.65,2.46,50.86,50.86,0,0,1-15.14,5.27,2.39,2.39,0,0,1-1.5-4.51l.12-.06a74.61,74.61,0,0,0,12.37-7.11,21.61,21.61,0,0,0,2.38-2.08,7.58,7.58,0,0,0,1.47-2,2.09,2.09,0,0,0,.21-.68s0-.11,0,0a.29.29,0,0,0,0,.09c0,.05,0,0,0-.06v-.21l0-.33c-.1-.94-.31-2.14-.54-3.29-.46-2.34-1-4.76-1.59-7.17s-1.15-4.84-1.76-7.26l-3.66-14.55h0a4.82,4.82,0,0,1,9.33-2.45Z" style="fill:#ffb573"></path><path d="M203.19,162.53c5.36,2.52,7.81,6.34,11.88,16.84-1.43,7-13.85,11.17-13.85,11.17a82,82,0,0,1-4.38-13.33C195.76,171.61,197.74,160,203.19,162.53Z" style="fill:#263238"></path><path d="M180.61,410.46a.63.63,0,0,0-.67-.41l-6.9-.11a3.81,3.81,0,0,0-2.08.45,26.22,26.22,0,0,1-10.39,3.71c-1.47.22-.8,2.69,2.65,2.73,5.71.06,6.74-.37,11.61-.32,4.17.05,2.18.24,5.49.32.79,0,1.44-.5,1.33-1.05Z" style="fill:#4a6c04"></path><path d="M224,409.22a.64.64,0,0,0-.73-.29l-5.56.83a3.7,3.7,0,0,0-2,.78c-1.75,1.73-2.61,2.8-7.17,3.83-1.45.32-.55,2.74,2.89,2.53a68.46,68.46,0,0,0,9.25-1c2.3-.39.92.08,4.2-.39.79-.12,1.33-.73,1.12-1.26Z" style="fill:#4a6c04"></path><path d="M176.26,172c2.63-.67,8.22-.2,11.1,3.14,5.55-2.12,10.85-9.77,10.72-14.57a6.63,6.63,0,0,0-4.15-1.8S181.42,164.86,176.26,172Z" style="fill:#4a6c04"></path><path d="M171.58,171.63s-.77-6.34,6.89-12.49c-.77-.63-3.8.08-3.8.08s-9,3.86-8.69,13.83A7.68,7.68,0,0,1,171.58,171.63Z" style="fill:#4a6c04"></path><path d="M180.39,139.79a7.44,7.44,0,0,0-1.3.64.22.22,0,0,0-.06.34.28.28,0,0,0,.36.08,7.26,7.26,0,0,1,6.28-.65.26.26,0,0,0,.34-.12.25.25,0,0,0-.15-.33A7.63,7.63,0,0,0,180.39,139.79Z" style="fill:#263238"></path></g><g id="freepik--Thoughts--inject-3"><path d="M202.27,93.06a40.88,40.88,0,0,1-8.88-1c-2.81-.62-7.68-2.29-8.75-6.43a8.67,8.67,0,0,1,.17-4.4,17.7,17.7,0,0,1,10.35-11.32,22.34,22.34,0,0,1,10.61-1.47,21.88,21.88,0,0,1,13.92,4.45c1.84,1.41,4.92,4.37,4.88,8.29a9,9,0,0,1-3.38,6.61,18.81,18.81,0,0,1-6.58,3.35A41.1,41.1,0,0,1,202.27,93.06Zm-16.84-9.25a5.9,5.9,0,0,0,.18,1.6c.93,3.62,5.41,5.13,8,5.7a40.21,40.21,0,0,0,20.71-.89,17.15,17.15,0,0,0,6.23-3.16,8,8,0,0,0,3-5.86c0-3.49-2.8-6.19-4.49-7.48a20.45,20.45,0,0,0-4.9-2.78,7.73,7.73,0,0,1,.77.62,5.79,5.79,0,0,1,1.13,1.51,4.58,4.58,0,0,1,2.26,4.2,4.74,4.74,0,0,1-1.89,3,5.34,5.34,0,0,1-1.21,2.35,8.83,8.83,0,0,1-2.62,1.89c-4.7,2.46-10.45,3.64-18.1,3.72a11.12,11.12,0,0,1-4.19-.54,5,5,0,0,1-1.55-.94l-.59-.23A5.53,5.53,0,0,1,185.43,83.81ZM193,87.17c.49,0,1,0,1.5,0l1.69,0-.16-.07c-.69,0-1.37,0-2.06,0l-.58,0Zm6.51-.36a12.63,12.63,0,0,0,5.78-1.21A38.31,38.31,0,0,1,199.52,86.81Zm4.55-14.44a18.6,18.6,0,0,0-1.9.56,24,24,0,0,0-12.53,10.41,2.18,2.18,0,0,0-.44,1.58c.21.73,1.29,1,2.15,1s1.73.13,2.6.14l.62,0a2.72,2.72,0,0,1-.37-.58c-.61-1.29,0-2.76.47-3.76a19.71,19.71,0,0,1,8.23-8.8C203.29,72.72,203.68,72.53,204.07,72.37Zm5.56-.12a13.61,13.61,0,0,0-6.26,1.55,18.67,18.67,0,0,0-7.8,8.37,3.55,3.55,0,0,0-.47,2.88,2.13,2.13,0,0,0,.81.86,35.87,35.87,0,0,0,7.22-1.75l-.13,0,.07-.43q.06-.34.15-.69a14.23,14.23,0,0,1-4.39.64l-1,0,.58-.78a14.4,14.4,0,0,1,12.63-5.67,3,3,0,0,1,2.46,1.23,7.06,7.06,0,0,0,1.66-1.76,6.83,6.83,0,0,0-2.74-3.43,8.6,8.6,0,0,0-2.25-.94ZM209.79,84a21.18,21.18,0,0,1-2,1.38,27,27,0,0,0,4.35-1.79,8.12,8.12,0,0,0,2.33-1.68,3.76,3.76,0,0,0,.48-.65,38,38,0,0,1-4.15,2.26A10.64,10.64,0,0,1,209.79,84ZM195.23,72A19.72,19.72,0,0,0,187,79.62a5.45,5.45,0,0,0-.88,2.54,3.6,3.6,0,0,0,1.51,2.8,3.06,3.06,0,0,1-.14-.58,5.71,5.71,0,0,1,.3-2.4A19.4,19.4,0,0,1,195.23,72Zm9.63,12.62-1,.38,1.25-.35Zm6.63-3.46A37.34,37.34,0,0,1,207,83.64a8.26,8.26,0,0,0,2.14-.46l.18-.07A23.08,23.08,0,0,0,211.49,81.12Zm-7.34,2.3.6.13a35.49,35.49,0,0,0,8-4.53c-.19-.53-1-.79-1.74-.85a13.43,13.43,0,0,0-11.07,4.44,14,14,0,0,0,3.82-.83A6.39,6.39,0,0,1,209,78.45l1.25,0-.88.89a14.56,14.56,0,0,1-4.93,3.27A4.33,4.33,0,0,0,204.15,83.42Zm-.81-13.71a15.67,15.67,0,0,0-1.78.38,18.73,18.73,0,0,0-12.85,12.19,7.09,7.09,0,0,0-.28,1.21c.1-.22.22-.44.34-.65A25,25,0,0,1,201.84,72a15.3,15.3,0,0,1,8.43-.74,12.57,12.57,0,0,1,3.61.71,8.43,8.43,0,0,0-2.35-1.24l0,.1A19.16,19.16,0,0,0,203.34,69.71Zm10.4,9.79a3.3,3.3,0,0,1-.88,1.6l-.48.53c.79-.43,1.56-.89,2.32-1.37.27-.18.56-.37.83-.58a5.45,5.45,0,0,0,0-1.71v-.08A11.57,11.57,0,0,1,214,79.28Zm-6.53.38a5.59,5.59,0,0,0-1.46,1A13.13,13.13,0,0,0,207.21,79.88Zm9.06-3.16a7,7,0,0,1,.25,1.1,6.69,6.69,0,0,1,.08.88,3.08,3.08,0,0,0,.75-1.56,2.92,2.92,0,0,0-.76-2.25,3.79,3.79,0,0,1-.16,1.39A3.29,3.29,0,0,1,216.27,76.72ZM213.89,73a7.81,7.81,0,0,1,1.71,2.11,3.42,3.42,0,0,0-.32-1.41,6.37,6.37,0,0,0-.84-.47Z" style="fill:#263238"></path><path d="M198.37,91.94c-2.93,0-6.81-1.67-8.3-4.51L191,87c1.31,2.5,4.93,4,7.5,4a32.21,32.21,0,0,0,16-4.51,13.71,13.71,0,0,0,4.27-3.6A6.38,6.38,0,0,0,220,77.74c-.49-2.17-3.2-3.39-5.38-4.37l-.21-.1.41-.91.21.09c2.38,1.08,5.34,2.41,5.94,5.07a7.38,7.38,0,0,1-1.44,5.89A15.37,15.37,0,0,1,215,87.28a33.17,33.17,0,0,1-16.52,4.65Z" style="fill:#263238"></path><path d="M193.7,97.23l-.52-.86a6.17,6.17,0,0,0,2.65-6.74l1-.27A7.21,7.21,0,0,1,193.7,97.23Z" style="fill:#263238"></path><path d="M230.63,90.66a25,25,0,0,1-10.94-5.31l.64-.76a24.14,24.14,0,0,0,10.5,5.1Z" style="fill:#263238"></path></g><g id="freepik--Plant--inject-3"><path d="M386.26,386.4a35.62,35.62,0,0,0-2.24-9.46l1-.4a36.71,36.71,0,0,1,2.31,9.76Z" style="fill:#4a6c04"></path><path d="M382,372.48a52.65,52.65,0,0,1-6.18-20.1l1.1-.1A51.53,51.53,0,0,0,382.93,372Z" style="fill:#4a6c04"></path><path d="M379.53,373.78A55.61,55.61,0,0,1,373,352.64l-2.3-24.23c0-1-6.76-1.84-15.11-1.84s-15.11.82-15.11,1.84l-2.3,24.23a55.44,55.44,0,0,1-6.49,21.14c-6.24,11.58-5.14,23.58,1.25,35.87a12.44,12.44,0,0,0,11,6.67h23.24a12.43,12.43,0,0,0,11-6.67C384.68,397.36,385.77,385.36,379.53,373.78Z" style="fill:#4a6c04"></path><ellipse cx="355.63" cy="328.41" rx="13.69" ry="1.26" style="fill:#263238"></ellipse><path d="M361.34,329a.48.48,0,0,1-.2,0,.59.59,0,0,1-.36-.76c3.52-9.89,1-20.85-1.39-31.44-3.35-14.69-6.51-28.57,6-38.63a.6.6,0,0,1,.75.93c-11.94,9.6-8.86,23.12-5.59,37.43,2.45,10.76,5,21.89,1.34,32.11A.59.59,0,0,1,361.34,329Z" style="fill:#263238"></path><path d="M368.28,258.65a1.51,1.51,0,0,1-1.81-2.22c2.94-4.72,8.48-12.1,12.3-8.08C382.76,252.52,373.76,256.64,368.28,258.65Z" style="fill:#4a6c04"></path><path d="M368.28,258.65a1.51,1.51,0,0,1-1.81-2.22c2.94-4.72,8.48-12.1,12.3-8.08C382.76,252.52,373.76,256.64,368.28,258.65Z" style="opacity:0.30000000000000004"></path><path d="M368,257.09c2.85-2.62,6.85-8.89,2-9.79-4.36-.81-5.38,7.53-5.62,11.07a1.81,1.81,0,0,0,1.45,1.9c3.4.68,11.42,1.8,12.14-2.6C378.81,252.4,371.49,254.74,368,257.09Z" style="fill:#4a6c04"></path><path d="M357.05,275.45c-5.34-6.71,2.84-6,9.12-10.61C369.41,276.68,358.23,286.54,357.05,275.45Z" style="fill:#4a6c04"></path><path d="M360.55,294.65c3.88-4.93-2.11-4.41-6.72-7.73C351.5,295.6,359.73,302.78,360.55,294.65Z" style="fill:#263238"></path><path d="M350.06,329a.55.55,0,0,1-.3-.09c-9.84-5.93-6.37-18.18-3.59-28,1.74-6.13,3.24-11.43,1.12-13.47-1.54-1.48-5.06-1.3-10.76.55a.59.59,0,0,1-.75-.38.6.6,0,0,1,.38-.75c6.25-2,10-2.12,12-.28,2.63,2.53,1,8.15-.8,14.66-2.67,9.45-6,21.21,3.05,26.67a.6.6,0,0,1,.21.82A.63.63,0,0,1,350.06,329Z" style="fill:#263238"></path><path d="M335.68,289.83a1.52,1.52,0,0,0-1.62-2.37c-5.36,1.48-14,4.69-11.25,9.5C325.68,302,332.19,294.51,335.68,289.83Z" style="fill:#4a6c04"></path><path d="M335.68,289.83a1.52,1.52,0,0,0-1.62-2.37c-5.36,1.48-14,4.69-11.25,9.5C325.68,302,332.19,294.51,335.68,289.83Z" style="opacity:0.30000000000000004"></path><path d="M334.27,289.07c-3.32,2-10.47,4-10-.85.46-4.4,8.75-3,12.22-2.23a1.8,1.8,0,0,1,1.4,1.92c-.31,3.46-1.52,11.46-5.95,10.91C326.69,298.15,331,291.79,334.27,289.07Z" style="fill:#4a6c04"></path><path d="M332.68,321.47c1.67-6.09-3.68-3.26-9.26-4.55C324.65,325.89,335.1,329.34,332.68,321.47Z" style="fill:#4a6c04"></path><path d="M384.68,412.92c-8.2,4.06,7.12,5.32,14.57.2C391.43,412.1,386.6,408.62,384.68,412.92Z" style="fill:#4a6c04"></path></g></svg>