<svg xmlns="http://www.w3.org/2000/svg" viewBox="0 0 500 500"><g id="freepik--Bed--inject-3"><path d="M387.23,355.5c17.26,3.69,33,5.29,48.66,6.89,4.37.45,9.09.82,12.88-1.4,3.58-2.1,5.56-6.08,7.17-9.89a146.42,146.42,0,0,0,11.47-62.56c-.11-2.93-.36-6-2-8.45a16,16,0,0,0-4.7-4.19,118,118,0,0,0-74.64-19.07,9.63,9.63,0,0,0-8.38,6.7c-4.4,14-14.8,49.55-14.65,71.21a18.64,18.64,0,0,0,13.59,17.77Z" style="fill:#166534"></path><path d="M460.85,277.73a2.29,2.29,0,0,1,.06.42c0,.3.07.71.13,1.24.1,1.09.26,2.69.37,4.77a158.84,158.84,0,0,1,.1,17.61,166.83,166.83,0,0,1-3.28,25.92c-1,4.81-2.24,9.83-3.81,15-.83,2.54-1.56,5.16-2.66,7.73a12.76,12.76,0,0,1-5.35,6.48,19,19,0,0,1-8.21,2c-1.39.09-2.76.09-4.12.1s-2.71,0-4.05,0c-5.36-.07-10.52-.38-15.41-.92a167,167,0,0,1-25.68-4.82,154.89,154.89,0,0,1-16.72-5.52c-2-.74-3.42-1.39-4.43-1.82l-1.14-.5a2,2,0,0,1-.38-.19l.4.14,1.16.45c1,.4,2.51,1,4.46,1.73A164,164,0,0,0,389,352.86a167.81,167.81,0,0,0,25.63,4.7c4.87.53,10,.82,15.36.89,1.34,0,2.69,0,4,0s2.73,0,4.1-.11a18.43,18.43,0,0,0,8-1.93,12.3,12.3,0,0,0,5.14-6.23c1.07-2.52,1.81-5.15,2.64-7.68,1.57-5.11,2.82-10.11,3.83-14.91a169.38,169.38,0,0,0,3.38-25.84,172.21,172.21,0,0,0,.07-17.58c-.08-2.07-.21-3.68-.28-4.78,0-.52-.05-.93-.07-1.24A3.31,3.31,0,0,1,460.85,277.73Z" style="fill:#263238"></path><path d="M461.28,302.25a1.19,1.19,0,0,1-.22.2l-.67.52c-.6.45-1.48,1.12-2.66,1.92a48,48,0,0,1-4.41,2.74,34.16,34.16,0,0,1-6.3,2.76,23.28,23.28,0,0,1-8.26,1.14,18.34,18.34,0,0,1-9.15-2.76,16.81,16.81,0,0,1-3.85-3.51c-1.13-1.37-2.14-2.86-3.26-4.3a17.76,17.76,0,0,0-3.87-3.87,14,14,0,0,0-5.13-2.25,14.35,14.35,0,0,0-5.61-.15,12.73,12.73,0,0,0-2.65.75L404,296l-1.18.66a42.42,42.42,0,0,0-7.89,6.87,36.3,36.3,0,0,1-7.29,6.2l-1,.56-1,.45a15.67,15.67,0,0,1-2,.69,12.65,12.65,0,0,1-4,.3,13.85,13.85,0,0,1-6.43-2.42,13.44,13.44,0,0,1-3.64-3.7,14.83,14.83,0,0,1-.94-1.65c-.19-.52-.38-.94-.49-1.3s-.16-.62-.21-.83a1,1,0,0,1-.06-.29,14.36,14.36,0,0,0,1.87,4,13.93,13.93,0,0,0,9.94,5.86,12.08,12.08,0,0,0,3.89-.32,14.88,14.88,0,0,0,2-.69l1-.44,1-.55a36.52,36.52,0,0,0,7.17-6.17,42.32,42.32,0,0,1,8-7l1.21-.69,1.3-.57a12.75,12.75,0,0,1,2.75-.78,14.93,14.93,0,0,1,5.8.15,14.63,14.63,0,0,1,5.32,2.33,18.59,18.59,0,0,1,4,4c1.12,1.46,2.13,2.94,3.24,4.29a16.28,16.28,0,0,0,3.72,3.43,18,18,0,0,0,8.91,2.73,23.4,23.4,0,0,0,8.13-1.06,42.6,42.6,0,0,0,10.71-5.32c1.19-.77,2.09-1.41,2.71-1.83l.7-.48Z" style="fill:#fff"></path><path d="M464.25,327.61a21.45,21.45,0,0,0-2.5-1.94,22.38,22.38,0,0,0-3-1.1,4.36,4.36,0,0,1,3.23.64A4.43,4.43,0,0,1,464.25,327.61Z" style="fill:#fff"></path><path d="M451.89,348.45a6.56,6.56,0,0,1-.64.53l-.81.6-1.17.74a24.61,24.61,0,0,1-8.25,3,25.7,25.7,0,0,1-12.95-1,28.64,28.64,0,0,1-6.81-3.64,71.53,71.53,0,0,0-6.88-4.5,20.26,20.26,0,0,0-7.79-2.21,26.21,26.21,0,0,0-7.57.54,40.28,40.28,0,0,0-6.58,2.1c-2,.8-3.9,1.59-5.67,2.19a22.06,22.06,0,0,1-8.65,1.42,10.34,10.34,0,0,1-3.17-.63,19.49,19.49,0,0,0,3.18.43,22.7,22.7,0,0,0,8.52-1.57c1.74-.62,3.6-1.42,5.63-2.24a39.77,39.77,0,0,1,6.64-2.17,26.39,26.39,0,0,1,7.71-.58,20.75,20.75,0,0,1,8,2.26,66.87,66.87,0,0,1,6.93,4.54,28,28,0,0,0,6.69,3.61A25.57,25.57,0,0,0,441,353a25.19,25.19,0,0,0,8.2-2.85l1.19-.69.84-.56A4.71,4.71,0,0,1,451.89,348.45Z" style="fill:#fff"></path><path d="M461,280.7l-.21.1-.64.24a12.81,12.81,0,0,1-2.55.53,18.47,18.47,0,0,1-9.36-1.73c-3.76-1.63-7.55-4.71-11.62-8.13a61.64,61.64,0,0,0-6.68-5,23.05,23.05,0,0,0-8.19-3.29,21.08,21.08,0,0,0-8.79.65c-2.79.72-5.44,1.65-8.05,2.28a32,32,0,0,1-14.15.29,29.41,29.41,0,0,1-8.92-3.43,24,24,0,0,1-2.16-1.46l-.53-.42c-.12-.09-.18-.14-.17-.15s.07,0,.2.11l.57.38c.48.34,1.22.8,2.19,1.36a30.32,30.32,0,0,0,8.9,3.25,32.14,32.14,0,0,0,13.95-.39c2.58-.64,5.22-1.58,8.05-2.31a21.27,21.27,0,0,1,9-.67,23.38,23.38,0,0,1,8.38,3.37,59.85,59.85,0,0,1,6.71,5c4.06,3.45,7.8,6.52,11.47,8.16a18.62,18.62,0,0,0,9.19,1.87A18.21,18.21,0,0,0,461,280.7Z" style="fill:#fff"></path><path d="M468,290.77c-.08.13-1.44-.6-3.27-1s-3.38-.42-3.39-.57a8.08,8.08,0,0,1,6.66,1.6Z" style="fill:#fff"></path><path d="M447,362.36a4.46,4.46,0,0,1-1-5c.15,0,0,1.18.25,2.54S447.08,362.27,447,362.36Z" style="fill:#fff"></path><g style="opacity:0.30000000000000004"><path d="M410.21,306.15c-9.94,9.41-17.79,20.77-25.55,32l-.06.46A201.88,201.88,0,0,0,446,287.53C432.47,289.31,420.15,296.74,410.21,306.15Z"></path></g><path d="M448.61,283.81a4.87,4.87,0,0,1-.46.67c-.34.47-.81,1.09-1.39,1.88s-1.35,1.8-2.26,2.91-1.91,2.42-3.11,3.79c-2.33,2.78-5.22,6-8.56,9.43s-7.18,7.07-11.36,10.7-8.36,6.87-12.21,9.72-7.44,5.27-10.49,7.24-5.55,3.5-7.3,4.52l-2,1.16a3.82,3.82,0,0,1-.73.38,6.28,6.28,0,0,1,.67-.47l2-1.25c1.72-1.06,4.19-2.65,7.21-4.65s6.56-4.46,10.4-7.31,8-6.13,12.15-9.74,8-7.24,11.36-10.63,6.27-6.6,8.63-9.34c1.21-1.35,2.23-2.63,3.16-3.73s1.7-2.07,2.33-2.86l1.47-1.81A4.4,4.4,0,0,1,448.61,283.81Z" style="fill:#263238"></path><path d="M179.72,346.71h271a25,25,0,0,1,25,25V472.85a0,0,0,0,1,0,0H154.75a0,0,0,0,1,0,0V371.68A25,25,0,0,1,179.72,346.71Z" style="fill:#455a64"></path><path d="M284.19,398.31c.15,0,.26,16.68.26,37.24s-.11,37.25-.26,37.25-.26-16.68-.26-37.25S284.05,398.31,284.19,398.31Z" style="fill:#263238"></path><path d="M367.62,398.31c.14,0,.26,16.69.26,37.27s-.12,37.27-.26,37.27-.26-16.69-.26-37.27S367.48,398.31,367.62,398.31Z" style="fill:#263238"></path><path d="M398.38,398.31c.14,0,.26,16.69.26,37.27s-.12,37.27-.26,37.27-.26-16.69-.26-37.27S398.23,398.31,398.38,398.31Z" style="fill:#263238"></path><path d="M302.69,385.16c.14,0,.26,19.67.26,43.92s-.12,43.93-.26,43.93-.26-19.66-.26-43.93S302.54,385.16,302.69,385.16Z" style="fill:#263238"></path><path d="M312.76,385.16c.14,0,.26,19.63.26,43.84s-.12,43.85-.26,43.85-.26-19.63-.26-43.85S312.61,385.16,312.76,385.16Z" style="fill:#263238"></path><g style="opacity:0.2"><path d="M284.19,400.16c.06,22.08,0,47.46,0,69,0,1-.67,3,0,3.68s4-.72,5-.65l9.44.6c1.47.1,3.12.13,4.2-.87s1.16-2.62,1.15-4.07c-.16-22.73-10.46-46.95-19.83-67.65"></path></g><g style="opacity:0.2"><path d="M369,398.57q-.8,36.33-1.61,72.66c3.12.81,6.26-1.93,7.12-5s.11-6.4-.58-9.55a221.74,221.74,0,0,1-4.91-57.16"></path></g><g style="opacity:0.2"><path d="M400.45,395.12q1.23,37.77,4.48,75.42c-2.2.75-4.64-.84-5.64-2.93s-1-4.51-.88-6.83l2.1-62.26"></path></g><g style="opacity:0.2"><path d="M205.51,348.25c-2.88-.13-6-.18-8.38,1.4-3,2-4,5.82-4.76,9.34A369.75,369.75,0,0,0,186,467.8l4.79,5.3c3.81-1.71,6.55-5.25,8.16-9.1s2.24-8,2.85-12.15l10.53-71.12c.79-5.33,1.76-11,5.5-14.92,7.7-8,23.35-4.57,29.48-13.81Q226.5,349.21,205.51,348.25Z"></path></g></g><g id="freepik--Character--inject-3"><path d="M222.44,220.22q-1.42-32.79-5.94-65.36l-25.38-45.29c-6.39,1.85-8.87,9.73-8.51,16.37s2.54,13.3,1.23,19.82-6,12.38-5.13,18.92c.85,6.75,7.36,11.92,7.62,18.72.2,5.43-3.7,10.28-4,15.71-.35,7,5.35,13.44,4.23,20.35-.58,3.51-2.87,7.17-1.27,10.36,1.91,3.79,8.08,3.1,10.67-.26s2.65-8,2.59-12.22a27.37,27.37,0,0,1,1.95,14c3.61-.62,7.29.27,11,.39s7.79-.82,9.73-3.92C222.61,225.64,222.55,222.84,222.44,220.22Z" style="fill:#263238"></path><path d="M276.08,186.49c-1.14-6.15,4-12.3,2.46-18.36-1.66-6.55-10.23-9.58-11.68-16.18-1.13-5.18,2.65-10.78.65-15.7-2.15-5.27-9.32-6.18-13.25-10.3-4.06-4.27-3.82-10.94-5.91-16.45a20.24,20.24,0,0,0-19.56-12.66c-3.92.23-7.83,1.63-11.67.86s-6.89-3.45-10.66-4-7.89,1.23-10.61,4.08a24.29,24.29,0,0,0-5.38,10.39l.25.3c-6,5.11-6.45,14.12-6,22a138.9,138.9,0,0,0,4.7,30.56A50.94,50.94,0,0,0,196,175.89c2.67,3.88,6.11,7.17,8.75,11.06,7.32,10.77,7.66,24.66,7.75,37.68l65.08-6.34c-1.48-2.63-.31-5.95,1.24-8.53s3.54-5.12,3.73-8.13C282.88,196.08,277.1,192,276.08,186.49Z" style="fill:#263238"></path><path d="M188.14,134c-2-9.72,1.22-23.14,11-24.7l31.75-.47a5.8,5.8,0,0,1,6.54,4.34L251,183.27c-1.11,1.89-14,24.53-14,24.53l-17.31-16.37-3.36-12s-12.76,1.25-19.56-14C193.42,157.87,190.33,144.78,188.14,134Z" style="fill:#ffbe9d"></path><path d="M196.35,146.61a2.12,2.12,0,0,0,2.52,1.54,2,2,0,0,0,1.61-2.41,2.1,2.1,0,0,0-2.52-1.53A2,2,0,0,0,196.35,146.61Z" style="fill:#263238"></path><path d="M193.38,141.18c.32.2,1.56-1.37,3.76-2s4.11.08,4.28-.25c.08-.15-.31-.56-1.15-.89a5.86,5.86,0,0,0-3.51-.13,5.56,5.56,0,0,0-2.9,1.89C193.32,140.55,193.22,141.09,193.38,141.18Z" style="fill:#263238"></path><path d="M215.51,141.84a2.11,2.11,0,0,0,2.52,1.53,2,2,0,0,0,1.61-2.41,2.11,2.11,0,0,0-2.52-1.53A2,2,0,0,0,215.51,141.84Z" style="fill:#263238"></path><path d="M213.59,135.77c.32.2,1.56-1.37,3.76-2s4.11.08,4.27-.25c.09-.15-.3-.56-1.14-.89a5.86,5.86,0,0,0-3.51-.13,5.56,5.56,0,0,0-2.9,1.89C213.53,135.14,213.43,135.68,213.59,135.77Z" style="fill:#263238"></path><path d="M210.9,153a14.89,14.89,0,0,0-3.75.31c-.57.1-1.13.13-1.33-.23a2.93,2.93,0,0,1-.07-1.76c.16-1.5.33-3.08.51-4.72.67-6.71,1-12.16.72-12.19s-1,5.39-1.7,12.1c-.15,1.65-.3,3.22-.44,4.73a3.39,3.39,0,0,0,.3,2.28,1.47,1.47,0,0,0,1.15.57,4.62,4.62,0,0,0,1-.12A14.74,14.74,0,0,0,210.9,153Z" style="fill:#263238"></path><path d="M216.37,179.45A42,42,0,0,0,236.17,168s-2.44,12.4-18.78,15.19Z" style="fill:#eb996e"></path><path d="M220.6,127.27c-.37-.54-2.5.31-5.17.67s-4.94.19-5.14.82c-.09.3.42.76,1.42,1.13a9,9,0,0,0,7.85-1.14C220.41,128.12,220.77,127.53,220.6,127.27Z" style="fill:#263238"></path><path d="M196.3,132.62c-.62-.19-1.6,1.15-3.13,2.25s-3,1.71-3,2.37c0,.31.52.58,1.37.59a5.36,5.36,0,0,0,3.06-1.11,5.42,5.42,0,0,0,1.92-2.61C196.72,133.29,196.59,132.73,196.3,132.62Z" style="fill:#263238"></path><path d="M240.27,108.27c-2.16-1.89-5.21-2.32-8.07-2.58a156.4,156.4,0,0,0-37.07,1c-.79,2.85,1.51,5.77,4.23,6.9s5.77,1,8.71,1.27,6.1,1,7.94,3.32,1.9,6,3.73,8.58c3.14,4.39,10.41,4,13.53,8.44,2.36,3.34,1.33,7.88,1.89,11.93a14.6,14.6,0,0,0,18.31,12.08L244,116.42C243.34,113.45,242.56,110.28,240.27,108.27Z" style="fill:#263238"></path><path d="M210.9,163.23a21.75,21.75,0,0,1,4.84-2.49,21.36,21.36,0,0,1,2.61-.82,6.87,6.87,0,0,1,2.75-.25,23.79,23.79,0,0,0-2.51,1c-.82.35-1.66.68-2.49,1A32.52,32.52,0,0,1,210.9,163.23Z" style="fill:#263238"></path><path d="M140.42,415l9.93,37.67s-31.84,14-30.41,20.31l62.53-.38-9.9-72.28Z" style="fill:#166534"></path><path d="M147.54,423.8c-.16.09-1.31-2.06-2.1-4.9a19.25,19.25,0,0,1-1.07-5.21,34,34,0,0,1,1.62,5.05C146.78,421.55,147.66,423.73,147.54,423.8Z" style="fill:#263238"></path><path d="M158.32,416.58l3.75,38.54s-33.86,11.34-33.74,17.81l62.42-.22,3.7-64.38Z" style="fill:#166534"></path><path d="M191.05,461.61c0,.1-1.18.05-3,.36a16.9,16.9,0,0,0-11.67,7.91c-1,1.59-1.36,2.71-1.45,2.67s0-.3.19-.81a12.49,12.49,0,0,1,.91-2.07,15.78,15.78,0,0,1,12-8.1,12.4,12.4,0,0,1,2.26-.08A2.08,2.08,0,0,1,191.05,461.61Z" style="fill:#263238"></path><path d="M145.79,473.1c-.18,0-.1-2.59-1.34-5.44s-3.13-4.6-3-4.73a9.41,9.41,0,0,1,3.53,4.51A9.27,9.27,0,0,1,145.79,473.1Z" style="fill:#263238"></path><path d="M166,427.17c-.18,0,0-2.66-.3-5.89s-1-5.77-.89-5.82a15.28,15.28,0,0,1,1.46,5.77A15.64,15.64,0,0,1,166,427.17Z" style="fill:#263238"></path><path d="M175.31,424.32c-.17,0,.27-2.62.07-5.83s-.91-5.73-.74-5.78a17.63,17.63,0,0,1,.67,11.61Z" style="fill:#263238"></path><path d="M185.2,422.6c-.18-.05.77-2.69.46-6.05s-1.64-5.8-1.47-5.87a12.31,12.31,0,0,1,1,11.92Z" style="fill:#263238"></path><path d="M153.74,473.28a46.06,46.06,0,0,0-2.11-6.67c-1.6-3.52-3.33-6.19-3.15-6.29a7.19,7.19,0,0,1,1.26,1.66,31.34,31.34,0,0,1,2.42,4.39A15.06,15.06,0,0,1,153.74,473.28Z" style="fill:#fff"></path><path d="M161.8,472.93c-.19,0-.48-3.91-2.62-8.17s-5.05-6.92-4.9-7.05a8,8,0,0,1,1.92,1.69,21.73,21.73,0,0,1,5.42,11A7.92,7.92,0,0,1,161.8,472.93Z" style="fill:#fff"></path><path d="M173.35,472.71c-.1,0-.37-1.16-1-3a31.07,31.07,0,0,0-3.45-6.75,30.36,30.36,0,0,0-5-5.67c-1.46-1.29-2.46-2-2.41-2.06s.29.11.77.39a18.66,18.66,0,0,1,1.9,1.35,26.24,26.24,0,0,1,8.6,12.61,16.91,16.91,0,0,1,.56,2.27A2.65,2.65,0,0,1,173.35,472.71Z" style="fill:#fff"></path><path d="M191.25,457a4.37,4.37,0,0,1-1.16.28,26.77,26.77,0,0,1-3.24.37,45.24,45.24,0,0,1-10.7-.74,90,90,0,0,1-10.4-2.64c-1.31-.41-2.36-.76-3.08-1a4.68,4.68,0,0,1-1.11-.45,4.69,4.69,0,0,1,1.17.24l3.14.84c2.64.71,6.28,1.71,10.38,2.46a51.77,51.77,0,0,0,10.59.9C189.56,457.15,191.24,456.87,191.25,457Z" style="fill:#fff"></path><path d="M191.8,446.21a3.59,3.59,0,0,1-1.08.66,11.38,11.38,0,0,1-3.33.91,35.92,35.92,0,0,1-5.09.22c-1.91,0-4-.1-6.22-.3a77,77,0,0,1-11.16-1.79c-1.4-.34-2.53-.65-3.3-.89a5.38,5.38,0,0,1-1.19-.44,5,5,0,0,1,1.24.22l3.34.71a101.34,101.34,0,0,0,11.12,1.62c2.19.19,4.28.3,6.18.34a42.48,42.48,0,0,0,5-.09A15.2,15.2,0,0,0,191.8,446.21Z" style="fill:#fff"></path><path d="M192.51,435a4.79,4.79,0,0,1-1,.79,15.81,15.81,0,0,1-3.2,1.57,31.19,31.19,0,0,1-11.61,1.49A79,79,0,0,1,165,437.68c-1.47-.27-2.65-.53-3.47-.74a5,5,0,0,1-1.24-.38,6.4,6.4,0,0,1,1.29.16l3.49.55a99.46,99.46,0,0,0,11.6,1A33.8,33.8,0,0,0,188.14,437,31,31,0,0,0,192.51,435Z" style="fill:#fff"></path><path d="M193,424.56a7.64,7.64,0,0,1-1.24.54c-.8.31-2,.72-3.48,1.17a68.93,68.93,0,0,1-11.86,2.42,69.72,69.72,0,0,1-12.11.33c-1.55-.1-2.79-.22-3.65-.35a6.37,6.37,0,0,1-1.33-.24,6.12,6.12,0,0,1,1.35,0c.86.05,2.11.11,3.65.16a84.67,84.67,0,0,0,12-.49,83.71,83.71,0,0,0,11.82-2.25c1.49-.39,2.69-.74,3.52-1A5.91,5.91,0,0,1,193,424.56Z" style="fill:#fff"></path><path d="M194.45,408.33a6.09,6.09,0,0,1-.67.2l-2,.48-7.41,1.75-25.84,5.92.21-.28c.53,6.16,1.12,12.91,1.74,20,.53,6.23,1,12.22,1.51,17.71l0,.21-.2.07A163.52,163.52,0,0,0,136.39,466c-3,1.67-5.4,3.08-6.68,4.45a4.74,4.74,0,0,0-1.37,2.45,2.25,2.25,0,0,1,.12-.73,4.76,4.76,0,0,1,1.12-1.84c1.26-1.44,3.64-2.91,6.64-4.62a155.55,155.55,0,0,1,25.43-11.9l-.18.28c-.47-5.5-1-11.48-1.54-17.71-.6-7.05-1.18-13.81-1.7-20l0-.23.23,0,25.89-5.72,7.44-1.6,2-.4A4.24,4.24,0,0,1,194.45,408.33Z" style="fill:#263238"></path><path d="M337.13,286.15l-36.95.29,3.71,16.18-56.65.08-68.58,1.15c-20.23,1-27.86,11.84-31.69,24.45l-.08.26c-2.65,8.8,2.33,90.18,2.33,90.18l50-5.05V355.11s90.09-3.32,100.14-3.95,33.67,0,39-28.88A84.55,84.55,0,0,0,337.13,286.15Z" style="fill:#263238"></path><path d="M258.77,288l-1.42,2.71a60.43,60.43,0,0,0-9.11,8.74S155,298,151.86,298.84s-20.14,2.55-21.27,22.37,6.63,95,6.63,95l44-12.15-2.83-87.83,135.05.07,5.25-30.12Z" style="fill:#263238"></path><path d="M253.5,305.22l-.54,0-1.6.1-6.12.3c-2.67.1-5.92.34-9.7.37l-12.86.16c-9.52.08-20.86.07-33.45.25-6.29.11-12.91.21-19.74.54a38,38,0,0,0-10.19,1.77,15.53,15.53,0,0,0-4.59,2.5,25,25,0,0,0-3.73,3.83,27.25,27.25,0,0,0-4.75,9.47,29.23,29.23,0,0,0-.92,5.13c-.17,1.72-.1,3.44-.11,5.16,0,3.43,0,6.8-.11,10.09s0,6.51.14,9.66c.6,12.57,1.42,23.89,2,33.39s1.13,17.17,1.48,22.51c.17,2.64.29,4.7.38,6.12q.06,1,.09,1.59c0,.36,0,.54,0,.54s0-.18-.06-.54-.08-.9-.14-1.59c-.11-1.41-.27-3.47-.48-6.11-.39-5.33-1-13-1.65-22.5s-1.51-20.81-2.14-33.39c-.14-3.15-.22-6.39-.15-9.69s.11-6.65.09-10.08c0-1.7-.07-3.45.1-5.2a30.55,30.55,0,0,1,.94-5.23,27.59,27.59,0,0,1,4.84-9.65,24.73,24.73,0,0,1,3.81-3.91,15.8,15.8,0,0,1,4.75-2.58,37.87,37.87,0,0,1,10.33-1.8c6.86-.32,13.46-.41,19.76-.51,12.6-.15,23.94-.1,33.46-.14l12.85-.08c3.79,0,7-.22,9.7-.28l6.13-.21,1.59,0Z" style="fill:#455a64"></path><path d="M307,329.27a2.57,2.57,0,0,1-.4-.42l-1.06-1.27-.76-.92c-.29-.33-.62-.67-1-1.05-.7-.74-1.45-1.62-2.4-2.49l-1.45-1.39c-.51-.48-1.08-.93-1.65-1.43-1.12-1-2.42-1.95-3.77-3a60.36,60.36,0,0,0-19.8-9.37c-1.65-.39-3.2-.8-4.69-1-.75-.12-1.46-.28-2.15-.37l-2-.23c-1.27-.19-2.43-.21-3.45-.28s-1.89-.09-2.61-.08l-1.65,0a2.39,2.39,0,0,1-.58,0,2.18,2.18,0,0,1,.57-.06l1.66-.08a22.48,22.48,0,0,1,2.62,0c1,0,2.2,0,3.48.2l2,.2c.7.08,1.42.23,2.17.34,1.5.21,3.08.61,4.74,1a58.5,58.5,0,0,1,20,9.44c1.35,1,2.66,2,3.78,3,.56.51,1.13,1,1.63,1.46l1.44,1.43c.94.89,1.67,1.8,2.36,2.56.33.39.65.74.93,1.08l.72.95,1,1.34A2.19,2.19,0,0,1,307,329.27Z" style="fill:#455a64"></path><path d="M260.69,295a27.67,27.67,0,0,1-1.78,3.92,28.45,28.45,0,0,1-1.89,3.85,13.45,13.45,0,0,1,1.42-4.08A13.28,13.28,0,0,1,260.69,295Z" style="fill:#455a64"></path><path d="M332.24,316.47a5.74,5.74,0,0,1-1.29.07,23,23,0,0,1-3.52-.34,24.88,24.88,0,0,1-18.11-13.49,23.14,23.14,0,0,1-1.33-3.27,5.42,5.42,0,0,1-.3-1.26c.1,0,.57,1.76,2,4.37a25.87,25.87,0,0,0,17.85,13.29C330.39,316.43,332.24,316.37,332.24,316.47Z" style="fill:#455a64"></path><path d="M180.28,333.45a4.8,4.8,0,0,1,.92.67c.57.45,1.37,1.13,2.34,2a82.78,82.78,0,0,1,13.25,15.37c.72,1.09,1.28,2,1.64,2.61a4.75,4.75,0,0,1,.53,1,4.61,4.61,0,0,1-.7-.9l-1.77-2.51c-1.51-2.11-3.66-5-6.24-8s-5.1-5.55-7-7.35l-2.22-2.12A4.81,4.81,0,0,1,180.28,333.45Z" style="fill:#455a64"></path><path d="M197.28,329a3.61,3.61,0,0,1,.29,1c.16.67.35,1.64.56,2.84a90.91,90.91,0,0,1,1.24,19c-.06,1.22-.12,2.21-.19,2.89a3.89,3.89,0,0,1-.16,1.05,4.42,4.42,0,0,1,0-1.06c0-.8,0-1.76,0-2.88,0-2.44,0-5.8-.27-9.51s-.63-7-1-9.46c-.16-1.11-.29-2.06-.4-2.85A4.67,4.67,0,0,1,197.28,329Z" style="fill:#455a64"></path><path d="M207.37,206.34l-14.78,57-30.93-23.25-11.31,11.27s29.61,39.8,42.24,41.47,16.57-2,19.17-7.74c2.7-6,11.26-36.92,11.26-36.92Z" style="fill:#ffbe9d"></path><path d="M130.07,226.37s3.6-3.93,4.69-4,12.31,3.27,12.31,3.27,2.52.5,3.52,1.68,12.07,13.2,12.07,13.2l-12.31,10.83s-14.41-2.6-15.67-4.1-2.26-3.94-1.34-4.69c0,0-1.17-2.1-.84-3.52a25.32,25.32,0,0,1,.76-2.56s-2.18-1.54-2.27-2.63a4.36,4.36,0,0,0-.41-1.68l-.51-.83Z" style="fill:#ffbe9d"></path><path d="M156.7,249.11a3.39,3.39,0,0,1-.6-.14c-.39-.11-1-.28-1.7-.53s-1.62-.57-2.63-1c-.5-.23-1-.49-1.58-.81a5.21,5.21,0,0,1-1.51-1.32,68.78,68.78,0,0,1-5.07-8.28l-.69-1.19a3.6,3.6,0,0,0-.88-1c-.71-.61-1.49-1.2-2.27-1.81a58.88,58.88,0,0,1-4.78-3.9,5,5,0,0,1-.85-6.13l.12-.18.21.11c6,3.39,11.18,6.49,15.1,8.3,1.9,1.05,3.35,2,4.35,2.61l1.14.75a2,2,0,0,1,.38.29,2,2,0,0,1-.43-.21l-1.18-.68c-1-.58-2.51-1.47-4.41-2.46-4-1.73-9.19-4.79-15.2-8.15l.33-.07a4,4,0,0,0-.55,2.78,4.87,4.87,0,0,0,1.36,2.67,57.93,57.93,0,0,0,4.72,3.87c.79.61,1.56,1.2,2.29,1.84.18.16.35.33.53.51a3.13,3.13,0,0,1,.44.61l.69,1.21a73.92,73.92,0,0,0,4.93,8.28,7.52,7.52,0,0,0,2.93,2.09c1,.47,1.86.81,2.58,1.09l1.66.62A2.38,2.38,0,0,1,156.7,249.11Z" style="fill:#eb996e"></path><path d="M135.09,228.72c.07,0,0,.39-.19.94a4.5,4.5,0,0,1-1.36,1.88,2.85,2.85,0,0,1-2.29.54c-.62-.16-.87-.49-.82-.53s.35.12.88.16a2.86,2.86,0,0,0,1.91-.58,5.47,5.47,0,0,0,1.34-1.64C134.85,229,135,228.7,135.09,228.72Z" style="fill:#eb996e"></path><path d="M139,233.56a2.11,2.11,0,0,1,.74.16,8.39,8.39,0,0,1,1.88.82,4.15,4.15,0,0,1,2,2.4,2.85,2.85,0,0,1-.17,1.9,2.28,2.28,0,0,1-1.61,1.29,4.93,4.93,0,0,1-2-.07,13.72,13.72,0,0,1-1.74-.49,13,13,0,0,1-2.74-1.33A11,11,0,0,1,133.7,237c-.36-.33-.53-.54-.5-.56s.84.65,2.31,1.49a14.81,14.81,0,0,0,4.4,1.63,4.46,4.46,0,0,0,1.78.06,2.06,2.06,0,0,0,1.44-2.56,3.93,3.93,0,0,0-1.68-2.21,10.88,10.88,0,0,0-1.77-.94A2.61,2.61,0,0,1,139,233.56Z" style="fill:#eb996e"></path><path d="M141.43,240.15a8.67,8.67,0,0,1,.84.36c.53.23,1.34.45,2.34.84a5.71,5.71,0,0,1,1.53.9,3,3,0,0,1,1,1.81,2.1,2.1,0,0,1-.89,2.13,3.7,3.7,0,0,1-2.4.55,28,28,0,0,1-4.51-.73,13.25,13.25,0,0,1-3.46-1.41,9.31,9.31,0,0,1-2-1.56,2.55,2.55,0,0,1-.55-.74,16.33,16.33,0,0,0,2.71,2,19.88,19.88,0,0,0,7.81,1.94,3.26,3.26,0,0,0,2.08-.44,1.65,1.65,0,0,0,.71-1.65,3.47,3.47,0,0,0-2.25-2.44c-.94-.42-1.76-.7-2.28-1S141.41,240.18,141.43,240.15Z" style="fill:#eb996e"></path><path d="M135.34,229.21s-3.29,2.45-3.9,2.72a11.14,11.14,0,0,0-3.65,1.69c-1,.87-9.32,7.18-12.58,9.64a1.92,1.92,0,0,0-.42,2.46h0a1.4,1.4,0,0,0,2,.57c3.08-1.86,11.07-6.69,11.68-7.12s2.71-1.29,3.26-2.1A10.32,10.32,0,0,1,135,234c1.33-.62,3.87-1.95,3.87-1.95Z" style="fill:#ebebeb"></path><path d="M126,235.08s-7.48,5.72-10.74,8.18a1.92,1.92,0,0,0-.42,2.46,1.4,1.4,0,0,0,2,.57c3.08-1.86,11.07-6.69,11.68-7.12Z" style="fill:#166534"></path><polygon points="130.43 233.97 131.47 235.32 136.54 231.93 135.49 230.58 130.43 233.97" style="fill:#263238"></polygon><path d="M297.58,189.41a19.87,19.87,0,0,0-9.37-11.71c-9.51-5.45-33.64-9.2-33.64-9.2-10.76,18.2-21.65,34.91-35.49,20l-11.59,13.69-.62,1.32c-.42,1.65-4,17-5.9,24-2,7.43-4.69,20-4.69,20L223,259.9l.7-4.36s0,.09.05.12C227.48,264.75,250,277,250,277l4.59,11,82.56-1.83C337.54,275.83,303,198.67,297.58,189.41Z" style="fill:#166534"></path><g style="opacity:0.30000000000000004"><path d="M322.7,272.07q-7-25.95-14.09-51.91a3.45,3.45,0,0,0-1-1.93c-1-.73-2.31-.29-3.41.17l-16.59,7c11.09,18.67,15.91,40.88,29.16,58.08l3.35,3.42c2.39-1.31,3.65-4.1,3.84-6.81A24.22,24.22,0,0,0,322.7,272.07Z"></path></g><path d="M214.14,217.14a11.75,11.75,0,0,1,.5,1.66c.28,1.07.65,2.64,1.06,4.59.85,3.89,1.8,9.3,3.05,15.22.64,3,1.33,5.77,2,8.29s1.45,4.77,2.19,6.6c.34.94.71,1.75,1,2.47s.59,1.34.85,1.83a10.79,10.79,0,0,1,.73,1.57,11.75,11.75,0,0,1-.91-1.47,19.42,19.42,0,0,1-.93-1.8c-.35-.72-.74-1.53-1.11-2.46a69.16,69.16,0,0,1-2.32-6.6c-.72-2.54-1.43-5.35-2.07-8.32-1.25-5.94-2.15-11.36-2.9-15.26-.36-2-.67-3.53-.9-4.62A9.61,9.61,0,0,1,214.14,217.14Z" style="fill:#263238"></path><path d="M269.61,262.18a5.6,5.6,0,0,1-1.26,0,12.59,12.59,0,0,1-1.47-.11c-.57-.08-1.22-.13-1.93-.29a28.45,28.45,0,0,1-4.9-1.39,31.66,31.66,0,0,1-5.55-2.83,32.26,32.26,0,0,1-4.84-3.93,28.19,28.19,0,0,1-3.26-3.92c-.43-.58-.74-1.16-1-1.65a10.88,10.88,0,0,1-.7-1.3,6.54,6.54,0,0,1-.5-1.15c.1,0,.86,1.57,2.54,3.89A31.43,31.43,0,0,0,250,253.3a34.23,34.23,0,0,0,4.79,3.84,33.4,33.4,0,0,0,5.45,2.82,30.27,30.27,0,0,0,4.79,1.48C267.82,262,269.62,262.08,269.61,262.18Z" style="fill:#263238"></path><g style="opacity:0.30000000000000004"><path d="M244.92,247.08a17.67,17.67,0,0,0,8.74,12.78,24.33,24.33,0,0,0,15.19,2.37A31,31,0,0,1,244.92,247.08Z"></path></g><g style="opacity:0.30000000000000004"><path d="M223.5,256.43a41.08,41.08,0,0,1-6.17-15.65,101.29,101.29,0,0,1-1.45-16.87,122.89,122.89,0,0,0,7.47,32.25"></path></g><path d="M276.13,231.91l15.72,43-40.92,1.9-9.86,1.89s-1.32,4.17-1.13,5.69,3,5.87,3.79,6.25,3,1.33,3.41,2.27,3.22,3,4.35,2.85,2.85-2.66,2.85-2.66,31.45,3.41,41.87,4.17,19.9-.57,23.12-6.44-1.87-19-2.66-22.93c-.67-3.34-11.53-49.24-11.53-49.24s-7.38-3.12-17,2.18S276.13,231.91,276.13,231.91Z" style="fill:#ffbe9d"></path><path d="M272.25,177.86c-.71.33-11.77,8.18-9.19,23.91s9.19,31.88,9.19,31.88l34.54-15.73s-10-26.67-10.77-31S286.39,171.18,272.25,177.86Z" style="fill:#166534"></path><path d="M272.25,177.86a2,2,0,0,1,.27-.14l.83-.35,1.35-.57c.55-.19,1.2-.35,1.93-.56a17.4,17.4,0,0,1,5.53-.48,15.79,15.79,0,0,1,7,2.32,17.94,17.94,0,0,1,3.39,2.75,15,15,0,0,1,2.82,3.84c.21.36.34.76.52,1.15s.24.84.34,1.25c.17.81.43,1.64.67,2.47.53,1.68,1.09,3.4,1.7,5.16,2.43,7,5.29,14.83,8.4,23.13l.08.23-.22.09-16.54,7.54-18,8.19-.24.11-.09-.25a179.51,179.51,0,0,1-7.31-22.93,99.43,99.43,0,0,1-2-10.08,25.26,25.26,0,0,1,.31-8.84,23.8,23.8,0,0,1,5.74-11.1,18.83,18.83,0,0,1,2.47-2.29c.3-.24.55-.4.71-.51a1.84,1.84,0,0,1,.27-.13L272,178c-.15.12-.39.29-.68.54a20.48,20.48,0,0,0-2.4,2.34A23.86,23.86,0,0,0,263.38,192a24.89,24.89,0,0,0-.25,8.72,100.88,100.88,0,0,0,2,10,185.64,185.64,0,0,0,7.35,22.84l-.34-.13,18-8.2,16.55-7.53-.13.32c-3.09-8.31-5.93-16.11-8.33-23.17q-.92-2.66-1.68-5.17c-.25-.85-.5-1.68-.67-2.53-.11-.42-.19-.8-.33-1.19a10.93,10.93,0,0,0-.48-1.11,15.26,15.26,0,0,0-2.73-3.76,18,18,0,0,0-3.31-2.72,15.74,15.74,0,0,0-6.88-2.35,17.5,17.5,0,0,0-5.46.4c-.73.19-1.39.34-1.94.51l-1.36.53-.84.31Z" style="fill:#263238"></path><path d="M263.74,176.37c2.27-7.8,1.27-16.27-1.33-24s-6.71-14.79-10.81-21.81l-16.4,4.95c4.46,6.12-.84,14,1,19.19s4.14,10.38,4.09,15.87c-.06,5.64-2.66,11-2.6,16.68.05,3.84,1.33,7.54,2.43,11.21s2.07,7.54,1.46,11.33-3.18,7.51-6.92,8.35a10.92,10.92,0,0,0,20.59-5.7,11.31,11.31,0,0,1,2.27,6.62c2.9-3.76,3.08-8.93,2.52-13.64s-1.76-9.43-1.17-14.14C259.48,186.1,262.27,181.42,263.74,176.37Z" style="fill:#263238"></path><path d="M243.89,276.07c-.07-.14-8.34-1.82-8.34-1.82l.29,6s-17.14-7.49-17-7.47,14,3,14,3l-.58-6.23Z" style="fill:#e0e0e0"></path><path d="M239.78,262.89l6.39-4.66,6.19,13.35-4.45-20-5.42,4.76-7.11-16.21Z" style="fill:#ebebeb"></path><path d="M259.89,268.1c.16.07,1.39-8.89,1.39-8.89h-6l6.95-17.46-3.47,14.1h7.64Z" style="fill:#ebebeb"></path><rect x="128.4" y="235.03" width="1.7" height="1.7" transform="translate(-104.27 102.41) rotate(-31.53)" style="fill:#fafafa"></rect><polygon points="129.71 235.35 129.3 235.6 129.06 235.22 128.74 235.41 128.97 235.8 128.57 236.05 128.76 236.37 129.17 236.12 129.44 236.55 129.76 236.35 129.5 235.92 129.9 235.67 129.71 235.35" style="fill:#166534"></polygon></g><g id="freepik--speech-bubble--inject-3"><circle cx="117.65" cy="92.51" r="41.08" transform="translate(-5.5 7.46) rotate(-3.55)" style="fill:#fff"></circle><path d="M158.77,125.45s-.44,0-1.2.28a5.41,5.41,0,0,0-2.63,1.93,5.19,5.19,0,0,0-.93,2.06,4.54,4.54,0,0,0,.26,2.55,4.92,4.92,0,0,0,9.23.14,4.51,4.51,0,0,0,.34-2.53,5.25,5.25,0,0,0-.86-2.09,5.45,5.45,0,0,0-2.57-2c-.75-.27-1.2-.27-1.2-.32a1.41,1.41,0,0,1,.33,0,2.08,2.08,0,0,1,.39,0,3.28,3.28,0,0,1,.52.13,5.31,5.31,0,0,1,2.75,2,5.37,5.37,0,0,1,1,2.2,4.73,4.73,0,0,1-.33,2.72,5.49,5.49,0,0,1-1.9,2.37,5,5,0,0,1-6.15-.1,5.62,5.62,0,0,1-1.83-2.42,4.83,4.83,0,0,1-.24-2.74,5.53,5.53,0,0,1,3.83-4.08,3,3,0,0,1,.53-.11,2,2,0,0,1,.39,0C158.66,125.43,158.77,125.43,158.77,125.45Z" style="fill:#263238"></path><path d="M158.61,98.82s0-.23,0-.67.1-1.11.18-2c0-.43.09-.91.14-1.44s0-1.12,0-1.75V91a7.09,7.09,0,0,0-.07-1.12l-.12-1.19a39.39,39.39,0,0,0-2.85-11.56,41.07,41.07,0,0,0-8.57-13.17l-1.56-1.58c-.56-.51-1.15-1-1.74-1.48l-.88-.74a9.14,9.14,0,0,0-.93-.71l-2-1.34c-.33-.23-.65-.46-1-.68l-1.07-.59-2.16-1.18c-.74-.38-1.53-.67-2.3-1l-1.18-.5c-.19-.08-.39-.17-.59-.24l-.61-.2a38.08,38.08,0,0,0-5.06-1.39c-.87-.16-1.75-.39-2.64-.51L121,51.48c-.45,0-.91-.11-1.37-.12h-1.39c-.93,0-1.87,0-2.81,0a42.6,42.6,0,0,0-5.67.76l-1.43.29-.72.14-.7.22-2.82.86c-.94.34-1.84.75-2.77,1.13-.46.2-.94.36-1.38.6l-1.34.71a46.31,46.31,0,0,0-5.22,3.21l-2.42,2-.61.5c-.2.17-.38.36-.57.54l-1.12,1.11-1.13,1.1-1,1.22-1,1.22-.52.61c-.16.22-.3.44-.45.66l-1.83,2.66-1.57,2.84A43.89,43.89,0,0,0,77,86.24a44,44,0,0,0,.12,13.17c.21,1.07.43,2.13.64,3.19s.63,2.06.94,3.08l.24.77.3.74.62,1.47.61,1.47.74,1.39.74,1.4.37.69.44.65,1.71,2.6a48.47,48.47,0,0,0,4,4.64l1.06,1.08c.35.36.76.66,1.14,1,.77.63,1.51,1.3,2.3,1.9l2.43,1.68.61.41c.21.13.42.24.64.36l1.27.7a41.33,41.33,0,0,0,5.19,2.43c.88.33,1.78.58,2.67.87l1.32.42c.45.13.9.19,1.35.29l2.67.56c.89.15,1.79.2,2.68.3a37,37,0,0,0,5.24.2h.64l.64-.05,1.27-.13c.84-.09,1.68-.13,2.5-.27l2.42-.49,1.19-.23,1.16-.35,2.27-.69a8.49,8.49,0,0,0,1.1-.4l1.06-.44c.71-.3,1.42-.57,2.1-.88l2-1a41.31,41.31,0,0,0,12.15-10c.37-.45.75-.88,1.1-1.31l.94-1.37c.31-.44.61-.88.9-1.31a6.51,6.51,0,0,0,.43-.64c.13-.22.25-.44.37-.66.49-.87.95-1.71,1.39-2.5s.72-1.63,1.06-2.37c.16-.38.32-.75.48-1.1a7.51,7.51,0,0,0,.4-1l.61-2c.19-.6.39-1.15.52-1.67s.22-1,.31-1.41c.18-.84.32-1.48.41-1.93s.16-.65.16-.65l-.12.66c-.09.45-.21,1.09-.38,1.93-.08.43-.18.9-.28,1.43s-.33,1.07-.51,1.68-.38,1.25-.6,2a7.56,7.56,0,0,1-.39,1.06c-.16.36-.31.73-.47,1.1-.34.76-.63,1.58-1.05,2.39l-1.38,2.52c-.12.22-.24.45-.37.67s-.28.43-.43.65l-.9,1.32-.94,1.37c-.35.44-.72.88-1.1,1.33A41.13,41.13,0,0,1,137.51,129l-2,1.06c-.69.31-1.4.59-2.11.89l-1.07.45a9.75,9.75,0,0,1-1.11.41l-2.28.7-1.16.35-1.21.24-2.43.49c-.83.14-1.67.18-2.52.28l-1.28.13-.64.06h-.65a39.22,39.22,0,0,1-5.29-.19c-.89-.1-1.79-.15-2.69-.3l-2.7-.56c-.45-.1-.91-.16-1.35-.29l-1.34-.42c-.89-.29-1.81-.54-2.7-.87a44.19,44.19,0,0,1-5.23-2.45l-1.29-.7-.64-.36-.61-.42-2.46-1.69c-.79-.6-1.54-1.28-2.32-1.92-.38-.33-.8-.63-1.15-1l-1.07-1.09a45.36,45.36,0,0,1-4-4.67l-1.74-2.62L82,113.8l-.37-.7-.75-1.4-.75-1.41-.62-1.48-.62-1.49-.31-.74-.24-.78c-.31-1-.63-2.07-.95-3.11s-.43-2.14-.65-3.22a44.48,44.48,0,0,1-.12-13.29,44.26,44.26,0,0,1,4.12-12.63l1.59-2.87c.61-.9,1.23-1.79,1.84-2.68.15-.23.3-.45.46-.67l.52-.62,1-1.23,1-1.22,1.14-1.12L89.51,62c.19-.19.37-.38.57-.55l.61-.5,2.45-2a45.67,45.67,0,0,1,5.27-3.23l1.35-.72c.45-.24.93-.4,1.39-.61.94-.37,1.86-.79,2.8-1.13l2.85-.87.71-.21c.23-.06.48-.1.72-.15l1.44-.29a43.3,43.3,0,0,1,5.72-.75c1,0,1.9,0,2.83,0h1.41c.46,0,.92.09,1.38.13l2.74.28c.9.13,1.78.35,2.66.52a40.17,40.17,0,0,1,5.09,1.41l.62.2c.2.07.4.17.6.25l1.18.5c.78.35,1.57.65,2.31,1l2.18,1.2,1.07.6,1,.68,2,1.36a7.12,7.12,0,0,1,.92.72l.89.75c.59.5,1.19,1,1.75,1.48l1.56,1.6A41.21,41.21,0,0,1,156.14,77a39.36,39.36,0,0,1,2.8,11.62l.11,1.2a6.1,6.1,0,0,1,.06,1.12c0,.73,0,1.42,0,2s0,1.22,0,1.75-.11,1-.16,1.45c-.09.85-.17,1.5-.22,2S158.61,98.82,158.61,98.82Z" style="fill:#263238"></path><path d="M132.46,81l-.21-.35a9.21,9.21,0,0,0-8.41-4.49,8.29,8.29,0,0,0-1.3.18,9.64,9.64,0,0,0-6.89,6c-.66,1.76-.84,3.78-2.08,5.18-1.62,1.82-4.37,1.88-6.79,1.8s-5.16,0-6.77,1.81a6,6,0,0,0-1.25,4.3,11.74,11.74,0,0,0,6.63,9.48A18.29,18.29,0,0,0,117.14,106,21.84,21.84,0,0,0,131,97.16C134.18,92.45,135,86,132.46,81Z" style="fill:#166534"></path><rect x="114.14" y="75.91" width="7.56" height="33.9" transform="translate(100.2 -56.19) rotate(45)" style="fill:#263238"></rect><rect x="114.14" y="75.91" width="7.56" height="33.9" transform="translate(-31.12 110.58) rotate(-45)" style="fill:#263238"></rect></g><g id="freepik--Floor--inject-3"><path d="M466.42,472.85c0,.14-96.9.26-216.41.26S33.58,473,33.58,472.85s96.88-.26,216.43-.26S466.42,472.7,466.42,472.85Z" style="fill:#263238"></path></g></svg>