<svg xmlns="http://www.w3.org/2000/svg" viewBox="0 0 500 500"><g id="freepik--background-complete--inject-2"><rect x="66.29" y="60.02" width="90.47" height="112.76" style="fill:#ebebeb"></rect><rect x="69.54" y="62.89" width="83.97" height="107.01" style="fill:#fff"></rect><rect x="81.19" y="74.22" width="60.67" height="84.36" style="fill:#ebebeb"></rect><rect x="156.76" y="60.02" width="2.09" height="112.76" style="fill:#dbdbdb"></rect><circle cx="414.31" cy="85.78" r="35.14" transform="translate(244.67 473.38) rotate(-78.06)" style="fill:#ebebeb"></circle><circle cx="415.92" cy="86.56" r="33.53" style="fill:#dbdbdb"></circle><circle cx="415.92" cy="86.56" r="31.42" style="fill:#fff"></circle><path d="M446.62,79.89c-14.3,8.67-37.82,22.89-51,30.69A31.59,31.59,0,0,1,387.08,99l43.46-40.28A31.43,31.43,0,0,1,446.62,79.89Z" style="fill:#ebebeb;opacity:0.5"></path><path d="M447.31,87.66a31.2,31.2,0,0,1-2.07,10.21L406.05,116.4a31,31,0,0,1-4.95-2.13C412.94,107.43,434.57,95,447.31,87.66Z" style="fill:#ebebeb;opacity:0.5"></path><rect x="415.61" y="57.43" width="0.61" height="4.76" style="fill:#c7c7c7"></rect><rect x="402.24" y="61.01" width="0.61" height="4.76" transform="translate(22.23 209.74) rotate(-30)" style="fill:#c7c7c7"></rect><rect x="392.44" y="70.8" width="0.61" height="4.76" transform="translate(132.97 376.7) rotate(-60)" style="fill:#c7c7c7"></rect><rect x="386.78" y="86.26" width="4.76" height="0.61" style="fill:#c7c7c7"></rect><rect x="390.37" y="99.64" width="4.76" height="0.61" transform="translate(2.65 209.76) rotate(-30)" style="fill:#c7c7c7"></rect><rect x="400.16" y="109.43" width="4.76" height="0.61" transform="translate(106.46 403.7) rotate(-60.04)" style="fill:#c7c7c7"></rect><rect x="415.61" y="110.94" width="0.61" height="4.76" style="fill:#c7c7c7"></rect><rect x="428.99" y="107.35" width="0.61" height="4.76" transform="translate(2.65 229.35) rotate(-30)" style="fill:#c7c7c7"></rect><rect x="438.79" y="97.56" width="0.61" height="4.76" transform="translate(132.97 430.21) rotate(-60)" style="fill:#c7c7c7"></rect><rect x="440.29" y="86.26" width="4.76" height="0.61" style="fill:#c7c7c7"></rect><rect x="436.71" y="72.88" width="4.76" height="0.61" transform="translate(22.23 229.33) rotate(-30)" style="fill:#c7c7c7"></rect><rect x="426.91" y="63.09" width="4.76" height="0.61" transform="translate(159.85 403.56) rotate(-60.02)" style="fill:#c7c7c7"></rect><polygon points="416.38 59.58 417.41 88.68 414.43 88.64 415.57 59.57 416.38 59.58" style="fill:#c7c7c7"></polygon><polygon points="434.5 76.41 414.92 88.91 413.5 86.29 434.11 75.7 434.5 76.41" style="fill:#a6a6a6"></polygon><path d="M416.93,86.56a1,1,0,1,1-1-1A1,1,0,0,1,416.93,86.56Z" style="fill:#c7c7c7"></path></g><g id="freepik--Floor--inject-2"><path d="M46.44,451.7c130.41-.61,276.71-.62,407.12,0-130.41.62-276.71.61-407.12,0Z" style="fill:#263238"></path></g><g id="freepik--character-2--inject-2"><path d="M316.86,450.73c2.35.76,69.22-.11,71.74-1.76,1-.61,1.41-10.36,1.61-22.16v-.37c.05-2.43.08-4.94.08-7.47,0-.35,0-.7,0-1.05l-3.25-34.69-44.73.45L346.74,418l.05,1.36.27,7.12,0,.73s-25.45,11.78-28,13.89S314.52,450,316.86,450.73Z" style="fill:#d3766a"></path><path d="M316.86,450.73c2.35.76,69.22-.11,71.74-1.76,1-.61,1.41-10.36,1.61-22.16v-.37c.05-2.43.08-4.94.08-7.47,0-.35,0-.7,0-1.05l-43.57.12.05,1.36.27,7.12,0,.73s-25.45,11.78-28,13.89S314.52,450,316.86,450.73Z" style="fill:#ebebeb"></path><path d="M316.86,450.73c1.21.38,19.37.34,37.13,0l10.51-.25c12.66-.35,23.12-.87,24.1-1.5s1.4-10.09,1.59-21.67c0-.16,0-.33,0-.49s0-.26,0-.38h0l-43.09.08,0,.74s-25.45,11.77-28,13.88S314.52,450,316.86,450.73Z" style="fill:#455a64"></path><path d="M317.59,448.13c11.27-.43,56.76-1.07,67.93-.63.09,0,.09.07,0,.07-11.16.66-56.66.94-67.93.74C317.35,448.31,317.35,448.14,317.59,448.13Z" style="fill:#263238"></path><path d="M342.26,426.7c4.43-.88,9.86-.27,13.29,2.84.14.12,0,.31-.18.27a62.54,62.54,0,0,0-13.08-2.55A.28.28,0,0,1,342.26,426.7Z" style="fill:#263238"></path><path d="M339.09,428.67c4.42-.88,9.86-.27,13.29,2.85.13.12,0,.3-.19.26a62.42,62.42,0,0,0-13.08-2.55A.28.28,0,0,1,339.09,428.67Z" style="fill:#263238"></path><path d="M335.91,430.64c4.43-.88,9.86-.27,13.29,2.85.13.12,0,.3-.18.26a63.32,63.32,0,0,0-13.08-2.55A.28.28,0,0,1,335.91,430.64Z" style="fill:#263238"></path><path d="M354,450.72l10.51-.25c12.66-.35,23.12-.87,24.1-1.5s1.4-10.09,1.59-21.67c0-.16,0-.33,0-.49s0-.26,0-.38h0C384.26,430.57,363.45,444.42,354,450.72Z" style="fill:#263238"></path><path d="M344.13,426.67h48.16s-9.7-112.49-9.32-114.45c.48-2.52,3.33-13.9,7.11-28.77,1.19-4.66,2.47-9.65,3.8-14.83,3.59-14,7.54-29.28,11-42.59,5.18-19.94,9.22-35.43,9.22-35.43H373.27s-4.75,15.08-10.75,34.7c-9.77,31.89-22.82,75.77-24.11,86.44C336.32,329,344.13,426.67,344.13,426.67Z" style="fill:#263238"></path><path d="M346.26,418.45c7.36-.15,5.25-.21,12.6-.28,3.6,0,27.26-.25,30.62.31.07,0,.07.14,0,.15-3.36.56-27,.35-30.62.32-7.35-.07-5.24-.13-12.6-.29A.11.11,0,1,1,346.26,418.45Z" style="fill:#37474f"></path><path d="M373.91,305.35c1.58-7,3.94-13.79,6-20.62q6.27-20.84,12.6-41.63,3.17-10.41,6.35-20.8c1.08-3.5,2.15-7,3.25-10.49s2.29-6.81,3.26-10.26c.39-1.4.61-.63.1,1.15-1,3.59-2,7.19-3.06,10.77q-3.12,10.65-6.27,21.28Q389.88,255.92,383.5,277q-3.18,10.6-6.37,21.2a86,86,0,0,0-2.61,10.25,47.37,47.37,0,0,0-.42,11c.46,7.36,1.31,14.72,2,22.07s1.37,14.74,2.05,22.1q2,22,4,44,.25,2.78.48,5.57c0,.63-.4.7-.46.1-1.59-14.49-3.31-29.16-4.67-43.68s-2.71-28.89-4.06-43.34c-.33-3.63-.72-7.26-.72-10.91A44.38,44.38,0,0,1,373.91,305.35Z" style="fill:#37474f"></path><path d="M377.91,190.6c2.83,21.92,8.23,63,12.17,92.85,9.21-36.14,24-92.85,24-92.85Z" style="fill:#37474f"></path><path d="M367.88,451.37c2.35.77,69.22.15,71.75-1.5,1-.6,1.45-10.35,1.68-22.15,0-.12,0-.25,0-.37.05-2.43.09-4.93.11-7.47,0-.35,0-.7,0-1.05.16-17-1.07-34.69-1.07-34.69l-43.71.29,1.22,34.37.05,1.36.24,7.11,0,.73s-25.49,11.69-28.08,13.79S365.54,450.62,367.88,451.37Z" style="fill:#d3766a"></path><path d="M367.88,451.37c2.35.77,69.22.15,71.75-1.5,1-.6,1.45-10.35,1.68-22.15,0-.12,0-.25,0-.37.05-2.43.09-4.93.11-7.47,0-.35,0-.7,0-1.05l-43.56,0,.05,1.36.24,7.11,0,.73s-25.49,11.69-28.08,13.79S365.54,450.62,367.88,451.37Z" style="fill:#ebebeb"></path><path d="M367.88,451.37c2.35.77,69.22.15,71.75-1.5,1-.6,1.45-10.35,1.68-22.15,0-.12,0-.25,0-.37l-43.15-.08,0,.73s-25.49,11.69-28.08,13.79S365.54,450.62,367.88,451.37Z" style="fill:#455a64"></path><path d="M368.61,448.77c11.27-.38,56.77-.85,67.94-.37.09,0,.09.06,0,.07-11.17.62-56.66.73-67.93.49C368.38,449,368.38,448.78,368.61,448.77Z" style="fill:#263238"></path><path d="M393.37,427.44c4.43-.87,9.86-.24,13.28,2.89.13.12,0,.31-.19.26A62.4,62.4,0,0,0,393.39,428,.28.28,0,0,1,393.37,427.44Z" style="fill:#263238"></path><path d="M390.19,429.4c4.42-.87,9.86-.24,13.27,2.89.14.12,0,.31-.18.26A62.52,62.52,0,0,0,390.21,430,.28.28,0,0,1,390.19,429.4Z" style="fill:#263238"></path><path d="M387,431.36c4.43-.87,9.86-.24,13.28,2.89.13.12,0,.31-.19.26A62.27,62.27,0,0,0,387,431.92.28.28,0,0,1,387,431.36Z" style="fill:#263238"></path><path d="M374.59,190.6s.94,19.53,5.41,35c.36,1.28.75,2.53,1.17,3.74a72.78,72.78,0,0,1,11.76,6s.47,15.71.95,33.23c.52,19.59,1.06,41.44.95,46.08C394.42,332,397,427.37,397,427.37l48.14.2s-8.7-106.47-8.64-112.82c.09-10.21-2.33-55.33-4.2-88.24a260.84,260.84,0,0,0-4.5-35.91Z" style="fill:#263238"></path><path d="M398.65,418.81c7.35-.12,5.24-.19,12.59-.23,3.6,0,27.26-.13,30.62.44a.08.08,0,0,1,0,.15c-3.36.55-27,.24-30.62.19-7.35-.1-5.24-.15-12.6-.34A.11.11,0,0,1,398.65,418.81Z" style="fill:#37474f"></path><path d="M426.16,197.58c.89,26.86,1.83,53.73,3,80.58s7.53,123.39,9.15,138.37c0,.1-.14.14-.15,0-3.51-26.64-5.46-66.09-7.19-92.9s-2.89-53.67-3.8-80.52c-.52-15.19-.92-30.39-1.37-45.58C425.82,197.35,426.16,197.37,426.16,197.58Z" style="fill:#37474f"></path><path d="M379.17,228.18a88.78,88.78,0,0,1,13.76,7.21.16.16,0,0,1-.14.28c-4.65-2.25-9.39-4.43-13.9-6.94A.31.31,0,0,1,379.17,228.18Z" style="fill:#37474f"></path><path d="M378.9,211.61c.32,1.71.73,3.41,1.1,5.11s.6,3.22,1,4.8a8.11,8.11,0,0,0,2.23,4c.63.59,1.32,1.1,2,1.63.36.29.74.57,1.12.86-.05-.23-.09-.46-.13-.69l-.33-2c-.25-1.44-.48-2.88-.7-4.33-.43-2.84-.83-5.71-1.42-8.52a.09.09,0,1,1,.17,0c.71,2.78,1.49,5.54,2.11,8.35.3,1.38,1.38,8.18,1.43,8.66s.09,1,.11,1.5a6.44,6.44,0,0,1,0,1.52.12.12,0,0,1-.23,0h0a5.73,5.73,0,0,1-.43-1.48c-.13-.48-.24-1-.33-1.47,0-.18-.05-.36-.08-.54-.67-.41-1.29-.95-1.92-1.4s-1.36-1-2-1.51a7.65,7.65,0,0,1-2.44-3.81,27.11,27.11,0,0,1-.8-4.89c-.22-1.94-.38-3.88-.65-5.8C378.71,211.54,378.88,211.49,378.9,211.61Z" style="fill:#37474f"></path><path d="M384.54,147.13c-5,9.17-25.16,37.53-31.65,38.58-6.76,1.1-30.38-1.86-35.75-5.14-2.94-1.79,2.38-23.48,5.86-22.29s22.78,3.56,25.52,3.11S373,139.08,381.05,134.3C395,126.06,387.25,142.2,384.54,147.13Z" style="fill:#d3766a"></path><path d="M321.94,181.19c-2.69-.18-17.24-1-20.52-2.31s-12.48-5.71-11.75-8.33,3.54-1.54,3.54-1.54-3.59-2.48-2.61-5,5.28-.75,5.28-.75-3.5-2.81-2.34-5.31,5.18.07,5.18.07-3.32-2.43-1.5-4.08c2.19-2,7.8,3.18,11.54,4.34.85.26,17.58,4.11,17.58,4.11Z" style="fill:#d3766a"></path><path d="M298.37,157.75c4.13,3.79,6.6,4.73,12,5.71.1,0,.1.18,0,.17-5.41-.47-8.67-1.21-12.22-5.69C298,157.72,298.17,157.57,298.37,157.75Z" style="fill:#263238"></path><path d="M295.55,162.9c4.64,3.56,7.31,4.61,12.92,6,.08,0,0,.16,0,.14-5.63-1-8.86-1.76-13-5.92C295.22,163,295.34,162.74,295.55,162.9Z" style="fill:#263238"></path><path d="M293.49,169.07c4.74,3.12,7.61,4.39,13.24,5.09a.11.11,0,0,1,0,.21,18.81,18.81,0,0,1-13.31-5.14C293.15,169,293.2,168.88,293.49,169.07Z" style="fill:#263238"></path><path d="M330.35,160.4s-4.9-5-7.55-6.76-14.86-4.57-15.63-2c-1,3.36,5.76,6.39,9.25,7.44,0,0-2.28,7.78,2.08,11S330.35,160.4,330.35,160.4Z" style="fill:#d3766a"></path><path d="M307.21,152.69c1.31,3.71,6,4.8,9.3,6.07a.32.32,0,0,1,.15.51c-.74,3.33-.81,8.23,1.62,10.88a.08.08,0,0,1-.11.12c-3-2.48-3.32-7.31-2.27-10.9-3.42-1.25-8.06-2.54-8.73-6.67A0,0,0,0,1,307.21,152.69Z" style="fill:#263238"></path><path d="M330,158.37l-8.43,26.14s25.11,4.64,32.44,2.34,27.38-32,33.17-43.7.48-14.65-10.17-7.22-27.64,23.94-29.32,24S330,158.37,330,158.37Z" style="fill:#ebebeb"></path><path d="M387.22,143.15c-5.79,11.71-25.83,41.4-33.17,43.7a15.43,15.43,0,0,1-3.73.57l35.34-55.51C390,131.41,391.09,135.32,387.22,143.15Z" style="opacity:0.1"></path><path d="M333.36,172.57c.65-2.07,3.2-10.39,3.67-12.5a0,0,0,0,0-.06,0c-.84,1.93-3.6,10.06-4.25,12.14a116.85,116.85,0,0,0-3.55,12.54c0,.08.1.13.13.06C330.92,180.8,332.08,176.66,333.36,172.57Z" style="fill:#263238"></path><path d="M367,208.65l64.73,0s-11-56.34-32.77-77c-2.69-2.56-9.8-4.66-15.55,1.56C375.72,141.5,366.86,208.44,367,208.65Z" style="fill:#263238"></path><path d="M395.82,128.84s-1.83,20.76-1.53,37.84c.81,46.25,4.44,131.85,6.72,134.58,1.34,1.62,44.28-5.86,44.28-5.86s-9.14-94.32-24.52-130.65C406.51,131.07,395.82,128.84,395.82,128.84Z" style="fill:#ebebeb"></path><path d="M432.35,231.82a116.87,116.87,0,0,1-13.53,1.85c-6.35.37-12.7.12-14.52.2-.17,0-.22.55-.11.56,2.39.16,9.73.46,14.57.18a76.3,76.3,0,0,0,13.16-2c.05,1.34.11,2.39.2,3.74-4.44,1.13-13,3.13-27.07,2.15-.07-.56-.17-3.56-.34-4.38,0-.12-.55-.11-.56.08-.06.81,0,8,.11,9.5.18,3.61,1,13.79,2,15.71,2.29,4.35,11,3.85,13.41,3.73s10.19-.33,12.93-3.35c1.47-1.6,1.32-9.88.67-17.17C433,239.11,432.56,231.87,432.35,231.82Zm-12,30.35c-7.7.45-11.14-1-12.42-2.5-1.49-1.79-1.8-5-2.11-8.64-.25-2.82-.67-11.69-.7-11.87,4.55.65,16.45,1.19,27.06-1.94.26,4.2.47,7.55.72,11.75.18,3.05.29,8.16-1.15,10C430.53,260.55,425.9,261.83,420.34,262.17Z" style="fill:#dbdbdb"></path><path d="M382.41,133.21s-5.67,34.42-6.46,40-2.61,120.3-4.36,124.5c-.59,1.42-31.85-6.59-31.85-6.59s16.43-54.24,27.27-96.65c6.42-25.1,9.26-46.37,10-48.93C380.28,133.62,382.41,133.21,382.41,133.21Z" style="fill:#ebebeb"></path><polygon points="389.59 144.66 386.26 141.13 383.4 145.18 384.83 148.33 388.31 148.18 389.59 144.66" style="fill:#263238"></polygon><polygon points="388.31 148.18 394.29 190.86 388.19 203.83 381.08 191.95 384.83 148.33 388.31 148.18" style="fill:#263238"></polygon><path d="M385.63,141.18c3.61-.05,8.17-6.74,9.42-11.55.09-.33-1.12-3.27-2.42-6.92-.78-2.21-1.6-4.7-2.18-7-.12-.48-13.68,7.18-13.68,7.18a38.19,38.19,0,0,1,3.64,8.57,5.78,5.78,0,0,1,.14,1,1,1,0,0,0,0,.16C380.72,134.47,382.13,141.22,385.63,141.18Z" style="fill:#d3766a"></path><path d="M391.45,119.2c-3.28,9.13-9.45,12.12-11,12.24a36.41,36.41,0,0,0-3.64-8.57s13.56-7.66,13.68-7.18C390.74,116.83,391.08,118,391.45,119.2Z" style="fill:#263238"></path><path d="M391.06,99.15c2.28,5.08,1.42,20.69-1.91,24.57-4.82,5.62-13.68,7.22-18.7,1.2-4.86-5.83-3.38-26.16.43-29.78C376.48,89.8,387.69,91.64,391.06,99.15Z" style="fill:#d3766a"></path><path d="M377.33,112.56s.08,0,.08.1c-.08,1,0,2.26,1,2.65a0,0,0,0,1,0,.06C377.2,115.16,377.09,113.55,377.33,112.56Z" style="fill:#263238"></path><path d="M378.31,111.5c1.7-.07,1.7,3.33.13,3.39S376.89,111.55,378.31,111.5Z" style="fill:#263238"></path><path d="M371.4,112.36s-.09,0-.08.09c0,1-.1,2.27-1.06,2.62a0,0,0,0,0,0,.06C371.43,115,371.6,113.35,371.4,112.36Z" style="fill:#263238"></path><path d="M370.45,111.26c-1.69-.12-1.82,3.27-.25,3.39S371.87,111.36,370.45,111.26Z" style="fill:#263238"></path><path d="M380.22,109.46a13.15,13.15,0,0,1-1.39-.16,2.25,2.25,0,0,1-1.38-.44.72.72,0,0,1-.08-.87,1.78,1.78,0,0,1,1.71-.58,2.68,2.68,0,0,1,1.73.77A.77.77,0,0,1,380.22,109.46Z" style="fill:#263238"></path><path d="M369.12,109a12.73,12.73,0,0,0,1.36-.31,2.24,2.24,0,0,0,1.33-.58.72.72,0,0,0,0-.87,1.8,1.8,0,0,0-1.77-.4,2.64,2.64,0,0,0-1.63,1A.77.77,0,0,0,369.12,109Z" style="fill:#263238"></path><path d="M378.63,121.27c-.25.24-.51.58-.89.61a3,3,0,0,1-1.13-.28,0,0,0,0,0,0,.05,1.41,1.41,0,0,0,1.33.59,1.15,1.15,0,0,0,.84-.92A.06.06,0,0,0,378.63,121.27Z" style="fill:#263238"></path><path d="M377.56,118.1a3.57,3.57,0,0,1-2.41,1.57,4.64,4.64,0,0,1-1.29,0l-.25,0-.23,0a.27.27,0,0,1-.2-.24h0a.41.41,0,0,1,0-.11h0v-.1c0-.81.08-2,.08-2-.3.14-1.82.81-1.79.38A54.54,54.54,0,0,1,373,106.7c0-.12.21-.09.2,0-.11,3.38-.81,6.72-1,10.11a6.05,6.05,0,0,1,1.7-.49c.12,0-.22,2.37-.19,2.74a.16.16,0,0,0,0,0,5,5,0,0,0,3.73-1.11C377.54,118,377.63,118,377.56,118.1Z" style="fill:#263238"></path><path d="M390.93,113.65c-2.81.17-3.36-6.68-3.36-6.68s-4.35-.25-7.13-5.84c0,0-5.06,4.09-9.76,3.8-7.35-.44-8.28-9.82-5.81-12.05,3.49-3.15,10.77,0,10.77,0s9.95-4.1,13.84,2.49A5.32,5.32,0,0,1,395,100C395.94,105.06,393,113.53,390.93,113.65Z" style="fill:#263238"></path><path d="M388.67,107.65a9.48,9.48,0,0,1-5.73-2.29,7.15,7.15,0,0,1-2.4-6.1.1.1,0,0,0-.19,0,8.24,8.24,0,0,0,2,6.69,6.67,6.67,0,0,0,6.36,1.93C388.78,107.83,388.79,107.66,388.67,107.65Z" style="fill:#263238"></path><path d="M395,97c-1.63-1.63-3.83-1.65-6-1.32-.12,0-.08.22,0,.19a6,6,0,0,1,5.67,2.25c1.28,1.56,1.29,3.72,1.08,5.64a15.1,15.1,0,0,1-4.9,9.62,0,0,0,1,0,.06.07,15.08,15.08,0,0,0,5.53-10.55C396.67,100.9,396.54,98.51,395,97Z" style="fill:#263238"></path><path d="M376,93.15a7.08,7.08,0,0,0-4.32-2.56,8.45,8.45,0,0,0-5.9,1.33,4.8,4.8,0,0,0-2,4.34,8.53,8.53,0,0,0,2.52,5.09s.1,0,.07-.06a8.41,8.41,0,0,1-2.05-4.65,4.39,4.39,0,0,1,2.11-4.17c2.8-1.67,7.14-2,9.44.8C375.89,93.37,376,93.24,376,93.15Z" style="fill:#263238"></path><path d="M388.46,113.78s2.94-5.31,5.31-4.32.54,8.44-2,9.7A2.7,2.7,0,0,1,388,118.1Z" style="fill:#d3766a"></path><path d="M393.19,111.58s.06,0,0,.07c-1.76.95-2.55,2.76-3,4.61a1.49,1.49,0,0,1,2.17-.64c.05,0,0,.11,0,.11a1.64,1.64,0,0,0-1.75.76,7.56,7.56,0,0,0-.71,1.56c-.07.18-.38.12-.34-.08v0C389.21,115.58,390.69,112.09,393.19,111.58Z" style="fill:#263238"></path><path d="M380.24,132.11l5.92,7.09,7.8-13.49,3.47,3.19s-5.72,18.53-6,17.83l-5.22-5.88-3.61,6-2.8-12Z" style="fill:#263238"></path><path d="M380.9,141.06c-.4-2-.85-4-1.15-6,0-.08.1-.14.14-.06.92,1.78,2.38,9.41,2.87,11.2v0c.15-.26,3.41-5.38,3.47-5.33,1,.88,4.84,5.16,5.13,5.56.91-2.94,4.94-14.66,6.16-17.55,0-.08.17-.05.15,0-.68,3-5.82,18.45-5.95,18.45a76.63,76.63,0,0,1-5.47-6.22c-.5,1.06-3.67,6.69-3.76,6.41A60.07,60.07,0,0,1,380.9,141.06Z" style="fill:#263238"></path><rect x="365.65" y="145.07" width="36.12" height="47.02" transform="translate(-7.76 18.9) rotate(-2.79)" style="fill:#263238"></rect><rect x="365.65" y="145.07" width="36.12" height="47.02" transform="translate(-7.76 18.9) rotate(-2.79)" style="opacity:0.6000000000000001"></rect><rect x="364.11" y="145.15" width="36.12" height="47.02" transform="translate(-7.77 18.83) rotate(-2.79)" style="fill:#263238"></rect><rect x="364.11" y="145.15" width="36.12" height="47.02" transform="translate(-7.77 18.83) rotate(-2.79)" style="opacity:0.4"></rect><rect x="372.62" y="142.75" width="17.12" height="5.19" transform="translate(-6.49 18.31) rotate(-2.73)" style="fill:#c7c7c7"></rect><polygon points="385.72 142.53 383.62 142.63 383.5 140.25 378.39 140.49 378.5 142.88 376.39 142.98 376.19 138.63 385.55 138.18 385.72 142.53" style="fill:#c7c7c7"></polygon><path d="M408.43,138.52c15.6,18,32.72,47.85,25.12,54.34-5.33,4.55-29.87.41-46.45-4.85-3.15-1,1.95-27.22,5.36-26.3,5.5,1.48,16.35,4,16.76,4.08.88.26-5.05-7.52-10.15-21.91C393.89,129.26,399.52,128.23,408.43,138.52Z" style="fill:#d3766a"></path><path d="M358.94,160.25c.08,3.09,3.57,2.62,3.57,2.62a5.68,5.68,0,0,0-2.22,3.17c-.5,2.28,2.87,4.08,2.87,4.08a7,7,0,0,0-1.81,3.71c-.26,2.24,2.88,4.54,2.88,4.54a6.16,6.16,0,0,0,.47,4.27c1.91,3.45,8,3.34,11.77,4,4,.72,10.26,1.23,12.72,2.22l5.59-26s-16.33-9.75-20.88-9.4C370.08,153.78,358.82,155.54,358.94,160.25Z" style="fill:#d3766a"></path><path d="M362.57,162.78A51.34,51.34,0,0,1,375,160.86a.08.08,0,0,1,0,.15c-4.12.23-8.29,1.57-12.4,2A.1.1,0,0,1,362.57,162.78Z" style="fill:#263238"></path><path d="M363.26,169.8a10.88,10.88,0,0,1,2.85-.24c1,0,2,0,3,0,2,0,4.06.11,6.08.25.09,0,.11.14,0,.14-2,0-4,0-6.07,0-1,0-2,.06-3,.11a13,13,0,0,1-2.86,0A.15.15,0,0,1,363.26,169.8Z" style="fill:#263238"></path><path d="M364.32,178.37a7.38,7.38,0,0,1,2.57-.09l2.78.09c1.85,0,3.69.09,5.54.07.1,0,.11.14,0,.14-1.88,0-3.76.09-5.63.1h-2.77a7.27,7.27,0,0,1-2.51-.22A0,0,0,0,1,364.32,178.37Z" style="fill:#263238"></path><path d="M400.47,159.9l-6.82,30.44s38.05,10.83,42.24,1.23-17.54-46-30.29-56.59-8.24,5.72-7.87,7c1.63,5.78,9.46,20.94,9.46,20.94Z" style="fill:#ebebeb"></path><path d="M401.14,159.94c4.36,1.65,15.75,7.64,18.23,10.06.07.07,0,.19-.09.13-2.45-1.81-16.54-9.09-18.74-10a3.42,3.42,0,0,1-.17.35c-.07.1-.13,0-.13-.06s.16-.7.18-.74Z" style="fill:#263238"></path><path d="M404,177.12c.47-2.12,2.25-10.64,2.53-12.78,0,0-.05-.06-.06,0-.67,2-2.68,10.34-3.14,12.47A118.9,118.9,0,0,0,401,189.6c0,.08.11.12.13,0C402.35,185.54,403.13,181.31,404,177.12Z" style="fill:#263238"></path><path d="M407.49,163.13c-1.14-2.63-2.55-5.14-3.81-7.72s-2.57-5.11-3.74-7.72c0,0-.07,0-.06,0,.71,1.77,1.41,3.54,2.17,5.29-.23-.28-.46-.57-.67-.86-.4-.53-.76-1.08-1.11-1.64,0,0-.07,0-.06,0a8.63,8.63,0,0,0,1,1.76,13.24,13.24,0,0,0,1,1.14c.32.71.64,1.42,1,2.12a52.72,52.72,0,0,0,3.84,7.57C407.1,163.21,407.53,163.21,407.49,163.13Z" style="fill:#263238"></path><path d="M430.36,195c-10.33.86-32.36-3.69-36.57-4.64.07-.45.06-.61.14-1.24,0-.08-.11-.12-.13,0-.13.6-.56,1.78-.4,1.85,2,.85,26.13,6,37,4.26C430.48,195.2,430.48,195,430.36,195Z" style="fill:#263238"></path></g><g id="freepik--Device--inject-2"><path d="M242.68,448.1a3.35,3.35,0,1,0,3.35-3.36A3.35,3.35,0,0,0,242.68,448.1Z" style="fill:#263238"></path><path d="M244.29,448.1a1.74,1.74,0,1,0,1.74-1.75A1.74,1.74,0,0,0,244.29,448.1Z" style="fill:#ebebeb"></path><path d="M232,448.1a3.36,3.36,0,1,0,3.36-3.36A3.36,3.36,0,0,0,232,448.1Z" style="fill:#263238"></path><path d="M233.59,448.1a1.74,1.74,0,1,0,1.74-1.75A1.74,1.74,0,0,0,233.59,448.1Z" style="fill:#ebebeb"></path><path d="M194.74,448.1a3.35,3.35,0,1,0,3.35-3.36A3.35,3.35,0,0,0,194.74,448.1Z" style="fill:#263238"></path><path d="M196.35,448.1a1.74,1.74,0,1,0,1.74-1.75A1.74,1.74,0,0,0,196.35,448.1Z" style="fill:#ebebeb"></path><path d="M184,448.1a3.35,3.35,0,1,0,3.35-3.36A3.35,3.35,0,0,0,184,448.1Z" style="fill:#263238"></path><path d="M185.64,448.1a1.74,1.74,0,1,0,1.74-1.75A1.74,1.74,0,0,0,185.64,448.1Z" style="fill:#ebebeb"></path><path d="M191.94,443.25h-7.57v-4.89a6.11,6.11,0,0,1,6.11-6.11H200Z" style="fill:#c7c7c7"></path><rect x="212.25" y="236.94" width="8.9" height="195.31" transform="translate(433.41 669.2) rotate(180)" style="fill:#dbdbdb"></rect><polygon points="212.25 240.51 221.16 238.73 221.16 236.94 212.25 236.94 212.25 240.51" style="fill:#c7c7c7"></polygon><rect x="179.65" y="151.75" width="80.69" height="66.9" transform="translate(439.99 370.39) rotate(180)" style="fill:#dbdbdb"></rect><polygon points="179.65 218.65 260.34 218.65 260.34 213.51 179.65 216.08 179.65 218.65" style="fill:#c7c7c7"></polygon><rect x="183.77" y="155.97" width="72.45" height="48.49" transform="translate(439.99 360.43) rotate(180)" style="fill:#263238"></rect><path d="M215.86,156l40.36,40.37v8.12H252L203.56,156Zm-32.09,37.31v11.18h11.17ZM245.4,156l10.82,10.82v-6.16L251.56,156Zm-21,0,31.86,31.87v-1.78L226.14,156Zm-39,0,48.5,48.49h1.78L187.15,156Zm-1.6,29.62v1.78l17.09,17.09h1.78Z" style="fill:#37474f"></path><polygon points="194.3 173.4 193.41 171.38 192.07 171.38 190.62 169.19 189.43 171.38 185.22 171.38 185.22 171.13 189.28 171.13 190.6 168.71 192.21 171.13 193.57 171.13 194.27 172.72 194.83 171.13 199.41 171.13 200.75 169.12 202.09 171.13 203.63 171.13 204.49 172.39 205.28 171.13 208.49 171.13 209.84 168.96 211.07 171.13 211.78 171.13 212.99 172.63 214.1 171.13 219.92 171.13 221.25 169 222.65 171.13 223.75 171.13 224.93 172.57 225.96 171.13 230.51 171.13 231.44 169.17 232.34 171.13 233.54 171.13 234.47 172.6 235.34 171.13 239.69 171.13 240.75 169.13 241.94 171.13 243.1 171.13 244.12 172.57 245.05 171.13 247.03 171.13 248.16 168.47 249.33 171.13 250.47 171.13 251.39 172.43 252.22 171.13 254.77 171.13 254.77 171.38 252.36 171.38 251.4 172.87 250.34 171.38 249.16 171.38 248.16 169.1 247.19 171.38 245.18 171.38 244.13 173.02 242.97 171.38 241.8 171.38 240.76 169.64 239.84 171.38 235.49 171.38 234.48 173.07 233.41 171.38 232.18 171.38 231.44 169.76 230.67 171.38 226.09 171.38 224.95 172.99 223.63 171.38 222.52 171.38 221.26 169.46 220.06 171.38 214.22 171.38 213 173.04 211.66 171.38 210.93 171.38 209.83 169.45 208.63 171.38 205.42 171.38 204.49 172.84 203.49 171.38 201.96 171.38 200.75 169.57 199.54 171.38 195.01 171.38 194.3 173.4" style="fill:#263238"></polygon><polygon points="194.3 188.31 193.39 184.57 192.06 184.57 192.02 184.49 190.62 180.63 189.45 184.57 185.22 184.57 185.22 184.32 189.26 184.32 190.6 179.83 192.23 184.32 193.59 184.32 194.27 187.14 194.82 184.32 199.39 184.32 200.75 180.59 202.11 184.32 203.65 184.32 204.49 186.55 205.26 184.32 208.47 184.32 209.84 180.3 211.09 184.32 211.8 184.32 212.99 187 214.08 184.32 219.9 184.32 221.25 180.37 222.67 184.32 223.78 184.32 224.93 186.9 225.94 184.32 230.5 184.32 231.44 180.67 232.35 184.32 233.56 184.32 234.47 186.93 235.32 184.32 239.67 184.32 240.75 180.6 241.96 184.32 243.12 184.32 244.12 186.89 245.03 184.32 247.01 184.32 248.16 179.39 249.34 184.32 250.49 184.32 251.39 186.62 252.2 184.32 254.77 184.32 254.77 184.57 252.38 184.57 251.4 187.34 250.32 184.57 249.15 184.57 248.16 180.47 247.21 184.57 245.2 184.57 244.13 187.61 242.95 184.57 241.78 184.57 240.76 181.45 239.86 184.57 235.51 184.57 234.48 187.72 233.39 184.57 232.16 184.57 231.44 181.68 230.69 184.57 226.11 184.57 224.95 187.55 223.61 184.57 222.5 184.57 221.26 181.13 220.08 184.57 214.25 184.57 213 187.65 211.64 184.57 210.91 184.57 209.83 181.1 208.65 184.57 205.44 184.57 204.5 187.29 203.47 184.57 201.94 184.57 200.75 181.32 199.56 184.57 195.02 184.57 194.3 188.31" style="fill:#455a64"></polygon><path d="M245.09,161v4.55a.43.43,0,0,1-.44.42.42.42,0,0,1-.42-.42v-3.79l-.31.17a.35.35,0,0,1-.21.07.42.42,0,0,1-.37-.22.42.42,0,0,1,.14-.58l1-.56,0,0,0,0h.29s0,0,0,0l.05,0,0,0,0,0,0,0,0,0,0,0v0a.05.05,0,0,1,0,0,.06.06,0,0,0,0,0s0,0,0,0a.06.06,0,0,0,0,0Z" style="fill:#263238"></path><path d="M246.07,163.27a3.26,3.26,0,0,1,.52-1.84,1.73,1.73,0,0,1,1.43-.85,1.75,1.75,0,0,1,1.43.85,3.59,3.59,0,0,1,0,3.69A1.78,1.78,0,0,1,248,166a1.75,1.75,0,0,1-1.43-.85A3.27,3.27,0,0,1,246.07,163.27Zm3,0a2.61,2.61,0,0,0-.37-1.37.94.94,0,0,0-.72-.47,1,1,0,0,0-.73.47,2.72,2.72,0,0,0,0,2.74.94.94,0,0,0,.73.48.93.93,0,0,0,.72-.48A2.61,2.61,0,0,0,249.11,163.27Z" style="fill:#263238"></path><path d="M250.78,163.27a3.26,3.26,0,0,1,.52-1.84,1.73,1.73,0,0,1,1.43-.85,1.75,1.75,0,0,1,1.43.85,3.59,3.59,0,0,1,0,3.69,1.78,1.78,0,0,1-1.43.85,1.75,1.75,0,0,1-1.43-.85A3.27,3.27,0,0,1,250.78,163.27Zm3,0a2.61,2.61,0,0,0-.37-1.37.94.94,0,0,0-.72-.47,1,1,0,0,0-.73.47,2.72,2.72,0,0,0,0,2.74.94.94,0,0,0,.73.48.93.93,0,0,0,.72-.48A2.61,2.61,0,0,0,253.82,163.27Z" style="fill:#263238"></path><path d="M241.14,162.38s-1.3-.85-1-1.54a1.56,1.56,0,0,0,1.92,0C242.45,161.53,241.14,162.38,241.14,162.38Z" style="fill:#263238"></path><rect x="186.85" y="159.09" width="15.02" height="0.83" style="fill:#dbdbdb"></rect><rect x="186.85" y="161.19" width="11.19" height="0.76" style="fill:#dbdbdb"></rect><rect x="186.85" y="163.11" width="12.79" height="0.76" style="fill:#dbdbdb"></rect><rect x="237.79" y="200.7" width="15.02" height="0.83" transform="translate(490.59 402.22) rotate(180)" style="fill:#dbdbdb"></rect><rect x="241.61" y="198.67" width="11.19" height="0.76" transform="translate(494.42 398.1) rotate(180)" style="fill:#dbdbdb"></rect><path d="M177.16,151.75h2.49a0,0,0,0,1,0,0v66.9a0,0,0,0,1,0,0h-6.58a0,0,0,0,1,0,0V155.83A4.08,4.08,0,0,1,177.16,151.75Z" style="fill:#c7c7c7"></path><rect x="172.88" y="218.65" width="94.23" height="18.3" transform="translate(439.99 455.59) rotate(180)" style="fill:#dbdbdb"></rect><rect x="166.3" y="218.65" width="6.58" height="18.3" style="fill:#c7c7c7"></rect><rect x="256.51" y="222.78" width="6.37" height="3.82" transform="translate(519.4 449.39) rotate(180)" style="fill:#c7c7c7"></rect><rect x="247.37" y="222.78" width="6.37" height="3.82" transform="translate(501.11 449.39) rotate(180)" style="fill:#c7c7c7"></rect><rect x="238.22" y="222.78" width="6.37" height="3.82" transform="translate(482.82 449.39) rotate(180)" style="fill:#c7c7c7"></rect><rect x="256.51" y="228.99" width="6.37" height="3.82" transform="translate(519.4 461.8) rotate(180)" style="fill:#c7c7c7"></rect><rect x="247.37" y="228.99" width="6.37" height="3.82" transform="translate(501.11 461.8) rotate(180)" style="fill:#c7c7c7"></rect><rect x="238.22" y="228.99" width="6.37" height="3.82" transform="translate(482.82 461.8) rotate(180)" style="fill:#c7c7c7"></rect><rect x="225.95" y="222.78" width="6.37" height="3.82" transform="translate(458.28 449.39) rotate(180)" style="fill:#c7c7c7"></rect><rect x="216.81" y="222.78" width="6.37" height="3.82" transform="translate(439.99 449.39) rotate(180)" style="fill:#c7c7c7"></rect><rect x="207.67" y="222.78" width="6.37" height="3.82" transform="translate(421.7 449.39) rotate(180)" style="fill:#c7c7c7"></rect><rect x="207.67" y="228.99" width="24.66" height="0.73" transform="translate(439.99 458.71) rotate(180)" style="fill:#c7c7c7"></rect><rect x="207.67" y="230.53" width="24.66" height="0.73" transform="translate(439.99 461.8) rotate(180)" style="fill:#c7c7c7"></rect><rect x="207.67" y="232.08" width="24.66" height="0.73" transform="translate(439.99 464.89) rotate(180)" style="fill:#c7c7c7"></rect><rect x="195.4" y="222.78" width="6.37" height="3.82" transform="translate(397.16 449.39) rotate(180)" style="fill:#c7c7c7"></rect><rect x="186.25" y="222.78" width="6.37" height="3.82" transform="translate(378.87 449.39) rotate(180)" style="fill:#c7c7c7"></rect><rect x="177.11" y="222.78" width="6.37" height="3.82" transform="translate(360.58 449.39) rotate(180)" style="fill:#c7c7c7"></rect><rect x="195.4" y="228.99" width="6.37" height="3.82" transform="translate(397.16 461.8) rotate(180)" style="fill:#c7c7c7"></rect><rect x="186.25" y="228.99" width="6.37" height="3.82" transform="translate(378.87 461.8) rotate(180)" style="fill:#c7c7c7"></rect><rect x="177.11" y="228.99" width="6.37" height="3.82" transform="translate(360.58 461.8) rotate(180)" style="fill:#c7c7c7"></rect><path d="M191.94,432.25h57.25a0,0,0,0,1,0,0v4.29a6.7,6.7,0,0,1-6.7,6.7H198.05a6.11,6.11,0,0,1-6.11-6.11v-4.88A0,0,0,0,1,191.94,432.25Z" transform="translate(441.13 875.5) rotate(180)" style="fill:#dbdbdb"></path><path d="M246,449.12h0a1.77,1.77,0,0,0,1.77-1.77v-4.1h-3.54v4.1A1.77,1.77,0,0,0,246,449.12Z" style="fill:#dbdbdb"></path><path d="M198.08,449.12h0a1.78,1.78,0,0,0,1.78-1.77v-4.1h-3.55v4.1A1.77,1.77,0,0,0,198.08,449.12Z" style="fill:#dbdbdb"></path><path d="M235.33,449.12h0a1.77,1.77,0,0,0,1.77-1.77v-4.1h-3.55v4.1A1.78,1.78,0,0,0,235.33,449.12Z" style="fill:#dbdbdb"></path><path d="M187.38,449.12h0a1.77,1.77,0,0,0,1.77-1.77v-4.1h-3.54v4.1A1.77,1.77,0,0,0,187.38,449.12Z" style="fill:#dbdbdb"></path><path d="M247,263.7a4.14,4.14,0,0,1-4.12-4.13V236.94h.75v22.63a3.38,3.38,0,1,0,6.75,0V236.94h.75v22.63A4.14,4.14,0,0,1,247,263.7Z" style="fill:#263238"></path><path d="M243.26,259.05a4.13,4.13,0,0,1-4.13-4.13v-18h.75v18a3.38,3.38,0,0,0,6.76,0v-18h.75v18A4.13,4.13,0,0,1,243.26,259.05Z" style="fill:#263238"></path><path d="M186.4,263.7a4.14,4.14,0,0,1-4.13-4.13V236.94H183v22.63a3.38,3.38,0,1,0,6.75,0V236.94h.75v22.63A4.14,4.14,0,0,1,186.4,263.7Z" style="fill:#263238"></path><path d="M190.15,259.05a4.13,4.13,0,0,1-4.13-4.13v-18h.75v18a3.38,3.38,0,0,0,6.76,0v-18h.75v18A4.13,4.13,0,0,1,190.15,259.05Z" style="fill:#263238"></path></g><g id="freepik--serum-bag--inject-2"><path d="M296.89,448.1a3.35,3.35,0,1,0,3.35-3.36A3.35,3.35,0,0,0,296.89,448.1Z" style="fill:#263238"></path><path d="M298.5,448.1a1.74,1.74,0,1,0,1.74-1.75A1.74,1.74,0,0,0,298.5,448.1Z" style="fill:#ebebeb"></path><path d="M286.18,448.1a3.36,3.36,0,1,0,3.36-3.36A3.36,3.36,0,0,0,286.18,448.1Z" style="fill:#263238"></path><path d="M287.8,448.1a1.74,1.74,0,1,0,1.74-1.75A1.74,1.74,0,0,0,287.8,448.1Z" style="fill:#ebebeb"></path><path d="M249,448.1a3.35,3.35,0,1,0,3.35-3.36A3.35,3.35,0,0,0,249,448.1Z" style="fill:#263238"></path><path d="M250.56,448.1a1.74,1.74,0,1,0,1.74-1.75A1.74,1.74,0,0,0,250.56,448.1Z" style="fill:#ebebeb"></path><path d="M238.24,448.1a3.35,3.35,0,1,0,3.35-3.36A3.35,3.35,0,0,0,238.24,448.1Z" style="fill:#263238"></path><path d="M239.85,448.1a1.74,1.74,0,1,0,1.74-1.75A1.74,1.74,0,0,0,239.85,448.1Z" style="fill:#ebebeb"></path><path d="M246.15,443.25h-7.57v-4.89a6.11,6.11,0,0,1,6.11-6.11h9.48Z" style="fill:#c7c7c7"></path><rect x="268.69" y="97.18" width="4.45" height="335.07" transform="translate(541.83 529.44) rotate(180)" style="fill:#dbdbdb"></rect><polygon points="268.69 100.75 273.14 98.97 273.14 97.18 268.69 97.18 268.69 100.75" style="fill:#c7c7c7"></polygon><path d="M246.15,432.25H303.4a0,0,0,0,1,0,0v4.29a6.7,6.7,0,0,1-6.7,6.7H252.26a6.11,6.11,0,0,1-6.11-6.11v-4.88A0,0,0,0,1,246.15,432.25Z" transform="translate(549.55 875.5) rotate(180)" style="fill:#dbdbdb"></path><path d="M300.24,449.12h0a1.77,1.77,0,0,0,1.77-1.77v-4.1h-3.54v4.1A1.77,1.77,0,0,0,300.24,449.12Z" style="fill:#dbdbdb"></path><path d="M252.29,449.12h0a1.78,1.78,0,0,0,1.78-1.77v-4.1h-3.55v4.1A1.77,1.77,0,0,0,252.29,449.12Z" style="fill:#dbdbdb"></path><path d="M289.54,449.12h0a1.77,1.77,0,0,0,1.77-1.77v-4.1h-3.55v4.1A1.78,1.78,0,0,0,289.54,449.12Z" style="fill:#dbdbdb"></path><path d="M241.59,449.12h0a1.78,1.78,0,0,0,1.78-1.77v-4.1h-3.55v4.1A1.77,1.77,0,0,0,241.59,449.12Z" style="fill:#dbdbdb"></path><path d="M313.07,130a5.58,5.58,0,0,1-5.58-5.58v-6.8H234.34v6.8a5.58,5.58,0,1,1-11.15,0v-5.52h2v5.52a3.58,3.58,0,1,0,7.15,0v-8.8h77.15v8.8a3.58,3.58,0,1,0,7.15,0v-5.52h2v5.52A5.58,5.58,0,0,1,313.07,130Z" style="fill:#dbdbdb"></path><path d="M265.22,116.66a5.7,5.7,0,1,0,5.7-5.69A5.7,5.7,0,0,0,265.22,116.66Z" style="fill:#c7c7c7"></path><path d="M328.3,132.45v42.68a2.86,2.86,0,0,1-2.86,2.86h-26a2.86,2.86,0,0,1-2.86-2.86V132.45a2.86,2.86,0,0,1,2.86-2.86h10.28a2.74,2.74,0,0,1,5.47,0h10.28A2.86,2.86,0,0,1,328.3,132.45Z" style="fill:#dbdbdb;opacity:0.7000000000000001"></path><path d="M301.46,147.2h21.92a1.71,1.71,0,0,1,1.71,1.71v25.54a0,0,0,0,1,0,0H299.76a0,0,0,0,1,0,0V148.91A1.71,1.71,0,0,1,301.46,147.2Z" transform="translate(624.85 321.64) rotate(180)" style="fill:#263238"></path><path d="M301.46,147.2h21.92a1.71,1.71,0,0,1,1.71,1.71v25.54a0,0,0,0,1,0,0H299.76a0,0,0,0,1,0,0V148.91A1.71,1.71,0,0,1,301.46,147.2Z" transform="translate(624.85 321.64) rotate(180)" style="fill:#fff;opacity:0.7000000000000001"></path><rect x="310.91" y="177.99" width="3.02" height="5.16" transform="translate(624.85 361.14) rotate(180)" style="fill:#dbdbdb"></rect><path d="M311.27,129.59a1.15,1.15,0,1,0,1.15-1.15A1.15,1.15,0,0,0,311.27,129.59Z" style="fill:#fff"></path><path d="M290.54,294.73a25,25,0,0,1-3.62-.26,21.94,21.94,0,0,1-14.78-8.64,97.79,97.79,0,0,1-7.21-12c-4.64-8.67-9-16.86-16-16.13l-.08-.74c7.48-.77,12,7.62,16.74,16.51a95.39,95.39,0,0,0,7.16,11.95A21.19,21.19,0,0,0,287,293.73c6.69,1,12.81-1,15.9-3.3,6-4.5,9.13-17.84,9.13-38.58v-68.7h.75v68.7c0,14.63-1.64,33.3-9.43,39.18C300.73,293,296,294.73,290.54,294.73Z" style="fill:#a6a6a6"></path></g><g id="freepik--character-1--inject-2"><path d="M180.9,223.07H42.82a7.21,7.21,0,0,0-7.22,7.2V333.39A6.63,6.63,0,0,0,42.23,340H181.5a6.62,6.62,0,0,0,6.62-6.63V230.27A7.21,7.21,0,0,0,180.9,223.07Zm-94,14.8a4.51,4.51,0,0,1-4.51,4.52h-25a4.51,4.51,0,0,1-4.51-4.52v-1.64a4.51,4.51,0,0,1,4.51-4.51h25a4.51,4.51,0,0,1,4.51,4.51Zm96.38,0a4.51,4.51,0,0,1-4.51,4.52H153.7a4.51,4.51,0,0,1-4.51-4.52v-1.64a4.51,4.51,0,0,1,4.51-4.51h25.05a4.51,4.51,0,0,1,4.51,4.51Z" style="fill:#c7c7c7"></path><path d="M186.63,223.07H48.54a7.2,7.2,0,0,0-7.21,7.2V333.39A6.62,6.62,0,0,0,48,340H187.22a6.62,6.62,0,0,0,6.62-6.63V230.27A7.2,7.2,0,0,0,186.63,223.07Zm-99.75,14.8a4.51,4.51,0,0,1-4.51,4.52h-25a4.51,4.51,0,0,1-4.51-4.52v-1.64a4.51,4.51,0,0,1,4.51-4.51h25a4.51,4.51,0,0,1,4.51,4.51Zm91.87,4.52H153.7a4.51,4.51,0,0,1-4.51-4.52v-1.64a4.51,4.51,0,0,1,4.51-4.51h25.05a4.51,4.51,0,0,1,4.51,4.51v1.64A4.51,4.51,0,0,1,178.75,242.39Z" style="fill:#ebebeb"></path><path d="M86.88,236.23v1.64a4.51,4.51,0,0,1-4.51,4.52H77.7a4.52,4.52,0,0,0,4.52-4.52v-1.64a4.52,4.52,0,0,0-4.52-4.51h4.67A4.51,4.51,0,0,1,86.88,236.23Z" style="fill:#c7c7c7"></path><path d="M183.26,236.23v1.64a4.51,4.51,0,0,1-4.51,4.52h-4.67a4.52,4.52,0,0,0,4.52-4.52v-1.64a4.52,4.52,0,0,0-4.52-4.51h4.67A4.51,4.51,0,0,1,183.26,236.23Z" style="fill:#c7c7c7"></path><path d="M250.33,327.27,260,299.74c1.37-3.9,1-8.22-1-10.61L194,209c-2.25-2.76-5.56-4.18-10.06-3.48l-12.17,26.51c-2,2.85-2.22,7.26-.41,9.47l68.31,88.15C241.74,332.14,249.28,329.71,250.33,327.27ZM234,286l-48.35-59c-1-1.22-.89-3.66.23-5.24l2.54-3.58c1-1.38,2.35-1.61,3.21-.56l47.44,57.92a4.37,4.37,0,0,1,.38,4.06l-1.63,4.67C237.07,286.5,235.16,287.36,234,286Z" style="fill:#a6a6a6"></path><path d="M245.56,325.66l9.65-27.51c1.37-3.9,1-8.23-1-10.62l-65.86-80.39c-2.26-2.76-5.88-2.14-8.41,1.42l-14.66,20.69c-2,2.86-2.21,7.27-.4,9.48l73.79,90.07C240.7,331.28,244.15,329.71,245.56,325.66ZM229.89,286.1l-48.35-59c-1-1.22-.89-3.66.23-5.24l2.54-3.58c1-1.38,2.35-1.61,3.21-.56L235,275.62a4.43,4.43,0,0,1,.38,4.06l-1.64,4.67C232.92,286.61,231,287.47,229.89,286.1Z" style="fill:#c7c7c7"></path><path d="M183.44,229.4l-1.9-2.32c-1-1.22-.89-3.66.23-5.24l2.54-3.58c1-1.38,2.35-1.61,3.21-.56l1.9,2.32c-.87-1.06-2.25-.82-3.22.54l-2.54,3.59C182.54,225.73,182.44,228.17,183.44,229.4Z" style="fill:#a6a6a6"></path><polygon points="204.25 254.81 202.06 252.13 207.8 242.46 209.99 245.13 204.25 254.81" style="fill:#dbdbdb"></polygon><polygon points="204.25 254.81 205.94 256.86 211.67 247.19 209.99 245.13 204.25 254.81" style="fill:#a6a6a6"></polygon><rect x="109.99" y="291.1" width="349.93" height="42.92" style="fill:#ebebeb"></rect><polygon points="55.85 224.7 168.15 224.7 222.29 291.1 109.99 291.1 55.85 224.7" style="fill:#dbdbdb"></polygon><polygon points="55.85 224.7 109.99 291.1 109.99 334.01 55.85 267.62 55.85 224.7" style="fill:#ebebeb"></polygon><polygon points="58.3 270.66 109.99 334.01 102.28 334.01 58.3 280.56 58.3 270.66" style="fill:#a6a6a6"></polygon><rect x="118.45" y="291.1" width="341.47" height="42.92" style="fill:#263238"></rect><rect x="114.65" y="291.1" width="18.3" height="42.92" style="fill:#263238"></rect><rect x="114.65" y="291.1" width="18.3" height="42.92" style="opacity:0.1"></rect><rect x="323.29" y="291.51" width="136.63" height="42.5" style="opacity:0.1"></rect><path d="M86.45,220.77h71.34a11.71,11.71,0,0,1,9.24,4.51L182.4,245a6.64,6.64,0,0,1-5.24,10.71H105.81a11.67,11.67,0,0,1-9.23-4.51L81.21,231.48A6.64,6.64,0,0,1,86.45,220.77Z" style="fill:#ebebeb"></path><path d="M103.14,251.07h-.37a2.49,2.49,0,0,1-2-.93L84.16,229.52a2.52,2.52,0,0,1,2-4.1h.37a2.52,2.52,0,0,1,2,.93L105.1,247A2.52,2.52,0,0,1,103.14,251.07Z" style="fill:#dbdbdb"></path><path d="M125.25,330.6l9.64-27.53c1.37-3.9,1-8.22-1-10.61L69,212.35c-2.25-2.76-5.56-4.18-10.06-3.48L46.73,235.38c-2,2.85-2.22,7.26-.41,9.47L114.63,333C116.66,335.47,124.2,333,125.25,330.6ZM109,289.32l-48.34-59c-1-1.22-.9-3.66.23-5.24l2.54-3.58c1-1.38,2.35-1.61,3.21-.56L114,278.84a4.37,4.37,0,0,1,.38,4.06l-1.63,4.67C112,289.83,110.08,290.69,109,289.32Z" style="fill:#a6a6a6"></path><path d="M120.48,329l9.65-27.51c1.37-3.9,1-8.23-1-10.62L63.27,210.47c-2.26-2.76-5.88-2.14-8.41,1.42L40.2,232.58c-2,2.86-2.21,7.27-.4,9.48l73.79,90.07C115.62,334.61,119.07,333,120.48,329Zm-15.67-39.56-48.35-59c-1-1.22-.89-3.66.23-5.24l2.54-3.58c1-1.38,2.35-1.61,3.21-.56L109.88,279a4.4,4.4,0,0,1,.39,4.06l-1.64,4.67C107.84,289.94,105.93,290.8,104.81,289.43Z" style="fill:#c7c7c7"></path><path d="M58.36,232.73l-1.9-2.32c-1-1.22-.89-3.66.23-5.24l2.54-3.58c1-1.38,2.35-1.61,3.21-.56l1.9,2.32c-.87-1.06-2.25-.82-3.22.54l-2.54,3.59C57.46,229.06,57.36,231.5,58.36,232.73Z" style="fill:#a6a6a6"></path><polygon points="79.17 258.14 76.98 255.46 82.72 245.79 84.91 248.46 79.17 258.14" style="fill:#dbdbdb"></polygon><polygon points="79.17 258.14 80.85 260.19 86.59 250.51 84.91 248.46 79.17 258.14" style="fill:#a6a6a6"></polygon><path d="M304.7,365.83H73a4.46,4.46,0,0,1-4.46-4.46v-3H304.7Z" style="fill:#a6a6a6"></path><path d="M309.23,358.4H453a0,0,0,0,1,0,0v7.43a0,0,0,0,1,0,0H304.7a0,0,0,0,1,0,0v-2.9A4.53,4.53,0,0,1,309.23,358.4Z" transform="translate(757.74 724.23) rotate(180)" style="fill:#c7c7c7"></path><rect x="47.83" y="334.01" width="263.57" height="24.39" style="fill:#a6a6a6"></rect><rect x="311.41" y="334.01" width="155.45" height="24.39" transform="translate(778.27 692.42) rotate(180)" style="fill:#c7c7c7"></rect><circle cx="173.69" cy="438.75" r="12.94" style="fill:#263238"></circle><circle cx="173.69" cy="438.75" r="6.72" style="fill:#ebebeb"></circle><rect x="162.52" y="365.81" width="8.77" height="62.99" style="fill:#dbdbdb"></rect><path d="M173.77,440.63h-1a3.12,3.12,0,0,1-2.56-1.31l-7.61-10.52h8.77l4.93,6.82A3.16,3.16,0,0,1,173.77,440.63Z" style="fill:#dbdbdb"></path><rect x="220.81" y="256.62" width="8.77" height="267.1" transform="translate(615.36 164.98) rotate(90)" style="fill:#c7c7c7"></rect><rect x="398.37" y="353.3" width="8.77" height="73.73" transform="translate(792.93 -12.59) rotate(90)" style="fill:#dbdbdb"></rect><circle cx="94.04" cy="438.75" r="12.94" style="fill:#263238"></circle><circle cx="94.04" cy="438.75" r="6.72" style="fill:#ebebeb"></circle><rect x="82.87" y="365.81" width="8.77" height="62.99" style="fill:#dbdbdb"></rect><path d="M94.12,440.63h-1a3.12,3.12,0,0,1-2.56-1.31L83,428.8h8.77l4.93,6.82A3.16,3.16,0,0,1,94.12,440.63Z" style="fill:#dbdbdb"></path><circle cx="369.8" cy="438.75" r="12.94" style="fill:#263238"></circle><circle cx="369.8" cy="438.75" r="6.72" style="fill:#ebebeb"></circle><rect x="358.63" y="365.81" width="8.77" height="62.99" style="fill:#dbdbdb"></rect><path d="M369.88,440.63h-1a3.12,3.12,0,0,1-2.56-1.31l-7.61-10.52h8.77l4.93,6.82A3.16,3.16,0,0,1,369.88,440.63Z" style="fill:#dbdbdb"></path><circle cx="449.45" cy="438.75" r="12.94" style="fill:#263238"></circle><circle cx="449.45" cy="438.75" r="6.72" style="fill:#ebebeb"></circle><rect x="438.28" y="365.81" width="8.77" height="62.99" style="fill:#dbdbdb"></rect><path d="M449.53,440.63h-1a3.12,3.12,0,0,1-2.56-1.31l-7.61-10.52h8.77l4.93,6.82A3.16,3.16,0,0,1,449.53,440.63Z" style="fill:#dbdbdb"></path><path d="M457.27,254.7H319.18a7.2,7.2,0,0,0-7.21,7.2v71.49A6.62,6.62,0,0,0,318.6,340H457.86a6.62,6.62,0,0,0,6.62-6.63V261.9A7.2,7.2,0,0,0,457.27,254.7Zm-94,14.81a4.51,4.51,0,0,1-4.51,4.51H333.69a4.51,4.51,0,0,1-4.51-4.51v-1.65a4.51,4.51,0,0,1,4.51-4.51h25.05a4.51,4.51,0,0,1,4.51,4.51Zm96.37,0a4.51,4.51,0,0,1-4.51,4.51h-25a4.51,4.51,0,0,1-4.51-4.51v-1.65a4.51,4.51,0,0,1,4.51-4.51h25a4.51,4.51,0,0,1,4.51,4.51Z" style="fill:#c7c7c7"></path><path d="M463,254.7H324.9a7.2,7.2,0,0,0-7.21,7.2v71.49a6.63,6.63,0,0,0,6.63,6.63H463.59a6.62,6.62,0,0,0,6.62-6.63V261.9A7.21,7.21,0,0,0,463,254.7Zm-99.74,14.81a4.51,4.51,0,0,1-4.51,4.51H333.69a4.51,4.51,0,0,1-4.51-4.51v-1.65a4.51,4.51,0,0,1,4.51-4.51h25.05a4.51,4.51,0,0,1,4.51,4.51ZM455.11,274h-25a4.51,4.51,0,0,1-4.51-4.51v-1.65a4.51,4.51,0,0,1,4.51-4.51h25a4.51,4.51,0,0,1,4.51,4.51v1.65A4.51,4.51,0,0,1,455.11,274Z" style="fill:#dbdbdb"></path><path d="M363.25,267.86v1.65a4.51,4.51,0,0,1-4.51,4.51h-4.67a4.52,4.52,0,0,0,4.52-4.51v-1.65a4.52,4.52,0,0,0-4.52-4.51h4.67A4.51,4.51,0,0,1,363.25,267.86Z" style="fill:#c7c7c7"></path><path d="M459.62,267.86v1.65a4.51,4.51,0,0,1-4.51,4.51h-4.67a4.52,4.52,0,0,0,4.52-4.51v-1.65a4.52,4.52,0,0,0-4.52-4.51h4.67A4.51,4.51,0,0,1,459.62,267.86Z" style="fill:#c7c7c7"></path><path d="M459.6,284.18v45.08c0,1.79-1.75,3.24-3.89,3.24l-122.62.32h-.25l118.07-.31c2.16,0,3.9-1.45,3.9-3.24V284.18c0-1.87-1.75-3.41-4-3.51h4.52C457.7,280.66,459.6,282.23,459.6,284.18Z" style="fill:#a6a6a6"></path><path d="M454.81,284.18v45.08c0,1.79-1.74,3.24-3.9,3.24l-118.07.31a3.56,3.56,0,0,1-3.66-3.24V284.51c0-1.95,1.91-3.53,4.24-3.53l117.41-.31C453.06,280.77,454.81,282.31,454.81,284.18Z" style="fill:#c7c7c7"></path><polygon points="416.75 326.57 381.45 326.57 381.45 326.57 381.45 280.06 381.45 280.06 416.75 280.06 416.75 326.57" style="fill:#455a64"></polygon><rect x="384.8" y="283.04" width="28.61" height="40.54" style="fill:#fff"></rect><rect x="384.8" y="283.04" width="10.72" height="40.54" style="fill:#ebebeb"></rect><path d="M391.83,291.25a2.9,2.9,0,0,1-.83.34,2.82,2.82,0,0,1-2.19-.35,2.87,2.87,0,1,1,4.3-3.11A2.88,2.88,0,0,1,391.83,291.25Z" style="fill:#a6a6a6"></path><path d="M391.19,288.48a.87.87,0,1,1-.87-.88A.87.87,0,0,1,391.19,288.48Z" style="fill:#fff"></path><path d="M391.83,290.89v.36a2.9,2.9,0,0,1-.83.34,2.82,2.82,0,0,1-2.19-.35v-.35a1.51,1.51,0,0,1,3,0Z" style="fill:#fff"></path><rect x="397.41" y="286.47" width="7.72" height="0.53" style="fill:#ebebeb"></rect><rect x="397.41" y="287.94" width="13.34" height="0.53" style="fill:#ebebeb"></rect><rect x="397.41" y="289.42" width="10.37" height="0.53" style="fill:#ebebeb"></rect><rect x="397.41" y="292.37" width="5.98" height="0.53" style="fill:#ebebeb"></rect><rect x="397.41" y="293.85" width="10.37" height="0.53" style="fill:#ebebeb"></rect><rect x="397.41" y="295.32" width="13.34" height="0.53" style="fill:#ebebeb"></rect><rect x="397.41" y="296.8" width="7.72" height="0.53" style="fill:#ebebeb"></rect><rect x="397.41" y="299.75" width="13.34" height="0.53" style="fill:#ebebeb"></rect><rect x="397.41" y="301.22" width="9.68" height="0.53" style="fill:#ebebeb"></rect><rect x="397.41" y="302.7" width="7.19" height="0.53" style="fill:#ebebeb"></rect><rect x="397.41" y="304.18" width="12.02" height="0.53" style="fill:#ebebeb"></rect><rect x="397.41" y="307.13" width="9.68" height="0.53" style="fill:#ebebeb"></rect><rect x="397.41" y="308.6" width="13.34" height="0.53" style="fill:#ebebeb"></rect><rect x="397.41" y="311.55" width="12.02" height="0.53" style="fill:#ebebeb"></rect><rect x="397.41" y="313.03" width="7.12" height="0.53" style="fill:#ebebeb"></rect><rect x="397.41" y="314.5" width="13.34" height="0.53" style="fill:#ebebeb"></rect><rect x="397.41" y="317.45" width="9.68" height="0.53" style="fill:#ebebeb"></rect><rect x="397.41" y="318.93" width="13.34" height="0.53" style="fill:#ebebeb"></rect><rect x="397.41" y="320.41" width="12.02" height="0.53" style="fill:#ebebeb"></rect><rect x="387.45" y="293.85" width="3.54" height="0.53" style="fill:#a6a6a6"></rect><rect x="387.45" y="295.32" width="5.9" height="0.53" style="fill:#a6a6a6"></rect><rect x="387.45" y="296.8" width="4.93" height="0.53" style="fill:#a6a6a6"></rect><rect x="387.45" y="299.75" width="5.9" height="0.53" style="fill:#a6a6a6"></rect><rect x="387.45" y="301.22" width="6.27" height="0.53" style="fill:#a6a6a6"></rect><rect x="387.45" y="302.7" width="4.39" height="0.53" style="fill:#a6a6a6"></rect><rect x="387.45" y="304.18" width="5.19" height="0.53" style="fill:#a6a6a6"></rect><rect x="390.16" y="277.36" width="17.89" height="6.34" style="fill:#a6a6a6"></rect><polygon points="405.46 279.82 392.74 279.82 392.74 279.82 392.74 274.9 392.74 274.9 405.46 274.9 405.46 279.82 405.46 279.82" style="fill:#a6a6a6"></polygon><rect x="376.76" y="309.93" width="43.03" height="18.79" style="fill:#dbdbdb"></rect><path d="M125.57,190.18c-12.14,7.88-16.83,34.11-7.53,53.64,10.06,21.11,33.23,22.26,45.58,15.78,13.11-6.87,15.22-22.68,7.71-30.94-7.25-8-17.55-9.24-21.35-16.92-1.81-3.68-2.6-10.82-5-16.37C142.2,189.19,132.9,185.41,125.57,190.18Z" style="fill:#263238"></path><path d="M121,194.36a55.74,55.74,0,0,0-9,20.48,45.58,45.58,0,0,0-1,11.24,44.31,44.31,0,0,0,.65,5.63,51.76,51.76,0,0,0,1.36,5.49c2.24,7.17,6.22,14,12.14,18.75a32.06,32.06,0,0,0,9.87,5.42A32.65,32.65,0,0,0,146.18,263a32.71,32.71,0,0,1-20.57-7.54A38.42,38.42,0,0,1,113.84,237a50,50,0,0,1-1.37-5.39,42.87,42.87,0,0,1-.67-5.52,47.44,47.44,0,0,1,.83-11.09,55.69,55.69,0,0,1,3.23-10.68A57.77,57.77,0,0,1,121,194.36Z" style="fill:#263238"></path><path d="M147.26,202.55a34.91,34.91,0,0,0,1.7,6,20.25,20.25,0,0,0,3.21,5.4,16.82,16.82,0,0,0,4.93,3.94c1.85,1,3.67,1.9,5.45,3a31,31,0,0,1,9.35,7.85,18.45,18.45,0,0,1,3.75,11.5,18,18,0,0,0-.55-6.2A16,16,0,0,0,174,231a18.12,18.12,0,0,0-1.6-2.72,30.23,30.23,0,0,0-9.44-8.17c-1.8-1.06-3.67-2-5.51-2.92a17,17,0,0,1-4.8-3.71C149.87,210.5,148.38,206.52,147.26,202.55Z" style="fill:#263238"></path><path d="M142.79,238.05c5.16,14.12,16.3,30.26,22.55,35,4.57,3.47,23.83,1.35,34.57-1.34,3.33-.83,2.93-24.43-.73-24.63-4.75-.27-25.58,5.94-27.33,4.54-4.81-3.83-13-12.46-19.88-17.57C141.74,226.49,139.62,229.37,142.79,238.05Z" style="fill:#ffc4c0"></path><path d="M196.05,272.5a85.53,85.53,0,0,0,10.84,1.82c2.89.17,11.21.43,11.72-2.73.34-2.15-4.53-2.88-8-3.48-1.81-.31-4.24-1.58-4-2.75.43-2.06,5.12-1.16,8.28-.17,6.13,1.92,14.63,5.95,17.32,2.45,1-1.32-.87-2.89-3.42-4.26,3.94,1.38,8,2.32,9.2.9a1.87,1.87,0,0,0-.15-2.56,2.48,2.48,0,0,0,2.56-1c.86-1.43-.08-3-1.71-4.53a1.36,1.36,0,0,0,.86-.9c1.56-4.15-12.68-11.84-17-11.88-12.74-.13-25.35,3.83-25.35,3.83C193.35,252.09,196,272.49,196.05,272.5Z" style="fill:#ffc4c0"></path><path d="M214.54,258.74c5.09.24,9.24,1.56,14.71,4.89.1.06.22-.08.12-.16-5.05-3.75-8.15-5-14.85-5C214.19,258.43,214.23,258.73,214.54,258.74Z" style="fill:#263238"></path><path d="M217.32,252.72c9.08.93,14.51,5.67,20.48,9,.08,0,.14-.06.06-.12-5.54-3.67-9.89-8.4-20.46-9.22C217.09,252.36,217,252.69,217.32,252.72Z" style="fill:#263238"></path><path d="M220.76,247.45c7.23.78,12.12,4.81,17.55,8.54a.12.12,0,0,0,.14-.19c-5.16-4.34-10.33-8.44-17.64-8.55C220.4,247.25,220.35,247.41,220.76,247.45Z" style="fill:#263238"></path><path d="M151.86,260.21l9.42-20A165.27,165.27,0,0,0,147.33,230c-7.05-4.23-10.27-2.61-7.19,7C142.2,243.4,151.86,260.21,151.86,260.21Z" style="fill:#263238"></path><g style="opacity:0.6000000000000001"><path d="M151.86,260.21l9.42-20A165.27,165.27,0,0,0,147.33,230c-7.05-4.23-10.27-2.61-7.19,7C142.2,243.4,151.86,260.21,151.86,260.21Z" style="fill:#fff"></path></g><path d="M150.92,257.29c1.17-3,2.38-6,3.73-8.92.67-1.47,3.65-7.17,4.34-8.62,0-.08.16,0,.12.07-.68,1.86-3.38,7.64-4.06,9.1-1.35,2.92-2.73,5.49-4,8.43C151,257.44,150.89,257.37,150.92,257.29Z" style="fill:#263238"></path><path d="M161.28,240.21l-9.42,20S142.2,243.4,140.14,237c-1.39-4.32-1.5-7-.55-8.3l18.1,8.69C159.8,239,161.28,240.21,161.28,240.21Z" style="opacity:0.1"></path><path d="M150.2,247.77a1.28,1.28,0,0,1-1.28-1.28,1.59,1.59,0,0,0-1.59-1.59h-1v.31h1a1.28,1.28,0,0,1,1.28,1.28,1.59,1.59,0,0,0,1.59,1.59h.94v-.31Zm-1.85-14.86a1.28,1.28,0,0,1,0-1.81,1.39,1.39,0,0,0,.23-.31h0l-.26-.16a.91.91,0,0,1-.19.26,1.59,1.59,0,0,0,0,2.25l.67.66.22-.22Zm9.93,4.92a1.59,1.59,0,0,0-.68,1.3v1h.32v-1a1.25,1.25,0,0,1,.62-1.09Z" style="fill:#fff"></path><path d="M175,269.23,135.17,291.1s-15.9-39-10.64-55.79c2.39-7.64,7.59-9.15,13.31-7.73,1.42.35,20.5,9.78,25,16.78,3,4.68.32,11.38.32,11.38Z" style="fill:#263238"></path><path d="M175,269.23,135.17,291.1s-15.9-39-10.64-55.79c2.39-7.64,7.59-9.15,13.31-7.73,1.42.35,20.5,9.78,25,16.78,3,4.68.32,11.38.32,11.38Z" style="fill:#fff;opacity:0.6000000000000001"></path><path d="M163.8,268.14a1.28,1.28,0,0,1-1.28-1.29,1.6,1.6,0,0,0-1.59-1.59h-1v.31h1a1.29,1.29,0,0,1,1.28,1.28,1.6,1.6,0,0,0,1.59,1.6h.94v-.31Zm-37.32-16.07a1.28,1.28,0,0,1-1.28-1.28,1.59,1.59,0,0,0-1.44-1.58l0,.32a1.27,1.27,0,0,1,1.1,1.26,1.6,1.6,0,0,0,1.59,1.6h.94v-.32Zm23.72-4.3a1.28,1.28,0,0,1-1.28-1.28,1.59,1.59,0,0,0-1.59-1.59h-1v.31h1a1.28,1.28,0,0,1,1.28,1.28,1.59,1.59,0,0,0,1.59,1.59h.94v-.31Zm-12,25a1.28,1.28,0,0,1-1.28-1.28,1.6,1.6,0,0,0-1.59-1.6h-1v.31h1a1.29,1.29,0,0,1,1.28,1.29,1.59,1.59,0,0,0,1.59,1.59h.94v-.31Zm14,4.07a1.28,1.28,0,0,1,0-1.81,1.61,1.61,0,0,0,0-2.25l-.7-.71-.22.22.7.71a1.28,1.28,0,0,1,0,1.81,1.59,1.59,0,0,0,0,2.25l.66.66.22-.22Zm9.24-22.69a1.28,1.28,0,0,1,0-1.81,1.59,1.59,0,0,0,0-2.25l-.7-.7-.22.22.7.7a1.28,1.28,0,0,1,0,1.81,1.59,1.59,0,0,0,0,2.25l.67.66.22-.22ZM128.14,236a1.28,1.28,0,0,1,0-1.81,1.61,1.61,0,0,0,0-2.25l-.71-.7-.22.22.71.7a1.28,1.28,0,0,1,0,1.81,1.59,1.59,0,0,0,0,2.25l.66.67.22-.22Zm20.46-2.83h0c-.24-.15-.49-.29-.74-.43a1.27,1.27,0,0,0,.29.42l.66.67.22-.22Zm-22.31,29.65-.2-.2c0,.22.1.44.16.65a1.19,1.19,0,0,1,.18.78l.15.6a1.55,1.55,0,0,0,.17-.71A1.57,1.57,0,0,0,126.29,262.79Zm13.61-6.61-.7.7a1.28,1.28,0,0,1-1.81,0,1.59,1.59,0,0,0-2.25,0l-.66.67.22.22.66-.67a1.28,1.28,0,0,1,1.81,0,1.59,1.59,0,0,0,2.25,0l.7-.7Zm2.73,25.53v.94a1.28,1.28,0,0,1-1.28,1.28,1.59,1.59,0,0,0-1.59,1.59v1h.31v-1a1.28,1.28,0,0,1,1.28-1.28,1.59,1.59,0,0,0,1.59-1.59v-.94ZM150,259V260a1.29,1.29,0,0,1-1.28,1.28,1.6,1.6,0,0,0-1.6,1.59v1h.32v-1a1.28,1.28,0,0,1,1.28-1.28,1.59,1.59,0,0,0,1.59-1.59V259Zm-11.44-19.46v.94a1.28,1.28,0,0,1-1.28,1.28,1.6,1.6,0,0,0-1.59,1.6v1H136v-1a1.28,1.28,0,0,1,1.28-1.29,1.59,1.59,0,0,0,1.59-1.59v-.94Zm19-.48v1h.31v-.77Z" style="fill:#fff"></path><path d="M160.35,255.51a21.12,21.12,0,0,0-6.24,3.21c-1,.68-1.9,1.38-2.82,2.11s-1.93,1.58-3,2.26c-.08.05,0,.17.09.12,1-.63,2-1.22,3-1.88s1.91-1.38,2.87-2.06a34.64,34.64,0,0,1,6.11-3.65A.06.06,0,0,0,160.35,255.51Z" style="fill:#263238"></path><path d="M162.39,257.28c-2.87.37-5.38,1.82-7.88,3.18-.08.05,0,.19.06.14a30.26,30.26,0,0,1,7.84-3.16A.08.08,0,0,0,162.39,257.28Z" style="fill:#263238"></path><path d="M132.63,231.49c.38,1,6.14,6.94,10.76,6.09,1.51-.28.35-8.57.35-8.57l0-.63.75-8.84-10.95-5.09-1.57-.66s-.05,2.43-.08,5.46v.43c0,.17,0,.33,0,.49,0,.45,0,.92,0,1.38s0,.69,0,1.06,0,.72,0,1.09A58.87,58.87,0,0,0,132.63,231.49Z" style="fill:#ffc4c0"></path><path d="M131.94,219.25a17.82,17.82,0,0,0,11.85,9.13l.75-8.84-10.95-5.09-1.57-.66S132,216.22,131.94,219.25Z" style="fill:#263238"></path><path d="M152.55,202.42c6,14.35-1.86,19.59-5,20.89-2.81,1.18-12.52,4.84-20-8.8s-2.73-21,3.55-24S146.51,188.08,152.55,202.42Z" style="fill:#ffc4c0"></path><path d="M150.55,200.7c-.36.08-.7.1-1.06.15a1.79,1.79,0,0,1-1.12-.06.55.55,0,0,1-.22-.64,1.38,1.38,0,0,1,1.16-.76,2,2,0,0,1,1.43.25A.59.59,0,0,1,150.55,200.7Z" style="fill:#263238"></path><path d="M140.72,204.63a10.57,10.57,0,0,0,.91-.56c.35-.23.65-.36.83-.76a.56.56,0,0,0-.23-.63,1.35,1.35,0,0,0-1.38.15,2.07,2.07,0,0,0-1,1.1A.6.6,0,0,0,140.72,204.63Z" style="fill:#263238"></path><path d="M144,207.08s-.06.08,0,.12c.41,1,.72,2.17,0,2.84,0,0,0,.07,0,.05C145,209.52,144.57,207.94,144,207.08Z" style="fill:#263238"></path><path d="M142.74,206.39c-1.63.49-.53,3.73,1,3.28S144.12,206,142.74,206.39Z" style="fill:#263238"></path><path d="M142.17,206.78c-.23.28-.39.7-.72.85s-.8-.07-1.17-.31c0,0-.05,0,0,.06.2.62.66,1.18,1.36,1s.88-.82.82-1.49C142.41,206.8,142.25,206.67,142.17,206.78Z" style="fill:#263238"></path><path d="M149.61,204.92s.09,0,.1.07c.31,1,.82,2.13,1.84,2.16,0,0,0,0,0,.06C150.4,207.42,149.73,205.93,149.61,204.92Z" style="fill:#263238"></path><path d="M150.16,203.57c1.57-.66,2.78,2.55,1.32,3.16S148.84,204.13,150.16,203.57Z" style="fill:#263238"></path><path d="M150.9,203.53c.32.08.69.29,1,.2s.48-.55.58-1c0,0,.05,0,.07,0,.24.6.28,1.32-.26,1.65s-1.09-.06-1.47-.62C150.75,203.71,150.78,203.5,150.9,203.53Z" style="fill:#263238"></path><path d="M146.12,215.46c.26.24.53.57.91.6a2.79,2.79,0,0,0,1.13-.3,0,0,0,0,1,.05.05,1.43,1.43,0,0,1-1.33.61,1.12,1.12,0,0,1-.86-.91C146,215.45,146.08,215.42,146.12,215.46Z" style="fill:#263238"></path><path d="M149.61,210.31s.63,1.47.83,2.19c0,.07-.15.14-.39.23,0,0,0,0,0,0a3.54,3.54,0,0,1-3.68-.37.08.08,0,0,1,.09-.13,5.39,5.39,0,0,0,3.37.05c0-.22-1.16-2.49-1.05-2.53a6.57,6.57,0,0,1,1.74-.07c-1.21-3.1-2.92-6-4.08-9.09a.1.1,0,0,1,.18-.09,54.52,54.52,0,0,1,4.81,9.6C151.57,210.49,149.94,210.35,149.61,210.31Z" style="fill:#263238"></path><path d="M150,212.67a4.28,4.28,0,0,1-1.29,1.75,2,2,0,0,1-1.12.39c-.88,0-1.11-.73-1.14-1.42a4.51,4.51,0,0,1,.09-1.09A5.54,5.54,0,0,0,150,212.67Z" style="fill:#263238"></path><path d="M148.75,214.42a2,2,0,0,1-1.12.39c-.88,0-1.11-.73-1.14-1.42A2,2,0,0,1,148.75,214.42Z" style="fill:#ff99ba"></path><path d="M128.56,215.27a6.34,6.34,0,0,0,1.75-6,16.52,16.52,0,0,0,4.68-7.23c0,.33,0,2.72,0,3.95,8.66-4.77,9.18-12.77,9.18-12.77a16.79,16.79,0,0,1,6,4.52s-1.8-5.68-6-8.51c-5.1-3.47-17.54-.76-21.11,7.13C119.2,204.88,128.56,215.27,128.56,215.27Z" style="fill:#263238"></path><path d="M141.48,202.16a18.07,18.07,0,0,1-4.16,3.29s0,0,0,0a15.24,15.24,0,0,0,5.42-6.32,14.3,14.3,0,0,0,1.07-3.44,9.82,9.82,0,0,0,.07-3.93c0-.09.12-.12.15,0a11.57,11.57,0,0,1,.46,3.88,10.55,10.55,0,0,1-1,3.73,12.29,12.29,0,0,1-2,2.84" style="fill:#263238"></path><path d="M129.78,219.8a3,3,0,0,0,.74,0,2.3,2.3,0,0,0,.7-.21A2.06,2.06,0,0,0,132,219a2.56,2.56,0,0,0,.42-.61,3,3,0,0,0,.29-1l-2.1-3.7s-4.73-3.58-6.45-1.75S127,219.69,129.78,219.8Z" style="fill:#ffc4c0"></path><path d="M125.51,213.6s0,.06,0,.07c2,.14,3.38,1.45,4.55,2.9a1.45,1.45,0,0,0-2.19.29s0,.1.07.08a1.62,1.62,0,0,1,1.87,0,7.37,7.37,0,0,1,1.26,1.11c.13.13.38,0,.26-.2l0,0C130.65,215.58,127.94,213.06,125.51,213.6Z" style="fill:#263238"></path><path d="M129.78,219.11a.71.71,0,0,0,1,.28.72.72,0,1,0-1-.28Z" style="fill:#fff"></path><path d="M128,218.53a.5.5,0,1,0,.19-.69A.5.5,0,0,0,128,218.53Z" style="fill:#fff"></path><path d="M133,291.1c5,0,14.79-12,25.66-17.25s31.82-14.77,50.4-14.77c29.87,0,52.53,6.17,70.17,10.47,8.1,2,32.79,6.91,32.79,6.91V291.1Z" style="fill:#263238"></path><g style="opacity:0.1"><path d="M210.65,282.4c5.74,1,11.61.7,17.42.68,10.2-.06,20.39-.9,30.58-1.16,7.3.32,14.56,1.19,21.78,2.16l-8.72-.6c-5.78-.31-11.64-1-17.4-.53-8.73.67-17.48.92-26.24.89-5.79-.15-11.77,0-17.42-1.44Z"></path><path d="M183.81,277.54a62,62,0,0,1-10.24,7.51c-4.55,2.76-9.65,4.33-14.38,6.62-2.76,1.5-4.28,4.37-5.92,7-1.07,1.81-2,3.68-3,5.57s-1.83,3.8-2.7,5.73a77.45,77.45,0,0,1,5-11.68,23.61,23.61,0,0,1,4.74-6.5,18.53,18.53,0,0,1,4.3-2.29,82.72,82.72,0,0,0,22.17-11.92Z"></path><path d="M178,286.84a36.76,36.76,0,0,1-16.87,6.26c5.67-2.1,11.27-3.94,16.87-6.26Z"></path><path d="M215.47,276.06c6.57,2.28,13.44,2.95,20.18,4.61-6.87-.27-14.15-1.06-20.18-4.61Z"></path></g><path d="M125.68,242.05c1.26,15,7.29,40.7,13.77,45.14,4.73,3.25,33.07-3.47,43.68-6.67,3.27-1-1.87-23.28-5.53-23.31-4.76,0-27.26,7.78-28.58,6-.75-1-9.92-16.53-14.08-24C127.16,225.08,125.17,236,125.68,242.05Z" style="fill:#ffc4c0"></path><path d="M168.11,260.05s2.82-1.67,9.51-3.49c5.54-1.5,17.88-8.24,30.61,1.66,4.87,3.79,4.34,8.87-1.42,5.83-4.06-2.14-6.69-4-8.21-4.3,0,0,2.82,6.43.72,9.92a75,75,0,0,1-6.12,8.74,16,16,0,0,1-1.74-1s-4.67,4-10.35,3Z" style="fill:#ffc4c0"></path><path d="M181.93,255.82c3,.54,9.12-.83,13.87,2,5.28,3.12,14.62,10.54,12.28,14.41-1.71,2.84-5.53.32-5.53.32s3.22,3.89,1.11,6.11c-1.93,2-4.76-.09-4.76-.09s1.54,2.69-.69,4.29c-2.68,1.92-5.47-4-9.87-4.43C187.35,278.31,181.93,255.82,181.93,255.82Z" style="fill:#ffc4c0"></path><path d="M191.58,262.83a24.43,24.43,0,0,1,11,9.57c.06.11,0,.21-.07.12a60.13,60.13,0,0,0-10.94-9.64S191.55,262.82,191.58,262.83Z" style="fill:#263238"></path><path d="M188.59,268.25c2.25,1.07,7.81,5.21,10.39,10.21.06.11,0,.21-.07.12a64.72,64.72,0,0,0-10.35-10.28S188.57,268.24,188.59,268.25Z" style="fill:#263238"></path><path d="M191.52,253c6.46-.72,13.63,1.12,18,6.09a30.18,30.18,0,0,0-2.91-2.22A28.68,28.68,0,0,0,191.52,253Z" style="fill:#263238"></path><path d="M195.59,252.64c-1.29-.58-10.57.49-22,4.92-1.51.58-14.73,3.65-15.07,3.88s-4.14,8.81-3.21,14.58,4.24,10.43,4.83,10.36,21.86-5.17,22.63-5.4a16.07,16.07,0,0,0,6.73-1.76s-1.18-8.69,1.11-14.92C192.73,258.52,196.12,252.88,195.59,252.64Z" style="fill:#ebebeb"></path><path d="M176,257.37c-1,.73-6.22,7.24-6.84,14.8s1.11,11.84,1.72,11.69,4.58-1.63,4.58-1.63Z" style="fill:#ebebeb"></path><path d="M176,257.37a26,26,0,0,0-6.54,15c-.17,3.65-.26,8,1.43,11.11a.13.13,0,0,0-.09,0l.12-.05.49-.17,3.92-1.38-.23.33c.17-7.14.62-17.61.9-24.86Zm0,0c0,7.4,0,17.56-.19,24.87v.25l-.23.08-4,1.43-.63.22a.71.71,0,0,1-.69-.33c-1.87-3.49-1.63-7.74-1.45-11.56a25,25,0,0,1,7.17-15Z" style="fill:#c7c7c7"></path><path d="M185.63,253.81c-1.09-.16-8.51,2.11-9,2.47s-4,8.9-3.7,14.66,2.56,11.82,2.83,11.75,6.61-1.47,7-1.71-.35-8.48-.12-13.78S185.63,253.81,185.63,253.81Z" style="fill:#ebebeb"></path><path d="M185.63,253.81a21.89,21.89,0,0,0-4.34,1,31.36,31.36,0,0,0-4.63,1.67,34.12,34.12,0,0,0-2.69,7.82c-1.62,5.76-.33,11.82,1.64,17.34.06.11.24.6.32.71s0,.06,0,0a.36.36,0,0,0-.2-.07h-.07c1.6-.35,3.92-.89,5.52-1.27.19,0,1.16-.3,1.32-.35l.08,0c-.05,0-.12.11-.11.11.18-4.59-.41-9.3,0-13.93a55.84,55.84,0,0,1,3.2-13.05Zm0,0a61.74,61.74,0,0,0-2.73,13.08c-.28,4.73.54,9.44.21,14.18-.07.22-.44.32-.66.38l-1.09.29c-1.65.39-4,1-5.65,1.32-.28,0-.32-.18-.42-.31a35.76,35.76,0,0,1-2.52-9.58c-.78-5.79,1-11.8,3.61-16.93,1.28-.78,3.38-1.11,4.86-1.58a21.42,21.42,0,0,1,4.39-.85Z" style="fill:#c7c7c7"></path><path d="M127.53,265l15.85-15.43a165.66,165.66,0,0,0-9.49-14.45c-5.11-6.44-8.7-6-9.18,4C124.39,245.89,127.53,265,127.53,265Z" style="fill:#263238"></path><g style="opacity:0.6000000000000001"><path d="M127.53,265l15.85-15.43a165.66,165.66,0,0,0-9.49-14.45c-5.11-6.44-8.7-6-9.18,4C124.39,245.89,127.53,265,127.53,265Z" style="fill:#fff"></path></g><path d="M141.82,251.13a17.38,17.38,0,0,1,1.49-1.57c-.69-1.11-1.39-2.22-2.07-3.33-.34-.56-.67-1.13-1-1.7s-.79-1.32-1.1-1.88c-.05-.08,0-.16.11-.07.48.68.81,1.2,1.22,1.79.29.42.57.85.85,1.28,0-.13-.08-.25-.13-.38-.24-.67-.41-1.36-.69-2,0-.08.1-.13.13-.05.25.68.58,1.31.83,2a10.83,10.83,0,0,1,.54,1.54c.6.93,1.38,1.9,1.91,2.84a18.34,18.34,0,0,1-2,1.64S141.8,251.16,141.82,251.13Z" style="fill:#263238"></path><path d="M127.67,262c2.16-2.41,4.34-4.77,6.62-7,1.15-1.13,5.94-5.43,7.1-6.54.06-.06.15,0,.09.1-1.29,1.51-5.85,6-7,7.1-2.29,2.26-4.48,4.18-6.71,6.49C127.7,262.12,127.62,262,127.67,262Z" style="fill:#263238"></path><path d="M138.27,241.36a1.29,1.29,0,0,1-1,.44,1.6,1.6,0,0,0-1.59,1.6v1H136v-1a1.28,1.28,0,0,1,1.28-1.29,1.56,1.56,0,0,0,1.14-.49Zm-3.13,15.52-.66.67.22.22.66-.67a1.3,1.3,0,0,1,.67-.36h0l.31-.31A1.53,1.53,0,0,0,135.14,256.88Zm-7-20.91a1.28,1.28,0,0,1,0-1.81,1.61,1.61,0,0,0,0-2.25l-.71-.7-.22.22.71.7a1.28,1.28,0,0,1,0,1.81,1.59,1.59,0,0,0,0,2.25l.66.67.22-.22Zm-1.66,16.1a1.25,1.25,0,0,1-.84-.32c0,.14,0,.28,0,.42a1.51,1.51,0,0,0,.79.22h.94v-.32Z" style="fill:#fff"></path><path d="M129.22,263.48c-.07.06-1.75,1.77-1.76,1.77a114.38,114.38,0,0,1-2.52-20.11l.61,5c.41,3.15,1.62,11.64,2.09,14.89l-.19-.07,1.77-1.45Z" style="fill:#263238"></path><path d="M124.39,247.13c.38,1.19.65,2.37,1,3.55a6.66,6.66,0,0,1-1-3.55Z" style="fill:#263238"></path></g><g id="freepik--speech-bubble--inject-2"><path d="M190.3,173.4a19.31,19.31,0,0,1-30.82,15.5L150,191.32l3.94-8.81a19.32,19.32,0,1,1,36.35-9.11Z" style="fill:#fff"></path><path d="M190.3,173.4c.07,15.83-18.27,25.16-31,15.79l.31.06-9.45,2.49-.88.24.37-.84,3.9-8.83,0,.43a19.72,19.72,0,0,1,4.78-24.4c12.7-10.46,32-1.39,32,15.06Zm0,0c0-12.34-12-21.75-23.94-18.46-11.71,2.91-17.79,16.77-12,27.34l.11.21-.1.21-4,8.8-.51-.61,9.48-2.33.17,0,.13.1c12.53,9.5,30.53.47,30.61-15.22Z" style="fill:#263238"></path><path d="M178.51,174.2a1.7,1.7,0,1,0,1.7-1.7A1.7,1.7,0,0,0,178.51,174.2Z" style="fill:#263238"></path><path d="M169.59,174.2a1.7,1.7,0,1,0,1.7-1.7A1.7,1.7,0,0,0,169.59,174.2Z" style="fill:#263238"></path><path d="M160.67,174.2a1.7,1.7,0,1,0,1.7-1.7A1.7,1.7,0,0,0,160.67,174.2Z" style="fill:#263238"></path></g></svg>