<svg xmlns="http://www.w3.org/2000/svg" viewBox="0 0 500 500"><g id="freepik--Floor--inject-4"><path d="M45.84,444.64c130.8-.61,277.52-.62,408.32,0-130.8.62-277.52.61-408.32,0Z" style="fill:#263238"></path></g><g id="freepik--speech-bubble--inject-4"><path d="M277.38,125.72A29,29,0,0,1,229,144l-14.49,2.12,7.25-12.52a29,29,0,1,1,55.63-7.92Z" style="fill:#fff"></path><path d="M277.38,125.72a29.08,29.08,0,0,1-5.85,14.68,26.06,26.06,0,0,1-5.68,5.61,28.66,28.66,0,0,1-7,3.89,29,29,0,0,1-7.79,1.86,30.09,30.09,0,0,1-4,.08,25.86,25.86,0,0,1-4-.42,29.19,29.19,0,0,1-14.33-7.08l.35.11-14.48,2.22-1,.16.53-.92,7.21-12.55,0,.49A29.28,29.28,0,0,1,223,108a29.71,29.71,0,0,1,9.07-9.66,29.26,29.26,0,0,1,45.3,27.35Zm0,0a28.66,28.66,0,0,0-32.85-31.35,28.49,28.49,0,0,0-12,4.73,29.91,29.91,0,0,0-8.67,9.45,28.61,28.61,0,0,0-3.67,12.25,28.92,28.92,0,0,0,2,12.62l.1.26-.14.24-7.29,12.5-.52-.76,14.51-2,.2,0,.14.13a28.55,28.55,0,0,0,13.87,7.15,24.66,24.66,0,0,0,3.93.47,29.07,29.07,0,0,0,4,0,28.53,28.53,0,0,0,7.74-1.71,26.61,26.61,0,0,0,7-3.76,26.47,26.47,0,0,0,5.7-5.55A29.11,29.11,0,0,0,277.38,125.72Z" style="fill:#263238"></path><path d="M261.79,128.4a40.8,40.8,0,0,1-13.11,11.37,40.86,40.86,0,0,1-13.09-11.37c-4.62-6.1-4.39-15.66,2.21-17.72,7.3-2.29,10.88,8.69,10.88,8.69s3.64-11.05,10.89-8.69C266.15,112.82,266.4,122.3,261.79,128.4Z" style="fill:#4a6c04"></path><polygon points="248.37 113.12 245.56 124.13 248.19 124.13 246.87 129.63 248.68 129.63 247.65 135.07 250.46 128.07 248.6 128.07 250.88 122.33 248.62 122.33 251.8 113.08 248.37 113.12" style="fill:#fff"></polygon></g><g id="freepik--Character--inject-4"><rect x="85.95" y="198.49" width="328.1" height="187.43" style="fill:#dbdbdb"></rect><rect x="43.18" y="262.16" width="42.77" height="123.76" style="fill:#dbdbdb"></rect><rect x="414.05" y="262.16" width="42.77" height="123.76" style="fill:#dbdbdb"></rect><rect x="249.49" y="198.49" width="1.02" height="133.41" style="fill:#c7c7c7"></rect><rect x="85.44" y="262.16" width="1.02" height="113.89" style="fill:#c7c7c7"></rect><rect x="413.54" y="262.16" width="1.02" height="113.89" style="fill:#c7c7c7"></rect><path d="M250.52,332.42H85.44V297.61H250.52Zm-164-1.05h163V298.65h-163Z" style="fill:#c7c7c7"></path><path d="M414.56,332.42H249.48V297.61H414.56Zm-164-1.05h163V298.65h-163Z" style="fill:#c7c7c7"></path><path d="M97.1,256.05a.71.71,0,0,0,0,1.42A.71.71,0,0,0,97.1,256.05Z" style="fill:#a6a6a6"></path><path d="M98.31,342.7a.71.71,0,0,0,0,1.42A.71.71,0,0,0,98.31,342.7Z" style="fill:#a6a6a6"></path><path d="M138.93,329.17a2.12,2.12,0,0,0-.11-.21.32.32,0,0,0-.55,0,2.12,2.12,0,0,0-.11.21C137.76,330,139.33,330,138.93,329.17Z" style="fill:#a6a6a6"></path><path d="M68.23,344.49c0-.07-.07-.15-.11-.21a.32.32,0,0,0-.55,0,.84.84,0,0,0-.11.21C67.05,345.33,68.63,345.33,68.23,344.49Z" style="fill:#a6a6a6"></path><path d="M103.19,260.37a.54.54,0,0,0,0,1.08A.54.54,0,0,0,103.19,260.37Z" style="fill:#a6a6a6"></path><path d="M324.3,278a.54.54,0,0,0,0,1.08A.54.54,0,0,0,324.3,278Z" style="fill:#a6a6a6"></path><path d="M57.7,315.3a.54.54,0,0,0,0,1.08A.54.54,0,0,0,57.7,315.3Z" style="fill:#a6a6a6"></path><path d="M128.73,230.19a.75.75,0,0,0-1.06,0,1,1,0,0,0-.25,1,.82.82,0,0,0,1.57,0A1.06,1.06,0,0,0,128.73,230.19Z" style="fill:#a6a6a6"></path><path d="M104.25,338.7a.75.75,0,0,0-1.06,0,1,1,0,0,0-.26,1,.82.82,0,0,0,1.57,0A1,1,0,0,0,104.25,338.7Z" style="fill:#a6a6a6"></path><path d="M384.35,344.58a.71.71,0,0,0,0-1.41A.71.71,0,0,0,384.35,344.58Z" style="fill:#a6a6a6"></path><path d="M237.47,346a.71.71,0,0,0,0-1.42A.71.71,0,0,0,237.47,346Z" style="fill:#a6a6a6"></path><path d="M380.28,232.06a.71.71,0,0,0,0-1.41A.71.71,0,0,0,380.28,232.06Z" style="fill:#a6a6a6"></path><path d="M202.26,251.46a.71.71,0,0,0,0-1.42A.71.71,0,0,0,202.26,251.46Z" style="fill:#a6a6a6"></path><path d="M332.09,271.46a1.51,1.51,0,0,0,.11.22.33.33,0,0,0,.55,0,1.51,1.51,0,0,0,.11-.22C333.26,270.62,331.69,270.62,332.09,271.46Z" style="fill:#a6a6a6"></path><path d="M268.21,339.31a.91.91,0,0,0,.11.22.33.33,0,0,0,.55,0c0-.07.07-.14.11-.22C269.38,338.47,267.8,338.47,268.21,339.31Z" style="fill:#a6a6a6"></path><path d="M437.8,326.49a1.51,1.51,0,0,0,.11.22.33.33,0,0,0,.55,0c0-.07.07-.14.11-.22C439,325.66,437.39,325.66,437.8,326.49Z" style="fill:#a6a6a6"></path><path d="M378.26,340.27a.55.55,0,0,0,0-1.09A.55.55,0,0,0,378.26,340.27Z" style="fill:#a6a6a6"></path><path d="M423.76,285.34a.54.54,0,0,0,0-1.08A.54.54,0,0,0,423.76,285.34Z" style="fill:#a6a6a6"></path><path d="M427.61,357.89a.55.55,0,0,0,0-1.09A.55.55,0,0,0,427.61,357.89Z" style="fill:#a6a6a6"></path><path d="M342.29,370.45a.75.75,0,0,0,1.06,0,1.06,1.06,0,0,0,.26-1,.83.83,0,0,0-1.58,0A1.06,1.06,0,0,0,342.29,370.45Z" style="fill:#a6a6a6"></path><path d="M377.21,261.94a.75.75,0,0,0,1.06,0,1.06,1.06,0,0,0,.26-1,.83.83,0,0,0-1.58,0A1.06,1.06,0,0,0,377.21,261.94Z" style="fill:#a6a6a6"></path><path d="M180.65,296.64a.75.75,0,0,0,1.06,0,1,1,0,0,0,.25-1,.82.82,0,0,0-1.57,0A1.06,1.06,0,0,0,180.65,296.64Z" style="fill:#a6a6a6"></path><path d="M442,319.45a.75.75,0,0,0,1.06,0,1,1,0,0,0,.26-1,.82.82,0,0,0-1.57,0A1,1,0,0,0,442,319.45Z" style="fill:#a6a6a6"></path><path d="M86.46,331.47a360.75,360.75,0,0,0,81.46,9.74,393.89,393.89,0,0,0,82.59-9.31Z" style="fill:#c7c7c7"></path><path d="M250,331.47a360.75,360.75,0,0,0,81.46,9.74,393.89,393.89,0,0,0,82.59-9.31Z" style="fill:#c7c7c7"></path><rect x="43.18" y="376.05" width="413.64" height="9.87" style="fill:#4a6c04"></rect><rect x="43.18" y="376.05" width="413.64" height="9.87" style="opacity:0.4"></rect><polygon points="71.15 444.64 79.52 444.64 89.12 415.19 98.68 385.89 77.35 385.89 74.26 415.19 71.15 444.64" style="fill:#4a6c04"></polygon><g style="opacity:0.4"><polygon points="71.15 444.64 79.52 444.64 89.12 415.19 98.68 385.89 77.35 385.89 74.26 415.19 71.15 444.64"></polygon></g><polygon points="76.23 396.52 96.26 393.31 98.68 385.89 77.35 385.89 76.23 396.52" style="opacity:0.1"></polygon><polygon points="427.08 444.64 418.72 444.64 409.11 415.19 399.55 385.89 420.89 385.89 423.97 415.19 427.08 444.64" style="fill:#4a6c04"></polygon><g style="opacity:0.4"><polygon points="427.08 444.64 418.72 444.64 409.11 415.19 399.55 385.89 420.89 385.89 423.97 415.19 427.08 444.64"></polygon></g><polygon points="422 396.52 401.97 393.31 399.55 385.89 420.88 385.89 422 396.52" style="opacity:0.1"></polygon><path d="M194.67,128s-11.86-6.46-22.4,0-15.55,22.38-13.74,35.74-9.25,22.18-10.44,32.11,5.42,14.52,7.63,19.73c2.55,6-7.63,27.14,18.27,32.05,32.39,6.15,44.78-13.49,41.48-29.72-1.62-8-6.16-13.6-6.07-20s4.69-11.56,2.29-19.72-5.6-7-6.91-19.86S206.14,130.17,194.67,128Z" style="fill:#263238"></path><path d="M174.51,127.68a39.73,39.73,0,0,0-15.31,18.16,36.44,36.44,0,0,0-2.75,11.63c-.33,5.22.48,10.1-1.49,15.17-3.16,8.11-9.47,14.88-9.17,23.92a22.09,22.09,0,0,0,3.9,11.79c2.8,4.08,6.78,7.31,9.13,11.68.09.18.38,0,.29-.16-2-3.88-5.12-6.85-7.76-10.33a22.5,22.5,0,0,1-4.78-14.21c.25-8.59,6.47-15.19,9.38-23,1.32-3.55,1.4-7,1.28-10.7a38.55,38.55,0,0,1,1.68-12.92,41.8,41.8,0,0,1,15.7-20.9C174.67,127.74,174.58,127.64,174.51,127.68Z" style="fill:#263238"></path><path d="M160.89,225.25s0,.06,0,.06A0,0,0,0,0,160.89,225.25Z" style="fill:#263238"></path><path d="M215.35,215.6c-.81-3.84-2.85-7.33-3.66-11.15-1-4.61.2-9.2,1.09-13.72,1.27-6.46,1.13-12.56-1.76-18.63-1.87-3.93-4.15-7.61-5.54-11.75A47.89,47.89,0,0,1,203,146.48c0-.1-.17-.1-.17,0a43.67,43.67,0,0,0,4.33,19.79c1.77,3.63,4,7,5,11,1.22,4.71.75,9.26-.09,14a54,54,0,0,0-1.2,9.54c0,3.34,1.09,6.29,2.29,9.4a32.63,32.63,0,0,1-.14,24.36c-.06.14.19.24.25.1A30.94,30.94,0,0,0,215.35,215.6Z" style="fill:#263238"></path><path d="M147.22,194.69c.29-7.07,5.29-11.88,8.33-18,2.29-4.64,3.85-9.59,3.09-14.69,0-.09-.17-.07-.16,0,.39,7.39-2.76,14.09-6.91,20.28-2.76,4.11-5,8.07-5.07,13s1.94,8.94,4.75,13c2,2.86,4,5.53,4.81,8.91s.65,6.9.48,10.32c0,.17.29.17.3,0,.48-5.3.56-10.44-2.15-15.28C151.37,206.27,146.93,201.88,147.22,194.69Z" style="fill:#263238"></path><path d="M216.6,210.58a43.67,43.67,0,0,0-4.13-6.86c-2.75-4-3.2-7.2-2.29-11.93,0-.1-.15-.15-.18,0-1.32,3.89-1.63,7.12.71,10.71,3.27,5,6.47,9.55,7.14,15.52,1.19,10.6-4.88,20.48-14.73,25.85-.13.07,0,.26.13.19,8.26-4,14.06-11.26,15.26-19.82A25,25,0,0,0,216.6,210.58Z" style="fill:#263238"></path><path d="M404.94,464.06c-2.85.94-86.63.47-89.72-1.53-.39-.24.23-8.8-.05-20.25-.09-3.75-21.92-59.52-21.92-59.52l52.42.17,22.21,52.76s31.13,14.14,34.3,16.69S407.8,463.13,404.94,464.06Z" style="fill:#d3766a"></path><path d="M404.94,464.06c-2.85.93-86.63.46-89.72-1.53-.37-.23-.41-8.07-.29-18.78,15.23,2.3,70.41,9.76,74.59,7.2,2.92-1.77.27-4.43-2.17-6.21,7,3.33,13.48,6.55,14.84,7.64C405.33,454.92,407.79,463.13,404.94,464.06Z" style="fill:#263238"></path><path d="M369.22,424.54l-63.2,2s-52.47-95.4-56.47-99.41c-9.08-9.09-82.25-22.29-101.84-41.76C127,264.79,136,238.73,136,238.73h56.81s-.62,12.54,2.26,13.43c31.25,9.72,88.36,32.2,101.88,44.15C321.24,317.75,369.22,424.54,369.22,424.54Z" style="fill:#37474f"></path><path d="M307.79,414.17a26.83,26.83,0,0,1,4.73-.5l4.88-.26,9.94-.47c6.62-.3,13.24-.55,19.87-.66,3.74-.07,7.47,0,11.21.08.14,0,.14.22,0,.23-13.24,1.19-26.48,1.55-39.76,1.86-1.8.05-3.61.08-5.42.12a31,31,0,0,1-5.45-.15C307.67,414.4,307.67,414.2,307.79,414.17Z" style="fill:#263238"></path><path d="M138.48,254.22c2.42,6.11,4.91,12.26,8.41,17.86a41,41,0,0,0,14,13.83c6,3.56,12.74,5.81,19.32,8.12q11.1,3.92,22.27,7.64t22.4,7.26q5.65,1.79,11.33,3.52c3.55,1.08,7.15,2,10.65,3.27a21.31,21.31,0,0,1,8.27,5.28c7.91,8,38.54,65.51,47.45,79.23,1.07,1.64,5.5,9.71,6.63,11.31.08.1-.11.24-.18.13-9.55-12.72-49.57-83.1-52-86.26-2.11-2.77-4.2-5.49-7.33-7.16s-6.9-2.54-10.36-3.58Q233.66,313,228,311.2q-11.33-3.51-22.6-7.22t-22.29-7.57c-6.65-2.33-13.42-4.51-19.7-7.74a40.37,40.37,0,0,1-14.77-12.42c-3.76-5.32-6.34-11.34-8.64-17.4-.58-1.52-1.14-3-1.7-4.56C138.25,254.18,138.44,254.11,138.48,254.22Z" style="fill:#263238"></path><path d="M287.32,472.05c-2.88.9-86.81-.91-89.88-3-1.18-.75,3.21-80.28,3.21-80.28l52.53,1L250.63,443s31,14.67,34.11,17.27S290.19,471.17,287.32,472.05Z" style="fill:#d3766a"></path><path d="M287.32,472.05c-2.87.9-86.81-.92-89.87-3-.38-.23-.29-8.09,0-18.82,15.22,2.55,70.39,10.9,74.62,8.41,2.95-1.73.34-4.44-2.07-6.27,6.93,3.46,13.4,6.79,14.74,7.9C287.85,462.9,290.19,471.17,287.32,472.05Z" style="fill:#263238"></path><path d="M255.68,434.74l-61.47-.44s3-99.65.18-107.1S146.7,304.14,132.79,292c-22-19.24-2.43-53.22-2.43-53.22l55.95,0s1.15,15.6-2.81,26.15c0,0,55.55,20.71,65.23,39.62C259.06,324.69,255.68,434.74,255.68,434.74Z" style="fill:#37474f"></path><path d="M167.55,266.16a74.23,74.23,0,0,1,15.86-1.87,111.87,111.87,0,0,1,16.16.8.12.12,0,0,1,0,.23c-5.34.18-10.68.47-16,.76s-10.61.73-15.93.73A.33.33,0,0,1,167.55,266.16Z" style="fill:#263238"></path><path d="M130.56,247.83c.47-1.65,1-3.3,1.45-4.94.05-.2.36-.11.31.09-3.39,12.23-7.07,26.4-.25,38.18,3.11,5.38,8.29,8.8,13.71,11.56,6.21,3.15,12.58,6,18.88,9,6.56,3.11,13.11,6.26,19.66,9.4,3,1.44,6.09,2.83,9.07,4.36a17.53,17.53,0,0,1,6.43,5c1.73,2.39,2.24,5.33,2.53,8.2.36,3.47.62,6.95.87,10.42.52,7.23-.3,63.33-1.51,77.71-.15,1.77-.4,1.78-.31,0,.26-5.46.33-10.95.39-16.41.08-7.24.78-49,.37-56.2-.21-3.61-.45-7.23-.73-10.84-.24-3.21-.28-6.63-1.35-9.7a12.15,12.15,0,0,0-5.79-6.34c-2.87-1.65-6-2.95-8.95-4.37q-9.76-4.62-19.53-9.26c-6.38-3.05-12.79-6.05-19.14-9.18-5.29-2.62-10.58-5.68-14.09-10.57C125,273.35,127.24,259.5,130.56,247.83Z" style="fill:#263238"></path><path d="M132.58,258.89a41.29,41.29,0,0,0,7.38-1.67,10.7,10.7,0,0,0,5.28-2.81c2.82-3,4-7.16,6.18-10.6a.12.12,0,0,1,.21.1,51.49,51.49,0,0,1-2.06,7,14.74,14.74,0,0,1-3.11,5.31c-3.5,3.64-9.27,3.18-13.89,3.11A.24.24,0,0,1,132.58,258.89Z" style="fill:#263238"></path><path d="M185.83,265.55A244.1,244.1,0,0,1,229.6,286.6c5.65,3.48,11.2,7.49,15.43,12.66a32.17,32.17,0,0,1,5.12,8.6A43.68,43.68,0,0,1,252.67,319c.51,4.46.87,8.94,1.12,13.42.26,4.74.19,9.48.42,14.21,0,.15-.23.14-.24,0-.15-4.07-.69-8.16-1.1-12.22s-.82-8.1-1.3-12.15c-.85-7.23-2.18-14.33-6.55-20.34-3.86-5.31-9.2-9.37-14.68-12.89-6.24-4-12.73-7.67-19.3-11.11-7.78-4.08-17.29-8.42-25.37-11.87C185.36,265.94,185.49,265.43,185.83,265.55Z" style="fill:#263238"></path><path d="M197.29,423.08a28.31,28.31,0,0,1,4.87-.38l5-.13,10.2-.22c6.8-.13,13.6-.21,20.4-.15,3.83,0,7.66.2,11.48.37a.12.12,0,1,1,0,.23c-13.6.84-27.19.87-40.81.84-1.86,0-3.71,0-5.56,0a32.58,32.58,0,0,1-5.59-.28A.13.13,0,0,1,197.29,423.08Z" style="fill:#263238"></path><path d="M190.59,241.05c-.27,3.38-.46,6.77-.87,10.14-.19,1.59-.34,3.2-.65,4.77a3.1,3.1,0,0,1-.86,1.82,3.89,3.89,0,0,1-2,.69,2.22,2.22,0,0,1-2.75-2.16c-.29-3.08.62-13.79.64-14.67,0-.17-.57-.18-.59,0-.83,6.76-1.94,15.37-.52,16.84a4.52,4.52,0,0,0,5.88.41,4.23,4.23,0,0,0,1.28-2.75c.22-1.47.29-3,.4-4.47.26-3.53.57-7,.64-10.6C191.15,240.75,190.61,240.73,190.59,241.05Z" style="fill:#263238"></path><path d="M184.43,259.55a10.91,10.91,0,0,0-.26,1.29c-.09.43-.18.86-.29,1.28s-.2.86-.31,1.28-.18.86-.28,1.28a.17.17,0,0,0,.31.11,11.45,11.45,0,0,0,.52-1.2c.14-.43.28-.86.39-1.3s.22-.85.31-1.28a6.83,6.83,0,0,0,.23-1.34A.33.33,0,0,0,184.43,259.55Z" style="fill:#263238"></path><path d="M181.63,185.8c3.05,13.74,20.25,59.49,31.74,63,8.53,2.62,15.26-4.81,15.76-13.92.43-7.93-26.47-40.61-34.08-49.68C187.8,176.59,178.64,172.29,181.63,185.8Z" style="fill:#d3766a"></path><path d="M192.4,223.27,210.84,200s-14.78-16.2-24.22-22.91c-5.29-3.75-7.31-.54-6.55,5.27C182.74,202.72,192.4,223.27,192.4,223.27Z" style="fill:#4a6c04"></path><path d="M206.53,197.94c-3.13,3.34-11.36,12.64-15.93,19.39,0,0,.12.16.15.13,4.64-5,13.16-15.74,16-19.34C206.8,198.05,206.59,197.88,206.53,197.94Z" style="fill:#263238"></path><path d="M207.4,204.38l-15,18.89s-9.66-20.55-12.33-40.88c-.38-2.93-.06-5.19,1-6.24Z" style="opacity:0.1"></path><path d="M195.07,251.71l-2-27.54s7.59-8.78,5.69-16.52c-1-3.92-11.3-27.66-16.56-33.3-4.94-5.29-14.29-2.64-17.89.21-20,15.8-29.66,38-40.69,73.4Z" style="fill:#4a6c04"></path><path d="M183.71,219.59a66.29,66.29,0,0,0-9.85.78c-1.62.27-3.21.61-4.8,1-.8.19-1.59.36-2.39.51a9.88,9.88,0,0,1-2.54.26.06.06,0,0,0,0,.12,17.63,17.63,0,0,0,2.41.16,18.22,18.22,0,0,0,2.33-.24c1.65-.26,3.28-.6,4.91-.87,3.31-.56,6.62-1.12,10-1.44C183.88,219.85,183.86,219.59,183.71,219.59Z" style="fill:#263238"></path><path d="M191.55,223.17a70.9,70.9,0,0,0-8.08-1.07c-1.36-.1-2.71-.12-4.07-.1-.65,0-1.3,0-2,.05s-1.43.16-2.14.18c-.08,0-.09.11,0,.11.67,0,1.35.12,2,.16l2,.12c1.36.08,2.71.17,4.07.24,2.71.14,5.41.3,8.11.53C191.68,223.41,191.69,223.2,191.55,223.17Z" style="fill:#263238"></path><path d="M165.69,229.87c-5,7.21,0,14.29,7.71,16.71,8.71,2.73,19.1-1.67,19.51-9.17.23-4.17-1.44-6.95-4.07-8.33-3.61-1.9-6.08-1-9.63-1.4C175.89,227.31,169.09,225,165.69,229.87Z" style="fill:#fff"></path><path d="M187.13,238c0,1.61-2.73,3.46-4.07,3.52a2.26,2.26,0,0,1-.37,0,2.43,2.43,0,0,0-1.13.18,8.93,8.93,0,0,1-8.26-1c-1-1-.69-3.55.08-4.81s3.23-1.58,5.4-.2a.74.74,0,0,0,.94-.2,6.11,6.11,0,0,1,4.55-1.66C185.63,234,187.15,236,187.13,238Z" style="fill:#4a6c04"></path><path d="M177.68,236.65l-.32-.12a11.91,11.91,0,0,0,.64-3.07c.11-1.61-1.7-2-2.9-2.3a.9.9,0,0,1-.62-.45c-.47-.81,0-2.39.43-3.73l.3,0c-.37,1.22-.83,2.84-.44,3.53a.63.63,0,0,0,.4.29c1.23.28,3.29.75,3.16,2.64A12.59,12.59,0,0,1,177.68,236.65Z" style="fill:#4a6c04"></path><rect x="177.34" y="231.67" width="2.74" height="11.68" transform="translate(220.3 -56.8) rotate(45)" style="fill:#263238"></rect><rect x="177.34" y="231.67" width="2.74" height="11.68" transform="translate(-115.6 195.94) rotate(-45)" style="fill:#263238"></rect><path d="M156.51,179.88c-25.41,14.28-51.59,45.62-52.29,54.81-1.31,17.13,20,11.65,21.36,10.58,9.36-7.62,31.56-41.13,41.9-59.24S162.79,176.35,156.51,179.88Z" style="fill:#d3766a"></path><path d="M129.11,197.25l27.62,10.83s11.17-18.86,14.83-29.85c2.05-6.15-1.61-7.15-6.95-4.72C145.94,182,129.11,197.25,129.11,197.25Z" style="fill:#4a6c04"></path><path d="M157.47,203.36c-4.11-2-15.42-7.17-23.21-9.56,0,0-.12.15-.07.17,6.17,3,18.9,8,23.17,9.64C157.44,203.64,157.55,203.4,157.47,203.36Z" style="fill:#263238"></path><path d="M153.36,206.76c1.16.35,2.31.72,3.45,1.12l-.28.09c1.47-2.95,3-5.85,4.66-8.71s3.32-5.69,5.14-8.45c-1.37,3-2.89,5.93-4.46,8.83s-3.22,5.75-5,8.55l-.11.18-.16-.08C155.54,207.8,154.45,207.3,153.36,206.76Z" style="fill:#263238"></path><path d="M163.21,196.61a9.1,9.1,0,0,1,1.34-1.61,13.29,13.29,0,0,1,1.61-1.36,3.5,3.5,0,0,1-.53.92,6.59,6.59,0,0,1-.7.79A6.82,6.82,0,0,1,163.21,196.61Z" style="fill:#263238"></path><path d="M104.29,238.17c.42,6.78,6.85,10.31,29.52,19,4,1.52,20.4-24.66,16.15-26.28-5.35-2-17.58-7.06-19.19-7.36C117.16,221,104,232.92,104.29,238.17Z" style="fill:#d3766a"></path><path d="M133.81,257.18c10.26,3.74,22.8,9,34.91,6.78a6.13,6.13,0,0,0,3.52-1.88c5.45-.91,6.65-3.75,6.65-3.75,4.43-2.11,3.66-5.5,3.66-5.5a3.64,3.64,0,0,0,1-4.54c-.85-1.68-5.17-1.26-10.75-3.41-12.74-4.92-27.26-14.12-31-15.59Z" style="fill:#d3766a"></path><path d="M159.51,249.83a78.61,78.61,0,0,0,10.86,2.68,77.44,77.44,0,0,0,12.18.32.11.11,0,0,1,0,.21,41,41,0,0,1-23.1-3C159.3,249.93,159.33,249.78,159.51,249.83Z" style="fill:#263238"></path><path d="M156.08,257.45c3.85.8,10.63,2.17,22.8.75,0,0,.06.06,0,.07a41.89,41.89,0,0,1-22.86-.64C155.8,257.56,155.82,257.4,156.08,257.45Z" style="fill:#263238"></path><path d="M154.3,261.58c6.6,1.12,10.91,1,17.91.47,0,0,.06.06,0,.07-7.9,1.42-10.92,1-18-.32C154,261.76,154,261.54,154.3,261.58Z" style="fill:#263238"></path><path d="M159.81,238.85c-1.49-1.22-.86-2,2.56-1.93s13.28,4.68,14-.1-14.73-10.44-20.43-10.13-14.8,2.79-14.8,2.79C144.68,231.05,152.9,235.68,159.81,238.85Z" style="fill:#d3766a"></path><path d="M141.88,227.87c-2.25-.67-5.33-1.69-7.56-2.31A31.37,31.37,0,0,0,111.47,227a31.82,31.82,0,0,1,3.51-1.87c9.12-4.07,18.4-1.54,26.9,2.73Z" style="fill:#263238"></path><path d="M214.38,249.14c-7.52-3.4-6.54-11.1-8.58-36.82-.36-4.51,28.73-19.06,30.41-14.52,2.1,5.72-.41,24.11-1.54,31.5C232.44,243.87,223.16,253.12,214.38,249.14Z" style="fill:#d3766a"></path><path d="M235.68,215.31c1.82-7.92,3.69-19.23,1.84-22.46s-9.27-15-11.85-17.16S211.8,163.5,208.84,164c-2.37.38-2,6.36,3.34,11.2,4.71,4.25,6.79,7.34,8.11,8.62s3.24,8,1.3,9.91c-1.14,1.12-5.7,1.21-7.74-.84s-.79-7.15-2.73-10.52-7-5-7.81-3.74.61,2.48,1.42,8c.51,3.54-2,10.61-.26,17.06.89,3.23,1.57,11.2,1.57,11.2Z" style="fill:#d3766a"></path><path d="M209.28,179.28a5.29,5.29,0,0,1-2-2.05,2.19,2.19,0,0,1-.17-1.21,2,2,0,0,1,.22-.64c.1-.18.26-.45.47-.51s0-.11,0-.06-.24.13-.34.21a.92.92,0,0,0-.25.23,1.52,1.52,0,0,0-.34.57,2.16,2.16,0,0,0,0,1.44,3.61,3.61,0,0,0,2.44,2.09S209.32,179.31,209.28,179.28Z" style="fill:#263238"></path><polygon points="187.95 179.5 199.88 180.87 221.66 182.86 222.11 178.94 200.47 175.78 188.53 174.4 187.95 179.5" style="fill:#ebebeb"></polygon><polygon points="188.53 174.41 187.95 179.5 199.88 180.87 221.66 182.86 222.11 178.94 200.47 175.78 188.53 174.41" style="fill:#ebebeb"></polygon><path d="M188.54,174.4l-.59,5.1,11.93,1.37c1.88-1.58.59-5.09.59-5.09Z" style="fill:#455a64"></path><path d="M237.52,192.85c-1-4.67-4.51-13.77-9.69-18.41-3.5-3.13-20.23-1.64-20.85,1.22s1.79,3.78,5.52,4.71c1.36.34,9.18.49,9.8,2.38.9,2.71.34,10.61.34,10.61Z" style="fill:#d3766a"></path><path d="M207.73,174.74c2.85-2.23,7.27-2.31,11.54-2.07a.05.05,0,1,1,0,.1c-1.09-.06-8.39.43-11.51,2C207.72,174.82,207.7,174.76,207.73,174.74Z" style="fill:#263238"></path><path d="M237.52,192.85c-1-4.67-4.51-13.77-9.69-18.41-3.5-3.13-18,1.41-18.63,4.26s2.76,4.39,7.1,4.51c1.4,0,6.66-1.3,7.28.59.9,2.72,3,9.43,3,9.43Z" style="fill:#d3766a"></path><path d="M225.47,189.14c-.16-.74-.21-1-.38-1.74s-.36-1.46-.58-2.18a6,6,0,0,0-.76-1.82,2.85,2.85,0,0,0-1.56-1,10.11,10.11,0,0,0-4.27.22c-1.53.24-4.59.42-6.5-.56a4.12,4.12,0,0,1-1.42-1,2.67,2.67,0,0,1-.65-1.12c-.31-1.79,1.41-3.06,3-3.82a27.39,27.39,0,0,1,9.48-2.28c.79-.07,1.57-.12,2.36-.17a6.25,6.25,0,0,1,2.68.23c1.39.52,3.13,2.79,3.67,3.49,0,0,.12,0,.08-.08-.65-.85-2.11-3.39-4.39-4.13a7.48,7.48,0,0,0-2.63-.1c-.91,0-1.81.11-2.72.2a34.45,34.45,0,0,0-5.23.9,13.94,13.94,0,0,0-4.74,2,4.14,4.14,0,0,0-1.77,3.9,3.63,3.63,0,0,0,2,2.29,6.85,6.85,0,0,0,1.77.66,29.52,29.52,0,0,0,4.26.34c1.4,0,2.81-.42,4.2-.32a2.46,2.46,0,0,1,1.77.8,6.84,6.84,0,0,1,.88,1.75,20.37,20.37,0,0,1,1.24,3.54C225.32,189.46,225.54,189.45,225.47,189.14Z" style="fill:#263238"></path><path d="M238,196.81c-.2-2.13,1.13-10.06.57-12.86s-4.08-13.09-7.24-13.9c-4-1-2.62,7.35-1.7,10.94s-1.25,8.26-1.25,8.26Z" style="fill:#d3766a"></path><path d="M228.67,175.24a36.8,36.8,0,0,1,.87,3.59,24.32,24.32,0,0,1,.64,3.45,10.76,10.76,0,0,1-.46,3.43c-.15.55-.33,1.08-.53,1.61s-.49,1.15-.7,1.74c0,.06-.12,0-.1,0a27.15,27.15,0,0,0,.79-3.32,14.25,14.25,0,0,0,.24-3.51c-.13-2.33-.75-4.61-.9-6.94C228.51,175.16,228.65,175.16,228.67,175.24Z" style="fill:#263238"></path><path d="M228.06,190c-1.31,3.66-4.54,6.41-7.77,8.38a19.14,19.14,0,0,0-7.71,8.2,16.59,16.59,0,0,1,7.4-8.7c3.2-2,6.35-4.47,8.08-7.88Z" style="fill:#263238"></path><path d="M205.19,207.4c.4,2.24.74,4.47,1.05,6.71.43,6.87.88,16.54,1.54,23.3-2.13-9.9-1.71-20-2.59-30Z" style="fill:#263238"></path><path d="M170.52,175c.11,1.28,4.63,12.21,11.39,11.94,2.85-.11,2.42-11.09,2.42-11.09l4.13-10.79-12.69-10.94S170.48,174.46,170.52,175Z" style="fill:#d3766a"></path><path d="M188.46,165.06l-4,10.47a23,23,0,0,1-10.66-13.76l2-7.65Z" style="fill:#263238"></path><path d="M205.42,153.17c-2.32,18.79-13.83,19.52-17.88,19-3.68-.46-16.14-2.48-15.78-21.4s9.83-23.78,18.29-23.18S207.73,134.39,205.42,153.17Z" style="fill:#d3766a"></path><path d="M201.11,157.79c0,.22,0,.52-.13.66s-.48.27-.61.4a.71.71,0,0,0-.42.65c0,.39.25,1-.06,1s-.16-.57-.17-.75.08-.69-.07-.85-.52-.25-.56-.49,0-.35-.1-.49-.22-.25-.2-.43a.48.48,0,0,1,.15-.31s.38,1.05.93,1.05A2.82,2.82,0,0,0,201.11,157.79Z" style="fill:#fff;opacity:0.5"></path><path d="M190.68,156.12a.57.57,0,0,1-.39.65.69.69,0,0,0-.55.21c-.2.2-.3.37-.5.4s-.25.31-.33.66a10.27,10.27,0,0,0-.08,2.33c.1.26.1.76-.28.76s-.09-1.17,0-1.43a20.61,20.61,0,0,0,.09-2.51c-.06-.32-.19-.44-.21-.68s.13-.32,0-.49-.32-.17-.26-.46a.53.53,0,0,1,.34-.37s.31.84.69,1A5.34,5.34,0,0,0,190.68,156.12Z" style="fill:#fff;opacity:0.5"></path><path d="M203.18,152.3a8.87,8.87,0,0,0-1-.8,2,2,0,0,0-1.2-.62.67.67,0,0,0-.63.52,1.68,1.68,0,0,0,.76,1.51,2.45,2.45,0,0,0,1.65.62A.72.72,0,0,0,203.18,152.3Z" style="fill:#263238"></path><path d="M189.13,150.36c.43-.14.84-.21,1.27-.31a2.09,2.09,0,0,1,1.35-.08.68.68,0,0,1,.36.74,1.66,1.66,0,0,1-1.31,1.07,2.43,2.43,0,0,1-1.76-.11A.72.72,0,0,1,189.13,150.36Z" style="fill:#263238"></path><path d="M191.42,154.1s-.11,0-.12.09c-.21,1.27-.65,2.69-1.88,2.89,0,0,0,.07,0,.08C190.85,157.23,191.43,155.34,191.42,154.1Z" style="fill:#263238"></path><path d="M190.54,152.57c-2-.55-2.94,3.49-1.09,4S192.22,153,190.54,152.57Z" style="fill:#263238"></path><path d="M189.7,152.59c-.41.15-.85.47-1.28.42s-.78-.58-1-1.06c0,0-.06,0-.08,0a1.51,1.51,0,0,0,.73,1.94c.73.28,1.43-.27,1.81-1C189.94,152.78,189.86,152.53,189.7,152.59Z" style="fill:#263238"></path><path d="M198.94,155.27s.08.08.07.14c-.34,1.24-.53,2.71.5,3.4,0,0,0,.08,0,.07C198.15,158.35,198.42,156.39,198.94,155.27Z" style="fill:#263238"></path><path d="M200.37,154.24c2,.33,1.23,4.4-.67,4.09S198.65,154,200.37,154.24Z" style="fill:#263238"></path><path d="M201.16,154.67c.28.28.52.74.9.84s.86-.25,1.23-.62c0,0,.06,0,.05.06-.13.78-.55,1.54-1.33,1.54s-1.08-.77-1.11-1.58C200.9,154.76,201.05,154.56,201.16,154.67Z" style="fill:#263238"></path><path d="M186.31,164.18c.19.39.33.89.75,1.09a3.36,3.36,0,0,0,1.41.17c.05,0,.07.06,0,.08a1.71,1.71,0,0,1-1.77.09,1.36,1.36,0,0,1-.55-1.42C186.18,164.12,186.29,164.13,186.31,164.18Z" style="fill:#263238"></path><path d="M189.63,162.4a11.89,11.89,0,0,1,4.74,1c.15,0,.5,0,.55-.16h0s.48-2.65.48-2.65c.31.24,1.91,1.41,2,.91a64.65,64.65,0,0,0,1.05-13.05c0-.14-.22-.16-.23,0-.76,4-.81,8-1.5,12.06a7.18,7.18,0,0,0-1.86-1c-.14,0-.36,2.83-.5,3.25a7.18,7.18,0,0,0-4.83-.58C188.89,162.27,188.8,162.41,189.63,162.4Z" style="fill:#263238"></path><path d="M172.49,154.45c4,.57,5.64-8.63,5.64-8.63s7-.23,10.54-4.43c0,0-2.5,3.72-5.42,5-.49.21,13.57.93,16.49-9.47,0,0,.44,10.77,6.43,13.88.29.15.91-9.39-1.06-13a40.79,40.79,0,0,0-3.06-4.72,20.24,20.24,0,0,0-14.11-6.34c-8.7-.06-15.95,9.85-17.15,13.41C168.41,147.15,170.58,154.18,172.49,154.45Z" style="fill:#263238"></path><path d="M183.65,146.65c7.6.82,14.35-3.08,16.16-10.69,0-.19.34-.14.34,0-.18,8-9.52,12.42-16.59,10.76C183.39,146.73,183.47,146.63,183.65,146.65Z" style="fill:#263238"></path><path d="M172.58,154c4.41-1.48,5.69-5.49,6.63-9.61,0-.13.24-.1.22,0-.56,4.1-2.07,9-6.76,9.94A.19.19,0,0,1,172.58,154Z" style="fill:#263238"></path><path d="M200.06,135.29a0,0,0,0,1,.07,0c.26,4.47-.66,11.79,4.71,13.73a.12.12,0,0,1-.07.23C199.45,147.85,198.79,139.67,200.06,135.29Z" style="fill:#263238"></path><path d="M175.1,152.22s-2.26-6.84-5.25-6.2-2.48,9.73.2,11.76a3.2,3.2,0,0,0,4.6-.42Z" style="fill:#d3766a"></path><path d="M170.06,148.62c-.05,0-.08,0,0,.08,1.86,1.49,2.38,3.78,2.55,6.05a1.77,1.77,0,0,0-2.39-1.23.07.07,0,0,0,0,.13,2,2,0,0,1,1.88,1.29,10.14,10.14,0,0,1,.49,2c0,.22.41.22.4,0v0C173.83,154.16,172.87,149.76,170.06,148.62Z" style="fill:#263238"></path></g><g id="freepik--Plant--inject-4"><path d="M390,336.62c19,18.61,22.2,47.4,18.2,72.62-.11.57-1,.42-1-.12,0-5.74.17-11.43.15-17.1l-.29-.77c-5-3.6-9.52-7.68-12.35-13.26-3.17-6.25-4.42-13.29-6.85-19.81-.23-.62.44-.44.87-.12,11.57,8.53,15.25,17.71,18.57,30a101.56,101.56,0,0,0-2-19.1c-2.5-11.63-7.44-23.17-15.8-31.8C389.19,336.8,389.67,336.29,390,336.62Z" style="fill:#263238"></path><path d="M385.86,340.34c-2.34,2.29-.32,7.53-1.16,10.38-.45,1.51-1.45,2.36-3,2-4.25-.89-4.64-6.44-3.88-10.43-1.07,2.28-1.35,4.83-2.88,6.88a2.37,2.37,0,0,1-3.5.71c-4.06-2.79-1.06-8.44,1.92-11.31-2.42.33-9.22,1.42-8.23-2s9.65-4,12.47-4.21c4.16-.26,9.65,0,12.53,2.95C393.47,338.72,388.39,339.38,385.86,340.34Z" style="fill:#4a6c04"></path><path d="M385.86,340.34c-2.34,2.29-.32,7.53-1.16,10.38-.45,1.51-1.45,2.36-3,2-4.25-.89-4.64-6.44-3.88-10.43-1.07,2.28-1.35,4.83-2.88,6.88a2.37,2.37,0,0,1-3.5.71c-4.06-2.79-1.06-8.44,1.92-11.31-2.42.33-9.22,1.42-8.23-2s9.65-4,12.47-4.21c4.16-.26,9.65,0,12.53,2.95C393.47,338.72,388.39,339.38,385.86,340.34Z" style="opacity:0.1"></path><path d="M387.1,340.3c-4.37,1.42-8.44,8.87-10,8.16-3.2-1.43,0-7.4,2.3-10.06-2.93,1.52-8.37,4.64-10.31,2.25-2.37-2.93,6.55-6.73,12.37-7.25,7.32-.64,10.21,2.56,10.08,3.85C391.36,339,387.82,340.06,387.1,340.3Z" style="fill:#4a6c04"></path><path d="M430.41,360.13c-19.7,17.87-24,46.52-20.94,71.87.08.58,1,.46,1-.08.22-5.74.26-11.43.49-17.1.12-.25.21-.49.33-.75,5.09-3.41,9.8-7.31,12.84-12.79,3.41-6.11,4.93-13.1,7.6-19.53.25-.61-.42-.45-.87-.15-11.88,8.08-15.91,17.11-19.69,29.24a101.33,101.33,0,0,1,2.73-19c2.94-11.54,8.32-22.88,17-31.19C431.22,360.33,430.75,359.81,430.41,360.13Z" style="fill:#263238"></path><path d="M434.77,364c2.89,1.53,2.44,7.13,4.06,9.61.86,1.32,2.06,1.85,3.5,1.07,3.81-2.06,2.6-7.49.74-11.1,1.67,1.88,2.67,4.24,4.72,5.77a2.35,2.35,0,0,0,3.55-.31c3.1-3.83-1.38-8.39-5-10.29,2.41-.38,9.24-1.27,7.31-4.28s-10.4-1.12-13.16-.48c-4.05.94-9.23,2.78-11.16,6.4C427,364.62,432.06,363.81,434.77,364Z" style="fill:#4a6c04"></path><path d="M434.77,364c2.89,1.53,2.44,7.13,4.06,9.61.86,1.32,2.06,1.85,3.5,1.07,3.81-2.06,2.6-7.49.74-11.1,1.67,1.88,2.67,4.24,4.72,5.77a2.35,2.35,0,0,0,3.55-.31c3.1-3.83-1.38-8.39-5-10.29,2.41-.38,9.24-1.27,7.31-4.28s-10.4-1.12-13.16-.48c-4.05.94-9.23,2.78-11.16,6.4C427,364.62,432.06,363.81,434.77,364Z" style="opacity:0.1"></path><path d="M433.56,364.32c4.59.12,10.62,6.1,11.92,5,2.66-2.29-2.14-7.08-5.07-9,3.25.62,9.35,2.06,10.52-.79,1.44-3.48-8.2-4.58-13.91-3.42-7.21,1.47-9.06,5.36-8.57,6.56C429.12,364.31,432.8,364.3,433.56,364.32Z" style="fill:#4a6c04"></path><path d="M413.14,382A193,193,0,0,1,407,410.24a.7.7,0,0,1-1.38-.27c1.29-8.71,3.65-17.26,5-26a130.7,130.7,0,0,0,1.51-26.66c-.83-14.67-4.81-30.28-14.39-41.77-.21-.27.24-.65.45-.4,19.18,22.35,16.12,49.76,16.11,52.22,2.71-9.26,5.51-19.86,15.78-29.29.44-.4.78-.21.71.48-1.84,17.17-6.61,26.13-16.56,35.3C413.93,376.6,413.58,379.31,413.14,382Z" style="fill:#263238"></path><path d="M394.73,321c-3.75.43-5.63,6.62-8.42,8.61-1.47,1.06-3,1.12-4.2-.32-3.22-3.82.36-9.14,3.88-12.23-2.59,1.31-4.66,3.43-7.5,4.21-1.72.46-3.14-.08-3.69-1.83-1.71-5.42,5-8.43,9.77-8.93-2.44-1.42-9.39-5.24-6.05-7.67s11.63,3.18,14.32,5c4,2.71,8.75,6.86,9.3,11.57C402.8,324.94,397.71,321.94,394.73,321Z" style="fill:#4a6c04"></path><path d="M394.73,321c-3.75.43-5.63,6.62-8.42,8.61-1.47,1.06-3,1.12-4.2-.32-3.22-3.82.36-9.14,3.88-12.23-2.59,1.31-4.66,3.43-7.5,4.21-1.72.46-3.14-.08-3.69-1.83-1.71-5.42,5-8.43,9.77-8.93-2.44-1.42-9.39-5.24-6.05-7.67s11.63,3.18,14.32,5c4,2.71,8.75,6.86,9.3,11.57C402.8,324.94,397.71,321.94,394.73,321Z" style="opacity:0.1"></path><path d="M395.89,321.86c-5-1.8-14,2.08-14.89.32-1.89-3.57,5.28-6.7,9.23-7.51-3.75-.7-10.9-1.72-11-5.28-.08-4.34,10.73-1.46,16.38,2.19,7.12,4.61,7.47,9.57,6.44,10.65C400.67,323.72,396.71,322.16,395.89,321.86Z" style="fill:#4a6c04"></path><path d="M398.28,444.58,391.21,395h43c-.88,4.39-8.89,49.61-8.89,49.61Z" style="fill:#455a64"></path><path d="M371.08,373.11c-3.49-.16-1.36-9.85,2.76-13.67,3.07-2.85,5.94-4,6.75-3.1.49.56-2,1.11-3.51,5.44C374.34,369.88,372.67,373.19,371.08,373.11Z" style="fill:#4a6c04"></path><path d="M436.49,409.24c2.61.48,2.72-7.07.33-10.62-1.78-2.65-3.71-4-4.46-3.47-.46.33.73,2,1.06,5.48C434,407.11,435.3,409,436.49,409.24Z" style="fill:#4a6c04"></path><path d="M443.53,397.35c3.31,1.24,5.2-8.65,2.89-13.85-1.72-3.89-3.94-6.13-5.06-5.59-.67.32.5,2.82.13,7.44C440.81,394,442,396.78,443.53,397.35Z" style="fill:#4a6c04"></path></g></svg>
