<svg xmlns="http://www.w3.org/2000/svg" viewBox="0 0 500 500"><g id="freepik--background-complete--inject-2"><rect y="382.4" width="500" height="0.25" style="fill:#ebebeb"></rect><rect x="416.78" y="398.49" width="33.12" height="0.25" style="fill:#ebebeb"></rect><rect x="322.53" y="401.21" width="8.69" height="0.25" style="fill:#ebebeb"></rect><rect x="396.59" y="389.21" width="19.19" height="0.25" style="fill:#ebebeb"></rect><rect x="52.46" y="390.89" width="43.19" height="0.25" style="fill:#ebebeb"></rect><rect x="104.56" y="390.89" width="6.33" height="0.25" style="fill:#ebebeb"></rect><rect x="131.47" y="395.11" width="93.68" height="0.25" style="fill:#ebebeb"></rect><path d="M237,337.8H43.91a5.71,5.71,0,0,1-5.7-5.71V60.66A5.71,5.71,0,0,1,43.91,55H237a5.71,5.71,0,0,1,5.71,5.71V332.09A5.71,5.71,0,0,1,237,337.8ZM43.91,55.2a5.46,5.46,0,0,0-5.45,5.46V332.09a5.46,5.46,0,0,0,5.45,5.46H237a5.47,5.47,0,0,0,5.46-5.46V60.66A5.47,5.47,0,0,0,237,55.2Z" style="fill:#ebebeb"></path><path d="M453.31,337.8H260.21a5.72,5.72,0,0,1-5.71-5.71V60.66A5.72,5.72,0,0,1,260.21,55h193.1A5.71,5.71,0,0,1,459,60.66V332.09A5.71,5.71,0,0,1,453.31,337.8ZM260.21,55.2a5.47,5.47,0,0,0-5.46,5.46V332.09a5.47,5.47,0,0,0,5.46,5.46h193.1a5.47,5.47,0,0,0,5.46-5.46V60.66a5.47,5.47,0,0,0-5.46-5.46Z" style="fill:#ebebeb"></path><rect x="271.19" y="121.79" width="150.75" height="133.77" style="fill:#e6e6e6"></rect><rect x="274.96" y="125.46" width="143.01" height="126.51" style="fill:#f0f0f0"></rect><polygon points="308.52 125.46 274.96 251.69 274.96 192.37 292.68 125.46 308.52 125.46" style="fill:#fff"></polygon><polygon points="320.41 125.46 286.55 251.97 281.15 251.97 315.01 125.46 320.41 125.46" style="fill:#fff"></polygon><polygon points="417.97 205.28 417.97 225.5 411.12 251.97 405.71 251.97 417.97 205.28" style="fill:#fff"></polygon><rect x="322.43" y="123.18" width="2.41" height="131.61" style="fill:#e6e6e6"></rect><rect x="369.12" y="123.18" width="2.41" height="131.61" style="fill:#e6e6e6"></rect><rect x="78.06" y="167.82" width="160.57" height="47.18" style="fill:#e6e6e6"></rect><rect x="96.54" y="167.82" width="142.09" height="47.18" style="fill:#ebebeb"></rect><rect x="146.99" y="123.37" width="41.18" height="136.09" transform="translate(359 23.83) rotate(90)" style="fill:#e0e0e0"></rect><rect x="124.51" y="170.82" width="2.37" height="41.18" style="fill:#ebebeb"></rect><rect x="144.52" y="179.83" width="2.37" height="41.18" transform="translate(346.13 54.71) rotate(90)" style="fill:#ebebeb"></rect><rect x="187.13" y="163.09" width="2.37" height="41.18" transform="translate(372 -4.64) rotate(90)" style="fill:#ebebeb"></rect><rect x="166.54" y="170.82" width="2.37" height="41.18" style="fill:#ebebeb"></rect><rect x="209.57" y="170.82" width="2.37" height="41.18" style="fill:#ebebeb"></rect><circle cx="148.34" cy="138.11" r="15.48" transform="translate(-27.76 37.78) rotate(-13.28)" style="fill:#e0e0e0"></circle><circle cx="148.34" cy="138.11" r="13.16" transform="translate(-20.21 25.54) rotate(-9.22)" style="fill:#f0f0f0"></circle><polyline points="147.72 147.13 147.72 137.93 141.62 141.38" style="fill:#f0f0f0"></polyline><path d="M147.72,147.63a.5.5,0,0,1-.5-.5v-8.34l-5.35,3a.49.49,0,0,1-.68-.19.49.49,0,0,1,.19-.68l6.09-3.45a.5.5,0,0,1,.5,0,.52.52,0,0,1,.25.43v9.2A.5.5,0,0,1,147.72,147.63Z" style="fill:#e0e0e0"></path></g><g id="freepik--Shadow--inject-2"><ellipse id="freepik--path--inject-2" cx="250" cy="416.24" rx="193.89" ry="11.32" style="fill:#f5f5f5"></ellipse></g><g id="freepik--Furniture--inject-2"><path d="M278.94,236v-3.27H273.2V236a5.21,5.21,0,0,1-2.63,4.53h0a5.2,5.2,0,0,0-2.63,4.53v30.5a3.44,3.44,0,0,0,3.45,3.45h9.36a3.44,3.44,0,0,0,3.45-3.45v-30.5a5.22,5.22,0,0,0-2.63-4.53h0A5.21,5.21,0,0,1,278.94,236Z" style="fill:#4a6c04"></path><path d="M278.94,236v-3.27H273.2V236a5.21,5.21,0,0,1-2.63,4.53h0a5.2,5.2,0,0,0-2.63,4.53v30.5a3.44,3.44,0,0,0,3.45,3.45h9.36a3.44,3.44,0,0,0,3.45-3.45v-30.5a5.22,5.22,0,0,0-2.63-4.53h0A5.21,5.21,0,0,1,278.94,236Z" style="fill:#fff;opacity:0.7000000000000001"></path><rect x="272.97" y="230.67" width="6.19" height="3.87" style="fill:#4a6c04"></rect><rect x="267.94" y="254.28" width="16.26" height="4.44" style="fill:#fff;opacity:0.2"></rect><rect x="267.94" y="259.47" width="16.26" height="4.44" style="fill:#fff;opacity:0.2"></rect><rect x="267.94" y="264.66" width="16.26" height="4.44" style="fill:#fff;opacity:0.2"></rect><polygon points="300.94 279 291.18 279 290 263.91 302.13 263.91 300.94 279" style="fill:#4a6c04"></polygon><polygon points="302.13 263.91 301.79 268.25 300.94 279 291.19 279 290.34 268.25 290 263.91 302.13 263.91" style="fill:#fff;opacity:0.7000000000000001"></polygon><polygon points="301.79 268.25 300.94 279 291.19 279 290.34 268.25 301.79 268.25" style="fill:#fff;opacity:0.2"></polygon><polygon points="303.04 264.66 289.09 264.66 290.09 262.79 302.04 262.79 303.04 264.66" style="fill:#4a6c04"></polygon><path d="M342.21,268.25h-32.6a2.34,2.34,0,0,0-2.33,2.33V417h6V406.6h25.34V417h6V270.58A2.34,2.34,0,0,0,342.21,268.25Z" style="fill:#263238"></path><path d="M342.21,268.25h-32.6a2.34,2.34,0,0,0-2.33,2.33V417h6V406.6h25.34V417h6V270.58A2.34,2.34,0,0,0,342.21,268.25Z" style="fill:#fff;opacity:0.7000000000000001"></path><path d="M340.21,268.25h-30.6a2.34,2.34,0,0,0-2.33,2.33V417h4V406.6h27.34V417h4V270.58A2.34,2.34,0,0,0,340.21,268.25Z" style="fill:#fff;opacity:0.4"></path><rect x="248.31" y="279" width="90.68" height="127.34" style="fill:#263238"></rect><rect x="248.31" y="279" width="90.68" height="127.34" style="fill:#fff;opacity:0.75"></rect><path d="M280.17,268.25H247.58a2.34,2.34,0,0,0-2.34,2.33V417h6V406.6h25.34V417h6V270.58A2.33,2.33,0,0,0,280.17,268.25Z" style="fill:#263238"></path><path d="M280.17,268.25H247.58a2.34,2.34,0,0,0-2.34,2.33V417h6V406.6h25.34V417h6V270.58A2.33,2.33,0,0,0,280.17,268.25Z" style="fill:#fff;opacity:0.7000000000000001"></path><path d="M278.17,268.25H247.58a2.34,2.34,0,0,0-2.34,2.33V417h4V406.6h27.34V417h4V270.58A2.34,2.34,0,0,0,278.17,268.25Z" style="fill:#fff;opacity:0.4"></path><rect x="283.98" y="282.77" width="50.79" height="15.51" style="fill:#fff;opacity:0.2"></rect><rect x="283.98" y="301.76" width="50.79" height="100.16" style="fill:#fff;opacity:0.2"></rect></g><g id="freepik--Character--inject-2"><path d="M261.75,370.15c-.76-.23-1.22-.62-1.22-1v-25a.67.67,0,0,1,.06-.28,1.1,1.1,0,0,1,.35-.41,2.84,2.84,0,0,1,.82-.38,4.86,4.86,0,0,1,1.07-.19H388.45a5.89,5.89,0,0,1,1.09.19,3,3,0,0,1,.8.38,1.2,1.2,0,0,1,.35.41.54.54,0,0,1,.05.28v25c0,.42-.45.81-1.21,1a5.6,5.6,0,0,1-2.55.1l-61.34-12.32L264.3,370.25a5.49,5.49,0,0,1-1.08.1A5.33,5.33,0,0,1,261.75,370.15Zm4.16-24.21v21.27l53-10.63Zm66.47,10.64,53,10.63V345.94Zm-56.23-11.29,49.49,9.94,49.48-9.94Z" style="fill:#263238"></path><g style="opacity:0.30000000000000004"><path d="M261.75,370.15c-.76-.23-1.22-.62-1.22-1v-25a.67.67,0,0,1,.06-.28,1.1,1.1,0,0,1,.35-.41,2.84,2.84,0,0,1,.82-.38,4.86,4.86,0,0,1,1.07-.19H388.45a5.89,5.89,0,0,1,1.09.19,3,3,0,0,1,.8.38,1.2,1.2,0,0,1,.35.41.54.54,0,0,1,.05.28v25c0,.42-.45.81-1.21,1a5.6,5.6,0,0,1-2.55.1l-61.34-12.32L264.3,370.25a5.49,5.49,0,0,1-1.08.1A5.33,5.33,0,0,1,261.75,370.15Zm4.16-24.21v21.27l53-10.63Zm66.47,10.64,53,10.63V345.94Zm-56.23-11.29,49.49,9.94,49.48-9.94Z" style="fill:#fff"></path></g><path d="M245.3,341.38H427.21a2.68,2.68,0,0,1,2.69,2.69h0a2.69,2.69,0,0,1-2.69,2.69H245.3a2.69,2.69,0,0,1-2.69-2.69h0A2.68,2.68,0,0,1,245.3,341.38Z" style="fill:#263238"></path><g style="opacity:0.30000000000000004"><path d="M245.3,341.38H427.21a2.68,2.68,0,0,1,2.69,2.69h0a2.69,2.69,0,0,1-2.69,2.69H245.3a2.69,2.69,0,0,1-2.69-2.69h0A2.68,2.68,0,0,1,245.3,341.38Z" style="fill:#fff"></path></g><path d="M414.73,390.17a2.82,2.82,0,0,0,2.82-2.76l.49-19.68a2.82,2.82,0,0,0-2.83-2.89h-152a2.81,2.81,0,0,0-2.42,1.38l-10.89,18.27a2.82,2.82,0,0,0,4.85,2.89l10.07-16.9H412.32l-.41,16.79a2.83,2.83,0,0,0,2.75,2.9Z" style="fill:#263238"></path><g style="opacity:0.30000000000000004"><path d="M414.73,390.17a2.82,2.82,0,0,0,2.82-2.76l.49-19.68a2.82,2.82,0,0,0-2.83-2.89h-152a2.81,2.81,0,0,0-2.42,1.38l-10.89,18.27a2.82,2.82,0,0,0,4.85,2.89l10.07-16.9H412.32l-.41,16.79a2.83,2.83,0,0,0,2.75,2.9Z" style="fill:#fff"></path></g><path d="M109,245.3V348.57c0,2.91,1.66,5.27,3.69,5.27H231.28c2,0,3.69-2.36,3.69-5.27V245.3c0-2.9-1.66-5.26-3.69-5.26H112.65C110.62,240,109,242.4,109,245.3Zm100.89,6.35c0-2.68,1.51-4.85,3.39-4.85h12a3,3,0,0,1,2.4,1.42,6,6,0,0,1,1,3.43c0,2.68-1.52,4.84-3.4,4.84h-12a3,3,0,0,1-2.4-1.42A6,6,0,0,1,209.85,251.65Zm-94.59,0c0-2.68,1.52-4.85,3.39-4.85h12a3,3,0,0,1,2.4,1.42,6.07,6.07,0,0,1,1,3.43c0,2.68-1.52,4.84-3.39,4.84h-12a3,3,0,0,1-2.4-1.42A6,6,0,0,1,115.26,251.65Z" style="fill:#4a6c04"></path><path d="M109,245.3V348.57c0,2.91,1.66,5.27,3.69,5.27H231.28c2,0,3.69-2.36,3.69-5.27V245.3c0-2.9-1.66-5.26-3.69-5.26H112.65C110.62,240,109,242.4,109,245.3Zm100.89,6.35c0-2.68,1.51-4.85,3.39-4.85h12a3,3,0,0,1,2.4,1.42,6,6,0,0,1,1,3.43c0,2.68-1.52,4.84-3.4,4.84h-12a3,3,0,0,1-2.4-1.42A6,6,0,0,1,209.85,251.65Zm-94.59,0c0-2.68,1.52-4.85,3.39-4.85h12a3,3,0,0,1,2.4,1.42,6.07,6.07,0,0,1,1,3.43c0,2.68-1.52,4.84-3.39,4.84h-12a3,3,0,0,1-2.4-1.42A6,6,0,0,1,115.26,251.65Z" style="fill:#fff;opacity:0.6000000000000001"></path><path d="M110.94,245.3V348.57c0,2.91,1.66,5.27,3.69,5.27H233.26c2,0,3.69-2.36,3.69-5.27V245.3c0-2.9-1.66-5.26-3.69-5.26H114.63C112.6,240,110.94,242.4,110.94,245.3Zm100.89,6.35c0-2.68,1.52-4.85,3.4-4.85h12a3,3,0,0,1,2.4,1.42,6,6,0,0,1,1,3.43c0,2.68-1.52,4.84-3.4,4.84h-12a3,3,0,0,1-2.41-1.42A6,6,0,0,1,211.83,251.65Zm-94.59,0c0-2.68,1.52-4.85,3.39-4.85h12a3,3,0,0,1,2.4,1.42,6.07,6.07,0,0,1,1,3.43c0,2.68-1.52,4.84-3.39,4.84h-12a3,3,0,0,1-2.4-1.42A6,6,0,0,1,117.24,251.65Z" style="fill:#4a6c04"></path><path d="M110.94,245.3V348.57c0,2.91,1.66,5.27,3.69,5.27H233.26c2,0,3.69-2.36,3.69-5.27V245.3c0-2.9-1.66-5.26-3.69-5.26H114.63C112.6,240,110.94,242.4,110.94,245.3Zm100.89,6.35c0-2.68,1.52-4.85,3.4-4.85h12a3,3,0,0,1,2.4,1.42,6,6,0,0,1,1,3.43c0,2.68-1.52,4.84-3.4,4.84h-12a3,3,0,0,1-2.41-1.42A6,6,0,0,1,211.83,251.65Zm-94.59,0c0-2.68,1.52-4.85,3.39-4.85h12a3,3,0,0,1,2.4,1.42,6.07,6.07,0,0,1,1,3.43c0,2.68-1.52,4.84-3.39,4.84h-12a3,3,0,0,1-2.4-1.42A6,6,0,0,1,117.24,251.65Z" style="fill:#fff;opacity:0.7000000000000001"></path><rect x="117.24" y="303.36" width="113.41" height="32.99" rx="2.95" transform="translate(347.89 639.7) rotate(180)" style="opacity:0.1"></rect><rect x="110.94" y="342.22" width="126.01" height="1.58" style="fill:#4a6c04"></rect><path d="M141.67,370.15c-.75-.23-1.21-.62-1.21-1v-25a.54.54,0,0,1,0-.28,1.2,1.2,0,0,1,.35-.41,3.12,3.12,0,0,1,.82-.38,4.86,4.86,0,0,1,1.07-.19H268.37a5.6,5.6,0,0,1,1.09.19,2.84,2.84,0,0,1,.8.38,1,1,0,0,1,.35.41.67.67,0,0,1,.06.28v25c0,.42-.46.81-1.22,1a5.56,5.56,0,0,1-2.54.1l-61.35-12.32-61.34,12.32a5.66,5.66,0,0,1-2.55-.1Zm4.17-24.21v21.27l53-10.63Zm66.47,10.64,53,10.63V345.94Zm-56.23-11.29,49.48,9.94,49.49-9.94Z" style="fill:#263238"></path><g style="opacity:0.5"><path d="M141.67,370.15c-.75-.23-1.21-.62-1.21-1v-25a.54.54,0,0,1,0-.28,1.2,1.2,0,0,1,.35-.41,3.12,3.12,0,0,1,.82-.38,4.86,4.86,0,0,1,1.07-.19H268.37a5.6,5.6,0,0,1,1.09.19,2.84,2.84,0,0,1,.8.38,1,1,0,0,1,.35.41.67.67,0,0,1,.06.28v25c0,.42-.46.81-1.22,1a5.56,5.56,0,0,1-2.54.1l-61.35-12.32-61.34,12.32a5.66,5.66,0,0,1-2.55-.1Zm4.17-24.21v21.27l53-10.63Zm66.47,10.64,53,10.63V345.94Zm-56.23-11.29,49.48,9.94,49.49-9.94Z" style="fill:#fff"></path></g><path d="M125.22,341.38H307.14a2.69,2.69,0,0,1,2.69,2.69h0a2.7,2.7,0,0,1-2.69,2.69H125.22a2.7,2.7,0,0,1-2.69-2.69h0A2.69,2.69,0,0,1,125.22,341.38Z" style="fill:#263238"></path><g style="opacity:0.6000000000000001"><path d="M125.22,341.38H307.14a2.69,2.69,0,0,1,2.69,2.69h0a2.7,2.7,0,0,1-2.69,2.69H125.22a2.7,2.7,0,0,1-2.69-2.69h0A2.69,2.69,0,0,1,125.22,341.38Z" style="fill:#fff"></path></g><path d="M294.66,390.17a2.83,2.83,0,0,0,2.82-2.76l.48-19.68a2.82,2.82,0,0,0-2.82-2.89h-152a2.82,2.82,0,0,0-2.43,1.38l-10.88,18.27a2.82,2.82,0,0,0,4.85,2.89l10.06-16.9h147.5l-.42,16.79a2.83,2.83,0,0,0,2.75,2.9Z" style="fill:#263238"></path><g style="opacity:0.6000000000000001"><path d="M294.66,390.17a2.83,2.83,0,0,0,2.82-2.76l.48-19.68a2.82,2.82,0,0,0-2.82-2.89h-152a2.82,2.82,0,0,0-2.43,1.38l-10.88,18.27a2.82,2.82,0,0,0,4.85,2.89l10.06-16.9h147.5l-.42,16.79a2.83,2.83,0,0,0,2.75,2.9Z" style="fill:#fff"></path></g><rect x="126.26" y="305.78" width="202.52" height="19.86" rx="1.85" transform="translate(455.04 631.43) rotate(180)" style="fill:#263238"></rect><rect x="126.26" y="305.78" width="202.52" height="19.86" rx="1.85" transform="translate(455.04 631.43) rotate(180)" style="fill:#fff;opacity:0.2"></rect><rect x="191.32" y="304.85" width="232.56" height="21.66" rx="2.14" transform="translate(615.19 631.35) rotate(180)" style="fill:#4a6c04"></rect><rect x="191.32" y="304.85" width="232.56" height="21.66" rx="2.14" transform="translate(615.19 631.35) rotate(180)" style="fill:#fff;opacity:0.2"></rect><polygon points="264.1 404.9 259.78 409.22 256.98 409.22 255.76 402.28 264.1 404.9" style="fill:#4a6c04"></polygon><path d="M252.31,399.83h3.27c3.8,0,6.88,3.85,6.88,8.59s-3.08,8.59-6.88,8.59h-3.27c-3.8,0-6.88-3.85-6.88-8.59S248.51,399.83,252.31,399.83Z" style="fill:#263238"></path><ellipse cx="252.31" cy="408.42" rx="6.88" ry="8.59" style="fill:#fff;opacity:0.30000000000000004"></ellipse><ellipse cx="252.31" cy="408.42" rx="4.42" ry="6.14" style="fill:#fff;opacity:0.30000000000000004"></ellipse><path d="M251.05,407.61v-6.93a5,5,0,0,1,1.47-3.55l4-4h7.54v11.81h-6.52l-3.82,3.82a1.62,1.62,0,0,1-1.2.46h0A1.59,1.59,0,0,1,251.05,407.61Z" style="fill:#4a6c04"></path><path d="M251.05,400.69v6.92a1.57,1.57,0,0,0,1.5,1.57,1.54,1.54,0,0,0,1.2-.46l3.82-3.82h6.52V393.1h-7.54l-4,4A5,5,0,0,0,251.05,400.69Z" style="fill:#fff;opacity:0.30000000000000004"></path><path d="M251.05,400.69v6.92a1.57,1.57,0,0,0,1.5,1.57,1.54,1.54,0,0,0,1.2-.46l3.82-3.82V393.1h-1l-4,4A5,5,0,0,0,251.05,400.69Z" style="fill:#fff;opacity:0.2"></path><rect x="248.68" y="380.73" width="16.6" height="13.22" rx="1.13" transform="translate(513.97 774.69) rotate(180)" style="fill:#4a6c04"></rect><path d="M248.69,381.86v11a1.13,1.13,0,0,0,1.13,1.14h14.33a1.14,1.14,0,0,0,1.13-1.14v-11a1.14,1.14,0,0,0-1.13-1.13H249.82A1.13,1.13,0,0,0,248.69,381.86Z" style="fill:#fff;opacity:0.2"></path><path d="M248.69,381.86v11a1.13,1.13,0,0,0,1.13,1.14h7.74a1.14,1.14,0,0,0,1.13-1.14v-11a1.14,1.14,0,0,0-1.13-1.13h-7.74A1.13,1.13,0,0,0,248.69,381.86Z" style="fill:#fff;opacity:0.2"></path><path d="M259.93,381.85H416.47a.61.61,0,0,1,.61.61v9.38a.61.61,0,0,1-.61.61H259.93a0,0,0,0,1,0,0V381.85A0,0,0,0,1,259.93,381.85Z" transform="translate(677.01 774.31) rotate(180)" style="fill:#4a6c04"></path><path d="M259.93,381.85H416.47a.61.61,0,0,1,.61.61v9.38a.61.61,0,0,1-.61.61H259.93a0,0,0,0,1,0,0V381.85A0,0,0,0,1,259.93,381.85Z" transform="translate(677.01 774.31) rotate(180)" style="fill:#fff;opacity:0.30000000000000004"></path><polygon points="424.19 404.9 419.88 409.22 417.08 409.22 415.86 402.28 424.19 404.9" style="fill:#4a6c04"></polygon><path d="M412.41,399.83h3.27c3.8,0,6.88,3.85,6.88,8.59s-3.08,8.59-6.88,8.59h-3.27c-3.8,0-6.88-3.85-6.88-8.59S408.61,399.83,412.41,399.83Z" style="fill:#263238"></path><ellipse cx="412.41" cy="408.42" rx="6.88" ry="8.59" style="fill:#fff;opacity:0.30000000000000004"></ellipse><ellipse cx="412.41" cy="408.42" rx="4.42" ry="6.14" style="fill:#fff;opacity:0.30000000000000004"></ellipse><path d="M411.15,407.61v-6.93a5,5,0,0,1,1.48-3.55l4-4h7.55v11.81h-6.53l-3.82,3.82a1.62,1.62,0,0,1-1.2.46h0A1.59,1.59,0,0,1,411.15,407.61Z" style="fill:#4a6c04"></path><path d="M411.15,400.69v6.92a1.57,1.57,0,0,0,1.5,1.57,1.54,1.54,0,0,0,1.2-.46l3.82-3.82h6.53V393.1h-7.55l-4,4A5,5,0,0,0,411.15,400.69Z" style="fill:#fff;opacity:0.30000000000000004"></path><path d="M411.15,400.69v6.92a1.57,1.57,0,0,0,1.5,1.57,1.54,1.54,0,0,0,1.2-.46l3.82-3.82V393.1h-1l-4,4A5,5,0,0,0,411.15,400.69Z" style="fill:#fff;opacity:0.2"></path><rect x="408.78" y="380.73" width="16.6" height="13.22" rx="1.13" transform="translate(834.17 774.69) rotate(180)" style="fill:#4a6c04"></rect><path d="M408.79,381.86v11a1.13,1.13,0,0,0,1.13,1.14h14.33a1.14,1.14,0,0,0,1.13-1.14v-11a1.14,1.14,0,0,0-1.13-1.13H409.92A1.13,1.13,0,0,0,408.79,381.86Z" style="fill:#fff;opacity:0.2"></path><path d="M408.79,381.86v11a1.13,1.13,0,0,0,1.13,1.14h7.74a1.14,1.14,0,0,0,1.13-1.14v-11a1.14,1.14,0,0,0-1.13-1.13h-7.74A1.13,1.13,0,0,0,408.79,381.86Z" style="fill:#fff;opacity:0.2"></path><rect x="123" y="322.3" width="230.71" height="17.14" rx="2.52" transform="translate(476.72 661.74) rotate(180)" style="fill:#4a6c04"></rect><rect x="123" y="322.3" width="230.71" height="17.14" rx="2.52" transform="translate(476.72 661.74) rotate(180)" style="fill:#fff;opacity:0.5"></rect><g style="opacity:0.7000000000000001"><path d="M187.61,335.58h39.63a4.71,4.71,0,1,0,0-9.41H187.61a4.71,4.71,0,1,0,0,9.41Z" style="fill:#fff"></path></g><g style="opacity:0.7000000000000001"><path d="M239.64,335.58h64.65a4.71,4.71,0,1,0,0-9.41H239.64a4.71,4.71,0,0,0,0,9.41Z" style="fill:#fff"></path></g><g style="opacity:0.7000000000000001"><path d="M130.57,335.58h45.64a4.71,4.71,0,1,0,0-9.41H130.57a4.71,4.71,0,0,0,0,9.41Z" style="fill:#fff"></path></g><path d="M311.09,275.32v73.25c0,2.91,1.65,5.27,3.69,5.27H433.4c2,0,3.7-2.36,3.7-5.27V275.32c0-2.9-1.66-5.26-3.7-5.26H314.78C312.74,270.06,311.09,272.42,311.09,275.32ZM412,281.67c0-2.68,1.52-4.85,3.4-4.85h12a3,3,0,0,1,2.4,1.42,6.07,6.07,0,0,1,1,3.43c0,2.68-1.52,4.84-3.4,4.84h-12a3,3,0,0,1-2.4-1.42A6,6,0,0,1,412,281.67Zm-94.58,0c0-2.68,1.52-4.85,3.39-4.85h12a3,3,0,0,1,2.4,1.42,6,6,0,0,1,1,3.43c0,2.68-1.52,4.84-3.4,4.84h-12a3,3,0,0,1-2.4-1.42A6,6,0,0,1,317.39,281.67Z" style="fill:#4a6c04"></path><path d="M311.09,275.32v73.25c0,2.91,1.65,5.27,3.69,5.27H433.4c2,0,3.7-2.36,3.7-5.27V275.32c0-2.9-1.66-5.26-3.7-5.26H314.78C312.74,270.06,311.09,272.42,311.09,275.32ZM412,281.67c0-2.68,1.52-4.85,3.4-4.85h12a3,3,0,0,1,2.4,1.42,6.07,6.07,0,0,1,1,3.43c0,2.68-1.52,4.84-3.4,4.84h-12a3,3,0,0,1-2.4-1.42A6,6,0,0,1,412,281.67Zm-94.58,0c0-2.68,1.52-4.85,3.39-4.85h12a3,3,0,0,1,2.4,1.42,6,6,0,0,1,1,3.43c0,2.68-1.52,4.84-3.4,4.84h-12a3,3,0,0,1-2.4-1.42A6,6,0,0,1,317.39,281.67Z" style="fill:#fff;opacity:0.6000000000000001"></path><path d="M313.07,275.32v73.25c0,2.91,1.65,5.27,3.69,5.27H435.38c2,0,3.7-2.36,3.7-5.27V275.32c0-2.9-1.66-5.26-3.7-5.26H316.76C314.72,270.06,313.07,272.42,313.07,275.32ZM414,281.67c0-2.68,1.52-4.85,3.4-4.85h12a3,3,0,0,1,2.4,1.42,6.07,6.07,0,0,1,1,3.43c0,2.68-1.52,4.84-3.4,4.84h-12a3,3,0,0,1-2.4-1.42A6,6,0,0,1,414,281.67Zm-94.58,0c0-2.68,1.52-4.85,3.39-4.85h12a3,3,0,0,1,2.4,1.42,6,6,0,0,1,1,3.43c0,2.68-1.52,4.84-3.4,4.84h-12a3,3,0,0,1-2.4-1.42A6,6,0,0,1,319.37,281.67Z" style="fill:#4a6c04"></path><path d="M313.07,275.32v73.25c0,2.91,1.65,5.27,3.69,5.27H435.38c2,0,3.7-2.36,3.7-5.27V275.32c0-2.9-1.66-5.26-3.7-5.26H316.76C314.72,270.06,313.07,272.42,313.07,275.32ZM414,281.67c0-2.68,1.52-4.85,3.4-4.85h12a3,3,0,0,1,2.4,1.42,6.07,6.07,0,0,1,1,3.43c0,2.68-1.52,4.84-3.4,4.84h-12a3,3,0,0,1-2.4-1.42A6,6,0,0,1,414,281.67Zm-94.58,0c0-2.68,1.52-4.85,3.39-4.85h12a3,3,0,0,1,2.4,1.42,6,6,0,0,1,1,3.43c0,2.68-1.52,4.84-3.4,4.84h-12a3,3,0,0,1-2.4-1.42A6,6,0,0,1,319.37,281.67Z" style="fill:#fff;opacity:0.7000000000000001"></path><rect x="319.37" y="303.36" width="113.41" height="32.99" rx="2.95" transform="translate(752.14 639.7) rotate(180)" style="opacity:0.1"></rect><rect x="313.07" y="342.22" width="126.01" height="1.58" style="fill:#4a6c04"></rect><path d="M359.76,268v39.47h39.33V268Zm13.8,2h11.73v7.69H373.56Z" style="fill:#4a6c04"></path><rect x="390.49" y="285.3" width="8.22" height="20.66" transform="translate(789.2 591.26) rotate(180)" style="fill:#4a6c04"></rect><rect x="390.49" y="285.3" width="8.22" height="20.66" transform="translate(789.2 591.26) rotate(180)" style="opacity:0.2"></rect><rect x="360.12" y="285.3" width="8.22" height="20.66" transform="translate(728.47 591.26) rotate(180)" style="fill:#4a6c04"></rect><rect x="360.12" y="285.3" width="8.22" height="20.66" transform="translate(728.47 591.26) rotate(180)" style="opacity:0.2"></rect><rect x="392.47" y="285.3" width="8.22" height="20.66" transform="translate(793.16 591.26) rotate(180)" style="fill:#4a6c04"></rect><rect x="392.47" y="285.3" width="8.22" height="20.66" transform="translate(793.16 591.26) rotate(180)" style="fill:#fff;opacity:0.2"></rect><rect x="362.1" y="285.3" width="8.22" height="20.66" transform="translate(732.43 591.26) rotate(180)" style="fill:#4a6c04"></rect><rect x="362.1" y="285.3" width="8.22" height="20.66" transform="translate(732.43 591.26) rotate(180)" style="fill:#fff;opacity:0.2"></rect><rect x="356.45" y="268.04" width="5.31" height="2.02" transform="translate(718.21 538.11) rotate(180)" style="fill:#4a6c04"></rect><polygon points="141.66 404.9 137.35 409.22 134.55 409.22 133.33 402.28 141.66 404.9" style="fill:#4a6c04"></polygon><path d="M129.88,399.83h3.27c3.8,0,6.88,3.85,6.88,8.59S137,417,133.15,417h-3.27c-3.8,0-6.88-3.85-6.88-8.59S126.08,399.83,129.88,399.83Z" style="fill:#263238"></path><ellipse cx="129.88" cy="408.42" rx="6.88" ry="8.59" style="fill:#fff;opacity:0.30000000000000004"></ellipse><ellipse cx="129.88" cy="408.42" rx="4.42" ry="6.14" style="fill:#fff;opacity:0.30000000000000004"></ellipse><path d="M128.62,407.61v-6.93a5,5,0,0,1,1.48-3.55l4-4h7.54v11.81h-6.52l-3.82,3.82a1.62,1.62,0,0,1-1.2.46h0A1.59,1.59,0,0,1,128.62,407.61Z" style="fill:#4a6c04"></path><path d="M128.62,400.69v6.92a1.57,1.57,0,0,0,1.5,1.57,1.54,1.54,0,0,0,1.2-.46l3.82-3.82h6.53V393.1h-7.55l-4,4A5,5,0,0,0,128.62,400.69Z" style="fill:#fff;opacity:0.7000000000000001"></path><path d="M128.62,400.69v6.92a1.57,1.57,0,0,0,1.5,1.57,1.54,1.54,0,0,0,1.2-.46l3.82-3.82V393.1h-1l-4,4A5,5,0,0,0,128.62,400.69Z" style="fill:#fff;opacity:0.2"></path><rect x="126.25" y="380.73" width="16.6" height="13.22" rx="1.13" transform="translate(269.11 774.69) rotate(180)" style="fill:#4a6c04"></rect><rect x="126.26" y="380.73" width="16.59" height="13.22" rx="1.13" style="fill:#fff;opacity:0.5"></rect><path d="M126.26,381.86v11a1.13,1.13,0,0,0,1.13,1.14h7.74a1.14,1.14,0,0,0,1.13-1.14v-11a1.14,1.14,0,0,0-1.13-1.13h-7.74A1.13,1.13,0,0,0,126.26,381.86Z" style="fill:#fff;opacity:0.2"></path><path d="M137.5,381.85H294a.61.61,0,0,1,.61.61v9.38a.61.61,0,0,1-.61.61H137.5a0,0,0,0,1,0,0V381.85A0,0,0,0,1,137.5,381.85Z" transform="translate(432.15 774.31) rotate(180)" style="fill:#4a6c04"></path><path d="M137.5,381.85H294a.61.61,0,0,1,.61.61v9.38a.61.61,0,0,1-.61.61H137.5a0,0,0,0,1,0,0V381.85A0,0,0,0,1,137.5,381.85Z" transform="translate(432.15 774.31) rotate(180)" style="fill:#fff;opacity:0.7000000000000001"></path><polygon points="301.77 404.9 297.45 409.22 294.65 409.22 293.43 402.28 301.77 404.9" style="fill:#4a6c04"></polygon><path d="M290,399.83h3.27c3.8,0,6.88,3.85,6.88,8.59s-3.08,8.59-6.88,8.59H290c-3.8,0-6.88-3.85-6.88-8.59S286.18,399.83,290,399.83Z" style="fill:#263238"></path><ellipse cx="289.98" cy="408.42" rx="6.88" ry="8.59" style="fill:#fff;opacity:0.30000000000000004"></ellipse><ellipse cx="289.98" cy="408.42" rx="4.42" ry="6.14" style="fill:#fff;opacity:0.30000000000000004"></ellipse><path d="M288.72,407.61v-6.93a5,5,0,0,1,1.48-3.55l4-4h7.55v11.81h-6.53l-3.82,3.82a1.6,1.6,0,0,1-1.2.46h0A1.59,1.59,0,0,1,288.72,407.61Z" style="fill:#4a6c04"></path><path d="M288.72,400.69v6.92a1.57,1.57,0,0,0,1.5,1.57,1.54,1.54,0,0,0,1.2-.46l3.82-3.82h6.53V393.1h-7.55l-4,4A5,5,0,0,0,288.72,400.69Z" style="fill:#fff;opacity:0.7000000000000001"></path><path d="M288.72,400.69v6.92a1.57,1.57,0,0,0,1.5,1.57,1.54,1.54,0,0,0,1.2-.46l3.82-3.82V393.1h-1l-4,4A5,5,0,0,0,288.72,400.69Z" style="fill:#fff;opacity:0.2"></path><rect x="286.35" y="380.73" width="16.6" height="13.22" rx="1.13" transform="translate(589.31 774.69) rotate(180)" style="fill:#4a6c04"></rect><path d="M286.36,381.86v11a1.13,1.13,0,0,0,1.13,1.14h14.33a1.14,1.14,0,0,0,1.13-1.14v-11a1.14,1.14,0,0,0-1.13-1.13H287.49A1.13,1.13,0,0,0,286.36,381.86Z" style="fill:#fff;opacity:0.5"></path><path d="M286.36,381.86v11a1.13,1.13,0,0,0,1.13,1.14h7.74a1.13,1.13,0,0,0,1.13-1.14v-11a1.13,1.13,0,0,0-1.13-1.13h-7.74A1.13,1.13,0,0,0,286.36,381.86Z" style="fill:#fff;opacity:0.2"></path><rect x="117.24" y="261.69" width="113.45" height="36.73" rx="4.35" style="opacity:0.1"></rect><path d="M171.08,413.79A3.22,3.22,0,1,1,174.3,417,3.22,3.22,0,0,1,171.08,413.79Z" style="fill:#263238"></path><path d="M126.35,413.79a3.22,3.22,0,1,1,3.21,3.22A3.22,3.22,0,0,1,126.35,413.79Z" style="fill:#263238"></path><path d="M174.3,415.79a2,2,0,0,1-2-2v-3.31a1.36,1.36,0,0,0-1.35-1.35h-38a1.36,1.36,0,0,0-1.36,1.35v3.31a2,2,0,0,1-4,0v-3.31a5.36,5.36,0,0,1,5.36-5.35h38a5.36,5.36,0,0,1,5.35,5.35v3.31A2,2,0,0,1,174.3,415.79Z" style="fill:#263238"></path><path d="M151.93,409.13a2,2,0,0,1-2-2V159.36a2,2,0,0,1,4,0V407.13A2,2,0,0,1,151.93,409.13Z" style="fill:#263238"></path><path d="M174.51,167.4a1,1,0,0,1,0-2,3.21,3.21,0,0,0,3.21-3.21v-.32a3.21,3.21,0,0,0-3.21-3.21H129.36a3.21,3.21,0,0,0-3.21,3.21v.32a3.21,3.21,0,1,0,6.42,0v-.6a1,1,0,1,1,2,0v.6a5.21,5.21,0,0,1-10.42,0v-.32a5.21,5.21,0,0,1,5.21-5.21h45.15a5.21,5.21,0,0,1,5.21,5.21v.32A5.21,5.21,0,0,1,174.51,167.4Z" style="fill:#263238"></path><path d="M167.74,170.91a2,2,0,0,1,2-2h0a2,2,0,0,0,2-2v-.37a3.2,3.2,0,0,1,2.93-3.26,3.09,3.09,0,0,1,3.26,3.09v.62a2,2,0,0,0,2,1.89,2,2,0,0,1,1.93,2v21.88a2.36,2.36,0,0,1-2.36,2.36h-1a2.37,2.37,0,0,0-2.37,2.36v1.68h-2.57v-1.68a2.37,2.37,0,0,0-2.37-2.36h-1a2.36,2.36,0,0,1-2.36-2.36Z" style="fill:#4a6c04"></path><path d="M167.74,170.91a2,2,0,0,1,2-2h0a2,2,0,0,0,2-2v-.37a3.2,3.2,0,0,1,2.93-3.26,3.09,3.09,0,0,1,3.26,3.09v.62a2,2,0,0,0,2,1.89,2,2,0,0,1,1.93,2v21.88a2.36,2.36,0,0,1-2.36,2.36h-1a2.37,2.37,0,0,0-2.37,2.36v1.68h-2.57v-1.68a2.37,2.37,0,0,0-2.37-2.36h-1a2.36,2.36,0,0,1-2.36-2.36Z" style="fill:#fff;opacity:0.7000000000000001"></path><rect x="168.92" y="170.01" width="11.69" height="23.6" rx="1.09" transform="translate(349.53 363.62) rotate(180)" style="opacity:0.1"></rect><path d="M180.61,183.74v8.69a1.18,1.18,0,0,1-1.18,1.18H170.1a1.18,1.18,0,0,1-1.18-1.18v-8.69Z" style="fill:#4a6c04"></path><path d="M174.51,167.4a5.22,5.22,0,0,1-5.21-5.21v-.6a1,1,0,1,1,2,0v.6a3.21,3.21,0,0,0,3.21,3.21,1,1,0,0,1,0,2Z" style="fill:#263238"></path><path d="M169.5,268.72a5.77,5.77,0,0,1-5.76-5.76V248.5c0-.06.14-2.2-1.25-2.71l.34-.94c2.11.77,1.92,3.57,1.91,3.69V263a4.76,4.76,0,0,0,9.52,0v-66.2h1V263A5.77,5.77,0,0,1,169.5,268.72Z" style="fill:#4a6c04"></path><polygon points="157.85 392.45 157.85 367.94 242.09 367.94 242.09 417.01 217.07 417.01 157.85 417.01 132.83 417.01 132.83 392.45 157.85 392.45" style="fill:#263238"></polygon><polygon points="132.83 392.45 132.83 417.01 242.09 417.01 242.09 367.94 157.85 367.94 157.85 392.45 132.83 392.45" style="fill:#fff;opacity:0.2"></polygon><polygon points="132.83 392.45 132.83 417.01 192.87 417.01 192.87 392.45 217.88 392.45 217.88 367.94 157.85 367.94 157.85 392.45 132.83 392.45" style="fill:#fff;opacity:0.2"></polygon><rect x="132.83" y="392.45" width="60.04" height="24.55" style="fill:#fff;opacity:0.2"></rect><path d="M225.3,203.57s-2.68-6.72-12.28-5.14-13,11-11.57,15.06-.26,9.14-1.71,10.16-.27,3.53.65,5.24,1,2.75-1.33,6.53a7.84,7.84,0,0,0,1.2,10c2.24,1.84,25.07,4.93,29.41,1.31,6.72-5.6.93-9.56.93-11.27,0-2,1.47-3,1.79-6.66s-3-6.07-3.38-8,1-3.81,1-6.22-1.67-2.71-2-6.19A6.18,6.18,0,0,0,225.3,203.57Z" style="fill:#263238"></path><path d="M154.72,403.71a54.26,54.26,0,0,0,11.38-5c2.24-1.2,2.26-.61,4.57-1.73a2.45,2.45,0,0,0,.43-3.93,22.93,22.93,0,0,1-3-2.88l-6.54,1.1c-.27,2.68-4.62,8.43-8.4,9.78C150.43,402,152.7,404.27,154.72,403.71Z" style="fill:#ebb376"></path><path d="M197.39,280s-25,29.82-33.13,44.35c-3.17,5.65-2.91,68.22-2.91,68.22l9.32-2.46L180,331.72l37.76-37,6.8-13.91Z" style="fill:#4a6c04"></path><g style="opacity:0.2"><path d="M161.35,392.54l9.32-2.46,8.91-55.63.44-2.73,15.23-14.92,22.53-22.06,6.79-13.91L197.39,280s-25,29.81-33.13,44.34C161.09,330,161.35,392.54,161.35,392.54Z"></path></g><path d="M179.58,334.45l.44-2.73,15.23-14.92,8.16-24.59s-20,10.8-26.09,21.08C174.14,318.68,176.56,327.38,179.58,334.45Z" style="opacity:0.2"></path><path d="M182.52,392.93a53.69,53.69,0,0,0,11.72-4.11c2.33-1,2.3-.43,4.69-1.38a2.45,2.45,0,0,0,.72-3.89,23.26,23.26,0,0,1-2.8-3.09l-6.61.59c-.47,2.66-5.25,8.06-9.11,9.12C178.36,390.94,180.46,393.35,182.52,392.93Z" style="fill:#ebb376"></path><path d="M224.58,280.82s-35.72,16.26-42.82,30.83c-5,10.2,7.83,69.57,7.83,69.57l8.9-.63c-.16-20.6,1.44-57.23,1.44-57.23s25.35-11.83,27.73-17.21C232.14,296,224.58,280.82,224.58,280.82Z" style="fill:#4a6c04"></path><g style="opacity:0.2"><path d="M224.58,280.82s-35.72,16.26-42.82,30.83c-5,10.2,7.83,69.57,7.83,69.57l8.9-.63c-.16-20.6,1.44-57.23,1.44-57.23s25.35-11.83,27.73-17.21C232.14,296,224.58,280.82,224.58,280.82Z"></path></g><path d="M201.86,248.16a97,97,0,0,1-10,7c-3.81,2.29-8.89,5.17-13.54,4.19-8.34-1.66-15.45-6.59-22-11.67a2.18,2.18,0,0,1,2.33-3.65,117,117,0,0,0,15.73,6.66c2.22.64,4.57,1.33,6.54.92,5.57-2.55,10.63-6.81,15.66-10.35a4.38,4.38,0,0,1,5.32,6.95Z" style="fill:#e9b376"></path><path d="M203.41,236.36c-6.22.69-14.59,9.31-14.59,9.31s3.37,11.73,6.62,12.43S203.41,236.36,203.41,236.36Z" style="fill:#4a6c04"></path><path d="M197.33,256.43c-.65,1.15-1.3,1.79-1.89,1.67-1.27-.28-2.56-2.24-3.66-4.52a20.57,20.57,0,0,1,4.73-5.08C197.57,250.44,197.79,253.69,197.33,256.43Z" style="opacity:0.1"></path><path d="M194.59,248.2a86.7,86.7,0,0,0,.18,11.77c.33,5.74.21,12.31,1.22,21.7h30c-.74-8.13-.46-18.9,4.37-37.3a6.73,6.73,0,0,0-5.92-8.64c-1.15-.09-2.36-.17-3.61-.2a89.53,89.53,0,0,0-13.11.25c-1.42.15-2.9.36-4.3.58C198.32,237.17,194.65,243.11,194.59,248.2Z" style="fill:#4a6c04"></path><path d="M149.66,243.84l.77,2a2.52,2.52,0,0,0,1.71,1.53l3.66,1a4.68,4.68,0,0,0,4.19-.94l.71-.6c-1-3.43-4.69-6.36-4.69-6.36l-.94-1a2.09,2.09,0,0,0-3-.07l-1.91,1.85A2.41,2.41,0,0,0,149.66,243.84Z" style="fill:#ebb376"></path><path d="M219.62,220.78c-1.06,4.24-2.31,12,.48,14.76,0,0-2.83,3.64-12.89,9.28-3.8-5-.22-9-.22-9,4.77-1.22,4.84-4.71,4.2-8Z" style="fill:#ebb376"></path><path d="M216.18,223.65l-5,4.16a12.35,12.35,0,0,1,.28,2.32c1.81-.29,4.39-2.31,4.68-4.2A6.22,6.22,0,0,0,216.18,223.65Z" style="opacity:0.2"></path><path d="M223.06,212.24c-1.15,6.84-1.49,9.75-5.32,13.09-5.75,5-13.83,2.58-14.73-4.35-.81-6.24,1.21-16.37,8.18-18.75A8.88,8.88,0,0,1,223.06,212.24Z" style="fill:#ebb376"></path><path d="M214.38,213.55c-.07.57-.42,1-.79,1s-.62-.5-.54-1.08.43-1,.8-1S214.46,213,214.38,213.55Z" style="fill:#263238"></path><path d="M207.2,212.93c-.07.58-.43,1-.8,1s-.61-.5-.54-1.08.43-1,.8-1S207.27,212.35,207.2,212.93Z" style="fill:#263238"></path><path d="M206.82,211.89l-1.31-.48S206.08,212.54,206.82,211.89Z" style="fill:#263238"></path><path d="M209.09,213.49a17.19,17.19,0,0,1-2.47,3.57,2.3,2.3,0,0,0,2,.5Z" style="fill:#d58745"></path><path d="M215.9,210a.31.31,0,0,1-.24-.1,2.5,2.5,0,0,0-2.22-.8.32.32,0,0,1-.38-.26.36.36,0,0,1,.28-.4,3.07,3.07,0,0,1,2.82,1,.35.35,0,0,1,0,.48A.37.37,0,0,1,215.9,210Z" style="fill:#263238"></path><path d="M204.72,209a.36.36,0,0,1-.24-.06.34.34,0,0,1,0-.47,3.54,3.54,0,0,1,2.76-1.53.3.3,0,0,1,.3.34.38.38,0,0,1-.36.34,2.8,2.8,0,0,0-2.17,1.23A.41.41,0,0,1,204.72,209Z" style="fill:#263238"></path><path d="M214,212.5,212.7,212S213.26,213.15,214,212.5Z" style="fill:#263238"></path><path d="M221.15,217.36s-2.87-7.27-2.39-13.42c0,0-8.18-2.9-12.53,2.18,0,0,1.14-4.8,8.4-5.58S230.17,208.76,221.15,217.36Z" style="fill:#263238"></path><path d="M224.72,218a5.56,5.56,0,0,1-3.54,2.35c-1.86.32-2.49-1.54-1.73-3.32.68-1.6,2.47-3.69,4.22-3.2S225.77,216.47,224.72,218Z" style="fill:#ebb376"></path><path d="M208.12,221a.25.25,0,0,1-.22-.13.24.24,0,0,1,.1-.34,9.39,9.39,0,0,1,3.53-.87h0a.26.26,0,0,1,.25.24.25.25,0,0,1-.24.26,9.18,9.18,0,0,0-3.31.81Z" style="fill:#263238"></path><path d="M230,245.63c-1.31,5.08-2.31,9.44-3,13.27-4.34-5.67-2.36-14.23-2.36-14.23C226.4,243.57,228.3,244.15,230,245.63Z" style="opacity:0.1"></path><path d="M231.79,242.48c2.05,10.72,3.23,21.86,5.87,32.36,2.57,8.18,5.8,16.23,8.59,24.35a2.18,2.18,0,0,1-3.92,1.84c-5.08-8.82-10.26-17.76-13.28-27.55a299.06,299.06,0,0,1-5.89-29.6c-.69-5.67,7.49-7,8.63-1.4Z" style="fill:#e9b376"></path><path d="M226.61,236.37c5.74,2.4,8.85,12.53,8.85,12.53s-4.62,8.59-10.93,11.64c0,0-5.43-13.73-3.53-19.27S226.61,236.37,226.61,236.37Z" style="fill:#4a6c04"></path><path d="M243.89,297.81l8,.62-1.64,6.8s-5.65.36-7.61-3.87Z" style="fill:#ebb376"></path><polygon points="256.7 301.48 254.26 306.26 250.24 305.24 251.88 298.43 256.7 301.48" style="fill:#ebb376"></polygon><path d="M212.54,201.68s.39,5.32,3.73,5.72,3.36,5,3.36,5l4.52-6.66-3.56-4.54Z" style="fill:#263238"></path><path d="M196.47,233.05a.25.25,0,0,1,0-.5,2.48,2.48,0,0,0,1.87-1.89,3.76,3.76,0,0,0-.48-2.5,5.29,5.29,0,0,1-.51-3.93,11,11,0,0,1,1.33-2.39c1.16-1.76,2.48-3.76,1.83-7-1.08-5.34,1-9.86,6.2-13.42a.27.27,0,0,1,.35.07.25.25,0,0,1-.07.35c-5.08,3.48-7,7.7-6,12.9.69,3.4-.69,5.48-1.91,7.32a10.84,10.84,0,0,0-1.26,2.28,4.74,4.74,0,0,0,.49,3.57,4.21,4.21,0,0,1,.5,2.85,3,3,0,0,1-2.29,2.24Z" style="fill:#263238"></path><path d="M220.47,214.21a1.24,1.24,0,0,1-.58-.13c-.7-.32-1-1.19-1.31-2.2-.48-1.48-1-3.16-3-3.7-4.33-1.19-3.32-6.5-3.31-6.55a.25.25,0,0,1,.29-.19.24.24,0,0,1,.2.29c0,.2-.93,4.9,2.95,6,2.21.61,2.83,2.5,3.33,4,.29.89.54,1.67,1,1.9a1.37,1.37,0,0,0,1.1-.09.24.24,0,0,1,.33.13.25.25,0,0,1-.14.33A2.46,2.46,0,0,1,220.47,214.21Z" style="fill:#263238"></path><path d="M232.64,237.32a.25.25,0,0,1-.2-.09c-1.39-1.71-.64-3.65.08-5.52a8.72,8.72,0,0,0,.79-2.89,10.07,10.07,0,0,0-1.67-5c-.93-1.69-1.81-3.29-1.28-5.19.88-3.16-.58-5.53-1.76-7.44a6.77,6.77,0,0,1-1.37-3.23.25.25,0,0,1,.25-.25.25.25,0,0,1,.25.25,6.61,6.61,0,0,0,1.29,3c1.23,2,2.76,4.47,1.83,7.83-.48,1.71.31,3.15,1.23,4.82a10.64,10.64,0,0,1,1.73,5.27,9.19,9.19,0,0,1-.82,3.06c-.71,1.82-1.37,3.54-.16,5a.24.24,0,0,1,0,.35A.22.22,0,0,1,232.64,237.32Z" style="fill:#263238"></path><polygon points="160.7 244.7 159.99 247.41 158.45 246.86 159.27 243.98 160.7 244.7" style="fill:#4a6c04"></polygon><polygon points="160.7 244.7 159.99 247.41 158.45 246.86 159.27 243.98 160.7 244.7" style="fill:#fff;opacity:0.7000000000000001"></polygon><path d="M162.66,245.82a.47.47,0,0,1-.17,0,3.71,3.71,0,0,0-2.69,0,.5.5,0,0,1-.67-.23.49.49,0,0,1,.23-.66,4.67,4.67,0,0,1,3.47,0,.5.5,0,0,1-.17,1Z" style="fill:#4a6c04"></path></g><g id="freepik--Plant--inject-2"><path d="M91.29,392.85s4.75-10.36-.68-20.58-7-12.62-3.54-14.72,5.05,8.18,5.05,8.18a23.09,23.09,0,0,0,.5-14.46c-2.4-7.39-3.91-19.43-.63-20.72s.63,15,3.49,20.58A48.19,48.19,0,0,0,98.27,339c.39-5.93-.22-15.41,2.37-17.85s4.26-.74,1.71,12.36a137.07,137.07,0,0,0-2.53,23.75s5.63-17.19,9.42-17.69,3.78,5.07.54,9.89-9.49,13.48-10.51,17.93c0,0,6.19-12.93,11.75-9s-4.84,11.78-9.48,14.6-7.86,20.52-7.86,20.52Z" style="fill:#4a6c04"></path><path d="M91.29,392.85s4.75-10.36-.68-20.58-7-12.62-3.54-14.72,5.05,8.18,5.05,8.18a23.09,23.09,0,0,0,.5-14.46c-2.4-7.39-3.91-19.43-.63-20.72s.63,15,3.49,20.58A48.19,48.19,0,0,0,98.27,339c.39-5.93-.22-15.41,2.37-17.85s4.26-.74,1.71,12.36a137.07,137.07,0,0,0-2.53,23.75s5.63-17.19,9.42-17.69,3.78,5.07.54,9.89-9.49,13.48-10.51,17.93c0,0,6.19-12.93,11.75-9s-4.84,11.78-9.48,14.6-7.86,20.52-7.86,20.52Z" style="isolation:isolate;opacity:0.2"></path><path d="M95,397.1s-4.63-10.43.92-20.57,7.15-12.51,3.72-14.66-5.15,8.1-5.15,8.1a23.07,23.07,0,0,1-.33-14.46c2.49-7.36,4.15-19.37.88-20.71s-.81,15-3.73,20.52a48.15,48.15,0,0,1-2.65-12.17c-.32-5.94.41-15.41-2.16-17.88s-4.25-.81-1.85,12.33a137.21,137.21,0,0,1,2.24,23.79s-5.43-17.27-9.2-17.83-3.84,5-.66,9.88,9.32,13.62,10.29,18.08c0,0-6-13-11.64-9.14s4.7,11.85,9.3,14.74,7.62,20.63,7.62,20.63Z" style="fill:#4a6c04"></path><polygon points="73.7 389.67 111.91 389.67 108.82 417.01 76.8 417.01 73.7 389.67" style="fill:#263238"></polygon></g></svg>